{
.appVersion = "1286";
copyright = "Copyright © 2021 by Ruby Ku. All rights reserved.";
customParameters = (
{
name = "Disable Subroutines";
value = 1;
}
);
date = "2021-12-30 13:41:45 +0000";
designer = "Ruby Ku";
familyName = "EBH Initials";
featurePrefixes = (
{
automatic = 1;
code = "languagesystem DFLT dflt;\012";
name = Languagesystems;
}
);
features = (
{
automatic = 1;
code = "lookupflag IgnoreMarks;\012sub A two by A_two.liga;\012sub E three by E_three.liga;\012sub E two by E_two.liga;\012sub Eth four by Eth_four.liga;\012sub Eth three by Eth_three.liga;\012sub Eth two by Eth_two.liga;\012sub H four by H_four.liga;\012sub H three by H_three.liga;\012sub H two by H_two.liga;\012sub I four by I_four.liga;\012sub I three by I_three.liga;\012sub I two by I_two.liga;\012sub L two by L_two.liga;\012sub M three by M_three.liga;\012sub M two by M_two.liga;\012sub N three by N_three.liga;\012sub N two by N_two.liga;\012sub W two by W_two.liga;\012sub Wynn three by Wynn_three.liga;\012sub Wynn two by Wynn_two.liga;\012sub a two by a_two.liga;\012sub e three by e_three.liga;\012sub e two by e_two.liga;\012sub eth four by eth_four.liga;\012sub eth three by eth_three.liga;\012sub eth two by eth_two.liga;\012sub h four by h_four.liga;\012sub h three by h_three.liga;\012sub h two by h_two.liga;\012sub i four by i_four.liga;\012sub i three by i_three.liga;\012sub i two by i_two.liga;\012sub l two by l_two.liga;\012sub m three by m_three.liga;\012sub m two by m_two.liga;\012sub n three by n_three.liga;\012sub n two by n_two.liga;\012sub w two by w_two.liga;\012sub wynn three by wynn_three.liga;\012sub wynn two by wynn_two.liga;\012";
name = liga;
}
);
fontMaster = (
{
alignmentZones = (
"{1000, 16}",
"{950, 8}",
"{500, 15}",
"{0, -15}",
"{-450, -16}"
);
ascender = 1000;
capHeight = 950;
descender = -450;
id = "C926F53D-A7E5-453A-A1AF-2EFB3CF89CC0";
weightValue = 400;
xHeight = 500;
}
);
glyphs = (
{
glyphname = A;
lastChange = "2021-12-30 14:01:18 +0000";
layers = (
{
hints = (
{
horizontal = 1;
place = "{44, 20}";
type = Stem;
},
{
horizontal = 1;
place = "{416, 17}";
type = Stem;
},
{
horizontal = 1;
place = "{922, 12}";
type = Stem;
},
{
place = "{-20, 807}";
type = Stem;
},
{
place = "{255, 200}";
type = Stem;
},
{
place = "{451, 8}";
type = Stem;
}
);
layerId = "C926F53D-A7E5-453A-A1AF-2EFB3CF89CC0";
paths = (
{
closed = 1;
nodes = (
"577 39 OFFCURVE",
"607 38 OFFCURVE",
"641 42 CURVE SMOOTH",
"665 44 OFFCURVE",
"687 44 OFFCURVE",
"713 44 CURVE SMOOTH",
"806 43 OFFCURVE",
"805 45 OFFCURVE",
"747 57 CURVE SMOOTH",
"719 62 OFFCURVE",
"693 132 OFFCURVE",
"684 152 CURVE SMOOTH",
"661 201 OFFCURVE",
"653 252 OFFCURVE",
"636 300 CURVE SMOOTH",
"619 346 OFFCURVE",
"606 393 OFFCURVE",
"591 440 CURVE",
"579 495 OFFCURVE",
"559 545 OFFCURVE",
"548 597 CURVE SMOOTH",
"528 678 OFFCURVE",
"496 752 OFFCURVE",
"476 828 CURVE SMOOTH",
"470 852 OFFCURVE",
"459 888 OFFCURVE",
"455 918 CURVE SMOOTH",
"454 930 OFFCURVE",
"487 929 OFFCURVE",
"492 930 CURVE SMOOTH",
"510 934 OFFCURVE",
"459 934 OFFCURVE",
"447 934 CURVE SMOOTH",
"403 934 OFFCURVE",
"358 939 OFFCURVE",
"316 939 CURVE SMOOTH",
"274 939 LINE SMOOTH",
"241 939 OFFCURVE",
"198 939 OFFCURVE",
"186 925 CURVE SMOOTH",
"179 918 OFFCURVE",
"243 929 OFFCURVE",
"248 925 CURVE SMOOTH",
"265 911 OFFCURVE",
"248 870 OFFCURVE",
"244 854 CURVE SMOOTH",
"230 778 OFFCURVE",
"220 703 OFFCURVE",
"201 630 CURVE SMOOTH",
"177 537 OFFCURVE",
"152 441 OFFCURVE",
"134 346 CURVE SMOOTH",
"126 310 OFFCURVE",
"120 273 OFFCURVE",
"110 239 CURVE SMOOTH",
"98 194 OFFCURVE",
"90 140 OFFCURVE",
"69 92 CURVE SMOOTH",
"51 54 OFFCURVE",
"28 57 OFFCURVE",
"-10 50 CURVE",
"-47 39 OFFCURVE",
"31 45 OFFCURVE",
"50 45 CURVE SMOOTH",
"120 45 OFFCURVE",
"156 38 OFFCURVE",
"183 42 CURVE SMOOTH",
"203 45 OFFCURVE",
"277 38 OFFCURVE",
"245 47 CURVE SMOOTH",
"230 52 OFFCURVE",
"179 50 OFFCURVE",
"179 67 CURVE SMOOTH",
"179 140 LINE SMOOTH",
"179 191 OFFCURVE",
"191 239 OFFCURVE",
"194 284 CURVE SMOOTH",
"199 338 OFFCURVE",
"208 391 OFFCURVE",
"214 443 CURVE SMOOTH",
"220 497 OFFCURVE",
"222 516 OFFCURVE",
"226 516 CURVE SMOOTH",
"235 516 OFFCURVE",
"256 418 OFFCURVE",
"373 416 CURVE SMOOTH",
"417 416 OFFCURVE",
"455 506 OFFCURVE",
"459 487 CURVE",
"459 489 OFFCURVE",
"533 231 OFFCURVE",
"535 231 CURVE",
"560 143 OFFCURVE",
"569 94 OFFCURVE",
"569 69 CURVE SMOOTH",
"569 45 OFFCURVE",
"496 45 OFFCURVE",
"533 39 CURVE"
);
},
{
closed = 1;
nodes = (
"314 433 OFFCURVE",
"249 527 OFFCURVE",
"237 601 CURVE",
"237 636 OFFCURVE",
"257 559 OFFCURVE",
"266 540 CURVE SMOOTH",
"295 478 OFFCURVE",
"350 429 OFFCURVE",
"386 442 CURVE SMOOTH",
"422 454 OFFCURVE",
"432 472 OFFCURVE",
"451 504 CURVE",
"455 509 OFFCURVE",
"453 504 OFFCURVE",
"452 500 CURVE",
"437 470 OFFCURVE",
"408 433 OFFCURVE",
"371 433 CURVE SMOOTH"
);
},
{
closed = 1;
nodes = (
"655 64 OFFCURVE",
"624 176 OFFCURVE",
"588 277 CURVE",
"525 481 LINE",
"459 687 LINE SMOOTH",
"447 726 OFFCURVE",
"436 763 OFFCURVE",
"425 802 CURVE SMOOTH",
"408 855 LINE SMOOTH",
"391 902 OFFCURVE",
"385 922 OFFCURVE",
"390 922 CURVE SMOOTH",
"401 922 OFFCURVE",
"395 917 OFFCURVE",
"415 863 CURVE SMOOTH",
"425 832 OFFCURVE",
"433 812 OFFCURVE",
"439 788 CURVE SMOOTH",
"472 679 LINE SMOOTH",
"496 605 OFFCURVE",
"520 531 OFFCURVE",
"542 456 CURVE SMOOTH",
"566 383 OFFCURVE",
"586 312 OFFCURVE",
"609 239 CURVE SMOOTH",
"645 127 LINE SMOOTH",
"655 99 OFFCURVE",
"670 59 OFFCURVE",
"665 64 CURVE"
);
},
{
closed = 1;
nodes = (
"329 464 OFFCURVE",
"287 511 OFFCURVE",
"265 622 CURVE SMOOTH",
"246 716 OFFCURVE",
"267 763 OFFCURVE",
"295 878 CURVE SMOOTH",
"301 902 OFFCURVE",
"307 927 OFFCURVE",
"314 922 CURVE SMOOTH",
"327 914 OFFCURVE",
"352 859 OFFCURVE",
"356 841 CURVE SMOOTH",
"371 786 OFFCURVE",
"395 731 OFFCURVE",
"410 675 CURVE SMOOTH",
"417 647 OFFCURVE",
"432 574 OFFCURVE",
"447 532 CURVE SMOOTH",
"453 512 OFFCURVE",
"413 445 OFFCURVE",
"371 455 CURVE SMOOTH"
);
}
);
width = 747;
}
);
note = A;
unicode = 0041;
},
{
glyphname = Adieresis;
lastChange = "2021-12-30 14:01:18 +0000";
layers = (
{
hints = (
{
horizontal = 1;
place = "{44, 20}";
type = Stem;
},
{
horizontal = 1;
place = "{413, 17}";
type = Stem;
},
{
horizontal = 1;
place = "{915, 12}";
type = Stem;
},
{
horizontal = 1;
place = "{1030, 13}";
type = Stem;
},
{
place = "{239, 75}";
type = Stem;
},
{
place = "{400, 23}";
type = Stem;
},
{
place = "{451, 8}";
type = Stem;
},
{
place = "{255, 200}";
type = Stem;
}
);
layerId = "C926F53D-A7E5-453A-A1AF-2EFB3CF89CC0";
paths = (
{
closed = 1;
nodes = (
"577 39 OFFCURVE",
"607 38 OFFCURVE",
"641 42 CURVE SMOOTH",
"665 44 OFFCURVE",
"687 44 OFFCURVE",
"713 44 CURVE SMOOTH",
"806 43 OFFCURVE",
"805 45 OFFCURVE",
"747 57 CURVE SMOOTH",
"719 62 OFFCURVE",
"693 131 OFFCURVE",
"684 151 CURVE SMOOTH",
"661 199 OFFCURVE",
"653 250 OFFCURVE",
"636 298 CURVE SMOOTH",
"619 343 OFFCURVE",
"606 390 OFFCURVE",
"591 436 CURVE",
"579 491 OFFCURVE",
"559 541 OFFCURVE",
"548 593 CURVE SMOOTH",
"528 673 OFFCURVE",
"496 747 OFFCURVE",
"476 822 CURVE SMOOTH",
"470 846 OFFCURVE",
"459 881 OFFCURVE",
"455 911 CURVE SMOOTH",
"454 923 OFFCURVE",
"487 922 OFFCURVE",
"492 923 CURVE SMOOTH",
"510 927 OFFCURVE",
"459 927 OFFCURVE",
"447 927 CURVE SMOOTH",
"403 927 OFFCURVE",
"358 932 OFFCURVE",
"316 932 CURVE SMOOTH",
"274 932 LINE SMOOTH",
"241 932 OFFCURVE",
"198 932 OFFCURVE",
"186 918 CURVE SMOOTH",
"179 911 OFFCURVE",
"243 922 OFFCURVE",
"248 918 CURVE SMOOTH",
"265 904 OFFCURVE",
"248 864 OFFCURVE",
"244 847 CURVE SMOOTH",
"230 773 OFFCURVE",
"220 698 OFFCURVE",
"201 626 CURVE SMOOTH",
"177 534 OFFCURVE",
"152 437 OFFCURVE",
"134 343 CURVE SMOOTH",
"126 308 OFFCURVE",
"120 271 OFFCURVE",
"110 238 CURVE SMOOTH",
"98 193 OFFCURVE",
"90 139 OFFCURVE",
"69 92 CURVE SMOOTH",
"51 54 OFFCURVE",
"28 57 OFFCURVE",
"-10 50 CURVE",
"-47 39 OFFCURVE",
"31 45 OFFCURVE",
"50 45 CURVE SMOOTH",
"120 45 OFFCURVE",
"156 38 OFFCURVE",
"183 42 CURVE SMOOTH",
"203 45 OFFCURVE",
"277 38 OFFCURVE",
"245 47 CURVE SMOOTH",
"230 51 OFFCURVE",
"179 50 OFFCURVE",
"179 67 CURVE SMOOTH",
"179 139 LINE SMOOTH",
"179 190 OFFCURVE",
"191 238 OFFCURVE",
"194 282 CURVE SMOOTH",
"199 336 OFFCURVE",
"208 389 OFFCURVE",
"214 439 CURVE SMOOTH",
"220 493 OFFCURVE",
"222 512 OFFCURVE",
"226 512 CURVE SMOOTH",
"235 512 OFFCURVE",
"256 415 OFFCURVE",
"373 413 CURVE SMOOTH",
"417 413 OFFCURVE",
"455 503 OFFCURVE",
"459 484 CURVE SMOOTH",
"459 485 OFFCURVE",
"533 229 OFFCURVE",
"535 229 CURVE",
"560 142 OFFCURVE",
"569 94 OFFCURVE",
"569 69 CURVE SMOOTH",
"569 45 OFFCURVE",
"496 45 OFFCURVE",
"533 39 CURVE"
);
},
{
closed = 1;
nodes = (
"314 430 OFFCURVE",
"249 523 OFFCURVE",
"237 597 CURVE",
"237 631 OFFCURVE",
"257 555 OFFCURVE",
"266 536 CURVE SMOOTH",
"295 475 OFFCURVE",
"350 426 OFFCURVE",
"386 438 CURVE SMOOTH",
"422 451 OFFCURVE",
"432 468 OFFCURVE",
"451 500 CURVE SMOOTH",
"455 506 OFFCURVE",
"453 500 OFFCURVE",
"452 496 CURVE",
"439 471 OFFCURVE",
"416 441 OFFCURVE",
"389 433 CURVE SMOOTH",
"383 431 OFFCURVE",
"377 430 OFFCURVE",
"371 430 CURVE SMOOTH"
);
},
{
closed = 1;
nodes = (
"655 64 OFFCURVE",
"624 175 OFFCURVE",
"588 275 CURVE SMOOTH",
"567 342 OFFCURVE",
"546 409 OFFCURVE",
"525 478 CURVE SMOOTH",
"459 682 LINE SMOOTH",
"447 721 OFFCURVE",
"436 757 OFFCURVE",
"425 796 CURVE SMOOTH",
"408 848 LINE SMOOTH",
"391 896 OFFCURVE",
"385 915 OFFCURVE",
"390 915 CURVE SMOOTH",
"401 915 OFFCURVE",
"395 910 OFFCURVE",
"415 856 CURVE SMOOTH",
"425 825 OFFCURVE",
"433 806 OFFCURVE",
"439 782 CURVE SMOOTH",
"472 674 LINE SMOOTH",
"496 601 OFFCURVE",
"520 527 OFFCURVE",
"542 453 CURVE SMOOTH",
"566 380 OFFCURVE",
"586 310 OFFCURVE",
"609 238 CURVE SMOOTH",
"645 126 LINE SMOOTH",
"655 98 OFFCURVE",
"670 59 OFFCURVE",
"665 64 CURVE"
);
},
{
closed = 1;
nodes = (
"329 461 OFFCURVE",
"287 508 OFFCURVE",
"265 617 CURVE SMOOTH",
"246 710 OFFCURVE",
"267 757 OFFCURVE",
"295 872 CURVE SMOOTH",
"301 896 OFFCURVE",
"307 919 OFFCURVE",
"314 915 CURVE SMOOTH",
"327 907 OFFCURVE",
"352 852 OFFCURVE",
"356 835 CURVE SMOOTH",
"371 780 OFFCURVE",
"395 726 OFFCURVE",
"410 670 CURVE SMOOTH",
"417 642 OFFCURVE",
"432 570 OFFCURVE",
"447 528 CURVE SMOOTH",
"453 509 OFFCURVE",
"413 441 OFFCURVE",
"371 452 CURVE SMOOTH"
);
},
{
closed = 1;
nodes = (
"295 976 OFFCURVE",
"323 996 OFFCURVE",
"311 1023 CURVE",
"307 1037 OFFCURVE",
"296 1043 OFFCURVE",
"283 1043 CURVE SMOOTH",
"258 1043 OFFCURVE",
"229 1019 OFFCURVE",
"242 991 CURVE",
"248 981 OFFCURVE",
"259 976 OFFCURVE",
"271 976 CURVE SMOOTH"
);
},
{
closed = 1;
nodes = (
"268 1000 OFFCURVE",
"264 1002 OFFCURVE",
"262 1006 CURVE SMOOTH",
"256 1018 OFFCURVE",
"268 1030 OFFCURVE",
"279 1030 CURVE SMOOTH",
"284 1030 OFFCURVE",
"288 1028 OFFCURVE",
"291 1023 CURVE SMOOTH",
"296 1012 OFFCURVE",
"282 1000 OFFCURVE",
"272 1000 CURVE SMOOTH"
);
},
{
closed = 1;
nodes = (
"410 977 OFFCURVE",
"432 990 OFFCURVE",
"420 1021 CURVE SMOOTH",
"415 1037 OFFCURVE",
"402 1044 OFFCURVE",
"388 1044 CURVE SMOOTH",
"370 1044 OFFCURVE",
"350 1030 OFFCURVE",
"351 1001 CURVE SMOOTH",
"351 985 OFFCURVE",
"369 977 OFFCURVE",
"387 977 CURVE SMOOTH"
);
},
{
closed = 1;
nodes = (
"380 1004 OFFCURVE",
"373 1006 OFFCURVE",
"371 1011 CURVE SMOOTH",
"367 1021 OFFCURVE",
"378 1029 OFFCURVE",
"387 1029 CURVE SMOOTH",
"394 1029 OFFCURVE",
"400 1025 OFFCURVE",
"400 1016 CURVE",
"404 1008 OFFCURVE",
"395 1004 OFFCURVE",
"386 1004 CURVE SMOOTH"
);
}
);
width = 747;
}
);
note = Adieresis;
unicode = 00C4;
},
{
glyphname = AE;
lastChange = "2021-12-30 14:01:18 +0000";
layers = (
{
hints = (
{
horizontal = 1;
place = "{0, 21}";
target = up;
type = BottomGhost;
},
{
horizontal = 1;
place = "{47, 10}";
type = Stem;
},
{
horizontal = 1;
place = "{363, 22}";
type = Stem;
},
{
horizontal = 1;
place = "{394, 14}";
type = Stem;
},
{
horizontal = 1;
place = "{482, 34}";
type = Stem;
},
{
horizontal = 1;
place = "{902, 42}";
type = Stem;
},
{
horizontal = 1;
place = "{959, -20}";
target = down;
type = TopGhost;
},
{
place = "{415, 58}";
type = Stem;
},
{
place = "{479, 48}";
type = Stem;
},
{
place = "{876, 7}";
type = Stem;
},
{
place = "{489, 34}";
type = Stem;
},
{
horizontal = 1;
place = "{915, 14}";
type = Stem;
},
{
horizontal = 1;
place = "{49, 39}";
type = Stem;
}
);
layerId = "C926F53D-A7E5-453A-A1AF-2EFB3CF89CC0";
paths = (
{
closed = 1;
nodes = (
"864 0 OFFCURVE",
"882 90 OFFCURVE",
"885 113 CURVE SMOOTH",
"889 153 OFFCURVE",
"910 265 OFFCURVE",
"904 265 CURVE",
"904 265 OFFCURVE",
"901 263 OFFCURVE",
"900 258 CURVE SMOOTH",
"889 203 OFFCURVE",
"886 165 OFFCURVE",
"831 136 CURVE SMOOTH",
"762 101 OFFCURVE",
"671 90 OFFCURVE",
"623 89 CURVE SMOOTH",
"558 87 LINE SMOOTH",
"533 85 OFFCURVE",
"529 91 OFFCURVE",
"527 113 CURVE SMOOTH",
"519 259 OFFCURVE",
"517 358 OFFCURVE",
"519 421 CURVE SMOOTH",
"521 478 LINE SMOOTH",
"521 481 OFFCURVE",
"531 482 OFFCURVE",
"548 482 CURVE SMOOTH",
"620 482 OFFCURVE",
"811 461 OFFCURVE",
"837 453 CURVE SMOOTH",
"860 447 OFFCURVE",
"858 434 OFFCURVE",
"864 415 CURVE SMOOTH",
"867 407 OFFCURVE",
"866 373 OFFCURVE",
"875 376 CURVE SMOOTH",
"881 379 OFFCURVE",
"883 443 OFFCURVE",
"883 496 CURVE SMOOTH",
"883 535 OFFCURVE",
"882 567 OFFCURVE",
"880 567 CURVE SMOOTH",
"876 567 OFFCURVE",
"876 564 OFFCURVE",
"876 559 CURVE SMOOTH",
"876 552 LINE SMOOTH",
"876 538 OFFCURVE",
"873 519 OFFCURVE",
"824 519 CURVE SMOOTH",
"767 519 OFFCURVE",
"717 516 OFFCURVE",
"653 516 CURVE SMOOTH",
"570 516 LINE SMOOTH",
"517 516 OFFCURVE",
"524 519 OFFCURVE",
"524 542 CURVE SMOOTH",
"523 610 LINE SMOOTH",
"523 706 OFFCURVE",
"523 810 OFFCURVE",
"555 902 CURVE SMOOTH",
"556 906 OFFCURVE",
"570 908 OFFCURVE",
"588 908 CURVE SMOOTH",
"619 908 OFFCURVE",
"665 902 OFFCURVE",
"675 902 CURVE SMOOTH",
"712 902 OFFCURVE",
"754 902 OFFCURVE",
"790 882 CURVE SMOOTH",
"809 871 OFFCURVE",
"819 868 OFFCURVE",
"832 856 CURVE SMOOTH",
"862 828 OFFCURVE",
"860 834 OFFCURVE",
"886 795 CURVE SMOOTH",
"891 788 LINE",
"894 788 OFFCURVE",
"894 794 OFFCURVE",
"894 807 CURVE SMOOTH",
"893 900 LINE SMOOTH",
"893 910 OFFCURVE",
"889 942 OFFCURVE",
"889 953 CURVE SMOOTH",
"889 957 OFFCURVE",
"886 959 OFFCURVE",
"883 959 CURVE SMOOTH",
"877 959 OFFCURVE",
"869 953 OFFCURVE",
"858 951 CURVE SMOOTH",
"836 946 OFFCURVE",
"820 942 OFFCURVE",
"806 942 CURVE SMOOTH",
"792 942 OFFCURVE",
"779 944 OFFCURVE",
"760 944 CURVE SMOOTH",
"631 940 LINE SMOOTH",
"542 938 OFFCURVE",
"454 938 OFFCURVE",
"365 933 CURVE SMOOTH",
"200 925 LINE SMOOTH",
"178 923 OFFCURVE",
"171 920 OFFCURVE",
"171 915 CURVE SMOOTH",
"171 907 OFFCURVE",
"190 897 OFFCURVE",
"200 894 CURVE SMOOTH",
"214 888 OFFCURVE",
"222 884 OFFCURVE",
"232 871 CURVE SMOOTH",
"234 868 OFFCURVE",
"234 862 OFFCURVE",
"234 857 CURVE SMOOTH",
"234 818 OFFCURVE",
"207 742 OFFCURVE",
"191 682 CURVE SMOOTH",
"133 458 LINE SMOOTH",
"87 278 OFFCURVE",
"36 66 OFFCURVE",
"-4 57 CURVE SMOOTH",
"-29 51 OFFCURVE",
"-40 52 OFFCURVE",
"-40 51 CURVE SMOOTH",
"-40 49 OFFCURVE",
"-28 47 OFFCURVE",
"-9 47 CURVE SMOOTH",
"3 47 OFFCURVE",
"16 49 OFFCURVE",
"31 49 CURVE SMOOTH",
"153 50 LINE SMOOTH",
"181 50 OFFCURVE",
"201 50 OFFCURVE",
"201 51 CURVE",
"187 52 LINE SMOOTH",
"151 56 OFFCURVE",
"143 61 OFFCURVE",
"136 90 CURVE SMOOTH",
"132 104 OFFCURVE",
"130 118 OFFCURVE",
"130 132 CURVE SMOOTH",
"130 178 OFFCURVE",
"146 224 OFFCURVE",
"158 269 CURVE SMOOTH",
"169 311 OFFCURVE",
"175 350 OFFCURVE",
"187 395 CURVE SMOOTH",
"191 413 OFFCURVE",
"196 446 OFFCURVE",
"204 439 CURVE SMOOTH",
"239 407 LINE SMOOTH",
"259 389 OFFCURVE",
"282 364 OFFCURVE",
"310 363 CURVE SMOOTH",
"329 362 OFFCURVE",
"403 461 OFFCURVE",
"410 474 CURVE SMOOTH",
"415 482 OFFCURVE",
"415 458 OFFCURVE",
"415 424 CURVE SMOOTH",
"415 366 OFFCURVE",
"411 274 OFFCURVE",
"410 229 CURVE SMOOTH",
"409 183 OFFCURVE",
"404 72 OFFCURVE",
"379 61 CURVE",
"374 58 OFFCURVE",
"372 57 OFFCURVE",
"372 56 CURVE SMOOTH",
"372 51 OFFCURVE",
"393 47 OFFCURVE",
"445 47 CURVE SMOOTH",
"463 47 OFFCURVE",
"483 49 OFFCURVE",
"507 49 CURVE SMOOTH",
"632 51 LINE SMOOTH",
"750 53 OFFCURVE",
"860 45 OFFCURVE",
"860 28 CURVE SMOOTH",
"860 0 LINE"
);
},
{
closed = 1;
nodes = (
"283 385 OFFCURVE",
"260 417 OFFCURVE",
"245 443 CURVE SMOOTH",
"228 471 OFFCURVE",
"202 515 OFFCURVE",
"208 551 CURVE SMOOTH",
"210 566 OFFCURVE",
"216 523 OFFCURVE",
"231 490 CURVE SMOOTH",
"240 470 OFFCURVE",
"253 446 OFFCURVE",
"269 426 CURVE SMOOTH",
"278 413 OFFCURVE",
"294 393 OFFCURVE",
"311 394 CURVE SMOOTH",
"327 395 OFFCURVE",
"349 413 OFFCURVE",
"359 423 CURVE SMOOTH",
"391 455 OFFCURVE",
"392 464 OFFCURVE",
"411 488 CURVE",
"419 496 OFFCURVE",
"405 476 OFFCURVE",
"399 468 CURVE SMOOTH",
"383 445 OFFCURVE",
"341 385 OFFCURVE",
"310 385 CURVE SMOOTH"
);
},
{
closed = 1;
nodes = (
"466 59 OFFCURVE",
"466 173 OFFCURVE",
"467 195 CURVE SMOOTH",
"477 611 LINE",
"482 853 LINE SMOOTH",
"482 859 OFFCURVE",
"476 918 OFFCURVE",
"487 913 CURVE SMOOTH",
"498 909 OFFCURVE",
"492 858 OFFCURVE",
"492 850 CURVE SMOOTH",
"491 754 LINE",
"479 278 LINE SMOOTH",
"479 261 OFFCURVE",
"471 104 OFFCURVE",
"470 94 CURVE SMOOTH"
);
},
{
closed = 1;
nodes = (
"311 408 OFFCURVE",
"307 411 OFFCURVE",
"301 417 CURVE SMOOTH",
"272 445 OFFCURVE",
"257 481 OFFCURVE",
"250 517 CURVE SMOOTH",
"245 541 OFFCURVE",
"231 574 OFFCURVE",
"233 595 CURVE SMOOTH",
"234 604 LINE SMOOTH",
"240 655 OFFCURVE",
"259 699 OFFCURVE",
"280 745 CURVE SMOOTH",
"339 872 OFFCURVE",
"365 915 OFFCURVE",
"381 915 CURVE SMOOTH",
"392 915 OFFCURVE",
"397 893 OFFCURVE",
"405 849 CURVE",
"413 762 OFFCURVE",
"415 697 OFFCURVE",
"415 621 CURVE SMOOTH",
"415 534 LINE SMOOTH",
"415 501 OFFCURVE",
"378 456 OFFCURVE",
"356 434 CURVE SMOOTH",
"345 423 OFFCURVE",
"330 408 OFFCURVE",
"317 408 CURVE SMOOTH"
);
}
);
width = 915;
}
);
note = AE;
unicode = 00C6;
},
{
glyphname = B;
lastChange = "2021-12-30 14:01:18 +0000";
layers = (
{
hints = (
{
horizontal = 1;
place = "{35, 25}";
type = Stem;
},
{
horizontal = 1;
place = "{516, 22}";
type = Stem;
},
{
horizontal = 1;
place = "{927, 15}";
type = Stem;
},
{
place = "{112, 72}";
type = Stem;
},
{
place = "{190, 56}";
type = Stem;
},
{
place = "{564, 54}";
type = Stem;
},
{
place = "{621, 54}";
type = Stem;
},
{
place = "{687, 71}";
type = Stem;
},
{
horizontal = 1;
place = "{510, 15}";
type = Stem;
},
{
horizontal = 1;
place = "{916, 21}";
type = Stem;
},
{
place = "{194, 54}";
type = Stem;
}
);
layerId = "C926F53D-A7E5-453A-A1AF-2EFB3CF89CC0";
paths = (
{
closed = 1;
nodes = (
"193 35 OFFCURVE",
"245 36 OFFCURVE",
"298 40 CURVE SMOOTH",
"388 47 OFFCURVE",
"479 48 OFFCURVE",
"569 66 CURVE SMOOTH",
"658 84 OFFCURVE",
"736 129 OFFCURVE",
"754 231 CURVE SMOOTH",
"762 276 OFFCURVE",
"759 319 OFFCURVE",
"749 359 CURVE SMOOTH",
"730 433 OFFCURVE",
"681 495 OFFCURVE",
"598 526 CURVE SMOOTH",
"574 535 OFFCURVE",
"547 543 OFFCURVE",
"523 538 CURVE",
"551 558 OFFCURVE",
"569 586 OFFCURVE",
"586 616 CURVE SMOOTH",
"641 714 OFFCURVE",
"622 799 OFFCURVE",
"547 883 CURVE SMOOTH",
"494 943 OFFCURVE",
"420 946 OFFCURVE",
"349 947 CURVE SMOOTH",
"267 948 OFFCURVE",
"185 940 OFFCURVE",
"103 937 CURVE SMOOTH",
"72 936 OFFCURVE",
"25 943 OFFCURVE",
"0 918 CURVE SMOOTH",
"-2 916 OFFCURVE",
"60 916 OFFCURVE",
"65 916 CURVE SMOOTH",
"94 916 OFFCURVE",
"107 908 OFFCURVE",
"107 877 CURVE SMOOTH",
"107 755 OFFCURVE",
"114 636 OFFCURVE",
"112 514 CURVE SMOOTH",
"111 436 OFFCURVE",
"109 359 OFFCURVE",
"107 282 CURVE SMOOTH",
"106 242 OFFCURVE",
"107 204 OFFCURVE",
"105 165 CURVE SMOOTH",
"104 139 OFFCURVE",
"116 91 OFFCURVE",
"101 70 CURVE SMOOTH",
"85 48 OFFCURVE",
"49 60 OFFCURVE",
"34 39 CURVE",
"48 34 OFFCURVE",
"66 38 OFFCURVE",
"80 36 CURVE SMOOTH",
"101 33 OFFCURVE",
"121 35 OFFCURVE",
"140 35 CURVE SMOOTH"
);
},
{
closed = 1;
nodes = (
"171 72 OFFCURVE",
"181 149 OFFCURVE",
"180 161 CURVE SMOOTH",
"177 201 OFFCURVE",
"180 242 OFFCURVE",
"181 283 CURVE SMOOTH",
"183 351 OFFCURVE",
"184 419 OFFCURVE",
"184 488 CURVE SMOOTH",
"184 696 LINE SMOOTH",
"184 736 OFFCURVE",
"183 774 OFFCURVE",
"183 812 CURVE SMOOTH",
"183 866 LINE SMOOTH",
"183 870 OFFCURVE",
"176 913 OFFCURVE",
"187 910 CURVE SMOOTH",
"198 907 OFFCURVE",
"193 869 OFFCURVE",
"193 863 CURVE SMOOTH",
"193 841 OFFCURVE",
"194 819 OFFCURVE",
"194 796 CURVE SMOOTH",
"194 685 LINE SMOOTH",
"194 610 OFFCURVE",
"194 535 OFFCURVE",
"193 461 CURVE SMOOTH",
"192 387 OFFCURVE",
"190 315 OFFCURVE",
"190 242 CURVE SMOOTH",
"190 129 LINE SMOOTH",
"190 101 OFFCURVE",
"195 56 OFFCURVE",
"183 64 CURVE SMOOTH"
);
},
{
closed = 1;
nodes = (
"245 178 OFFCURVE",
"243 299 OFFCURVE",
"249 414 CURVE SMOOTH",
"250 432 OFFCURVE",
"240 482 OFFCURVE",
"250 498 CURVE SMOOTH",
"259 512 OFFCURVE",
"306 504 OFFCURVE",
"320 506 CURVE SMOOTH",
"339 509 OFFCURVE",
"359 510 OFFCURVE",
"378 510 CURVE SMOOTH",
"502 510 OFFCURVE",
"613 434 OFFCURVE",
"621 302 CURVE SMOOTH",
"623 264 OFFCURVE",
"621 223 OFFCURVE",
"612 184 CURVE SMOOTH",
"599 127 OFFCURVE",
"557 97 OFFCURVE",
"501 78 CURVE SMOOTH",
"486 73 OFFCURVE",
"258 53 OFFCURVE",
"257 63 CURVE SMOOTH"
);
},
{
closed = 1;
nodes = (
"627 118 OFFCURVE",
"634 127 OFFCURVE",
"640 137 CURVE SMOOTH",
"687 216 OFFCURVE",
"684 308 OFFCURVE",
"650 384 CURVE SMOOTH",
"634 420 OFFCURVE",
"603 460 OFFCURVE",
"571 482 CURVE SMOOTH",
"545 500 OFFCURVE",
"522 518 OFFCURVE",
"488 516 CURVE",
"514 518 OFFCURVE",
"537 517 OFFCURVE",
"561 504 CURVE SMOOTH",
"586 491 OFFCURVE",
"609 469 OFFCURVE",
"627 447 CURVE SMOOTH",
"680 382 OFFCURVE",
"701 286 OFFCURVE",
"678 204 CURVE SMOOTH",
"671 179 OFFCURVE",
"660 155 OFFCURVE",
"643 136 CURVE",
"638 128 OFFCURVE",
"630 112 OFFCURVE",
"618 116 CURVE"
);
},
{
closed = 1;
nodes = (
"286 525 OFFCURVE",
"266 526 OFFCURVE",
"248 530 CURVE",
"240 577 OFFCURVE",
"245 628 OFFCURVE",
"243 675 CURVE SMOOTH",
"240 745 OFFCURVE",
"248 817 OFFCURVE",
"248 887 CURVE SMOOTH",
"248 899 OFFCURVE",
"248 911 OFFCURVE",
"250 921 CURVE SMOOTH",
"251 926 OFFCURVE",
"266 928 OFFCURVE",
"284 928 CURVE SMOOTH",
"329 928 OFFCURVE",
"424 917 OFFCURVE",
"463 901 CURVE SMOOTH",
"543 868 OFFCURVE",
"560 774 OFFCURVE",
"564 697 CURVE SMOOTH",
"569 608 OFFCURVE",
"518 551 OFFCURVE",
"419 535 CURVE SMOOTH",
"386 530 OFFCURVE",
"345 525 OFFCURVE",
"307 525 CURVE SMOOTH"
);
}
);
width = 779;
}
);
note = B;
unicode = 0042;
},
{
glyphname = C;
lastChange = "2021-12-30 14:01:18 +0000";
layers = (
{
hints = (
{
horizontal = 1;
place = "{29, 40}";
type = Stem;
},
{
horizontal = 1;
place = "{84, 21}";
type = Stem;
},
{
horizontal = 1;
place = "{440, 25}";
type = Stem;
},
{
horizontal = 1;
place = "{506, 28}";
type = Stem;
},
{
horizontal = 1;
place = "{679, 62}";
type = Stem;
},
{
horizontal = 1;
place = "{858, 34}";
type = Stem;
},
{
horizontal = 1;
place = "{897, 44}";
type = Stem;
},
{
place = "{1, 113}";
type = Stem;
},
{
place = "{150, 21}";
type = Stem;
},
{
place = "{672, 48}";
type = Stem;
},
{
horizontal = 1;
place = "{867, 10}";
type = Stem;
},
{
horizontal = 1;
place = "{911, 21}";
type = Stem;
},
{
place = "{669, 36}";
type = Stem;
},
{
place = "{709, 36}";
type = Stem;
},
{
place = "{667, 11}";
type = Stem;
},
{
place = "{654, 37}";
type = Stem;
}
);
layerId = "C926F53D-A7E5-453A-A1AF-2EFB3CF89CC0";
paths = (
{
closed = 1;
nodes = (
"517 29 OFFCURVE",
"590 42 OFFCURVE",
"662 56 CURVE SMOOTH",
"683 60 OFFCURVE",
"699 61 OFFCURVE",
"715 64 CURVE SMOOTH",
"774 75 OFFCURVE",
"788 67 OFFCURVE",
"773 93 CURVE SMOOTH",
"720 185 OFFCURVE",
"734 228 OFFCURVE",
"688 282 CURVE",
"676 293 OFFCURVE",
"670 298 OFFCURVE",
"669 298 CURVE SMOOTH",
"665 298 OFFCURVE",
"701 252 OFFCURVE",
"688 213 CURVE SMOOTH",
"680 189 LINE",
"670 171 LINE",
"651 151 OFFCURVE",
"641 143 OFFCURVE",
"626 135 CURVE",
"615 123 OFFCURVE",
"539 105 OFFCURVE",
"516 105 CURVE SMOOTH",
"325 105 OFFCURVE",
"199 201 OFFCURVE",
"175 401 CURVE SMOOTH",
"164 492 OFFCURVE",
"176 566 OFFCURVE",
"193 653 CURVE SMOOTH",
"205 713 OFFCURVE",
"249 792 OFFCURVE",
"303 819 CURVE SMOOTH",
"346 841 OFFCURVE",
"437 867 OFFCURVE",
"488 867 CURVE SMOOTH",
"571 867 OFFCURVE",
"647 824 OFFCURVE",
"647 742 CURVE SMOOTH",
"647 741 OFFCURVE",
"660 713 OFFCURVE",
"657 682 CURVE SMOOTH",
"656 657 OFFCURVE",
"696 823 OFFCURVE",
"728 911 CURVE SMOOTH",
"731 920 OFFCURVE",
"747 973 OFFCURVE",
"744 973 CURVE",
"741 967 LINE",
"728 948 OFFCURVE",
"718 935 OFFCURVE",
"696 932 CURVE SMOOTH",
"661 927 OFFCURVE",
"626 935 OFFCURVE",
"590 937 CURVE SMOOTH",
"554 939 OFFCURVE",
"517 941 OFFCURVE",
"480 941 CURVE SMOOTH",
"355 941 OFFCURVE",
"229 921 OFFCURVE",
"141 823 CURVE SMOOTH",
"38 708 OFFCURVE",
"-18 578 OFFCURVE",
"7 414 CURVE SMOOTH",
"45 166 OFFCURVE",
"206 29 OFFCURVE",
"444 29 CURVE SMOOTH"
);
},
{
closed = 1;
nodes = (
"121 465 OFFCURVE",
"106 468 OFFCURVE",
"107 472 CURVE SMOOTH",
"110 498 OFFCURVE",
"101 506 OFFCURVE",
"130 506 CURVE SMOOTH",
"159 506 OFFCURVE",
"150 501 OFFCURVE",
"150 469 CURVE",
"149 466 OFFCURVE",
"142 465 OFFCURVE",
"134 465 CURVE SMOOTH"
);
},
{
closed = 1;
nodes = (
"394 64 OFFCURVE",
"320 95 OFFCURVE",
"270 123 CURVE SMOOTH",
"216 153 OFFCURVE",
"181 197 OFFCURVE",
"155 253 CURVE SMOOTH",
"132 302 OFFCURVE",
"102 443 OFFCURVE",
"114 439 CURVE",
"121 440 LINE SMOOTH",
"145 443 OFFCURVE",
"148 447 OFFCURVE",
"150 423 CURVE SMOOTH",
"167 222 OFFCURVE",
"274 92 OFFCURVE",
"463 84 CURVE SMOOTH",
"508 82 OFFCURVE",
"531 86 OFFCURVE",
"552 89 CURVE SMOOTH",
"625 99 OFFCURVE",
"661 149 OFFCURVE",
"648 117 CURVE",
"605 64 OFFCURVE",
"507 72 OFFCURVE",
"463 69 CURVE SMOOTH"
);
},
{
closed = 1;
nodes = (
"712 96 OFFCURVE",
"741 143 OFFCURVE",
"699 143 CURVE",
"680 138 OFFCURVE",
"657 84 OFFCURVE",
"685 90 CURVE SMOOTH"
);
},
{
closed = 1;
nodes = (
"644 84 LINE SMOOTH",
"667 124 OFFCURVE",
"688 166 OFFCURVE",
"705 213 CURVE",
"706 242 OFFCURVE",
"720 159 OFFCURVE",
"738 118 CURVE SMOOTH",
"749 94 LINE SMOOTH",
"754 83 OFFCURVE",
"734 87 OFFCURVE",
"691 77 CURVE SMOOTH",
"662 70 OFFCURVE",
"626 59 OFFCURVE",
"635 68 CURVE"
);
},
{
closed = 1;
nodes = (
"115 534 OFFCURVE",
"114 534 OFFCURVE",
"114 535 CURVE SMOOTH",
"114 539 LINE SMOOTH",
"114 678 OFFCURVE",
"201 839 OFFCURVE",
"353 880 CURVE SMOOTH",
"393 891 OFFCURVE",
"431 897 OFFCURVE",
"470 897 CURVE SMOOTH",
"505 897 OFFCURVE",
"540 892 OFFCURVE",
"576 880 CURVE SMOOTH",
"616 867 OFFCURVE",
"635 842 OFFCURVE",
"651 807 CURVE",
"654 804 OFFCURVE",
"672 741 OFFCURVE",
"666 741 CURVE",
"666 741 OFFCURVE",
"664 742 OFFCURVE",
"662 746 CURVE SMOOTH",
"631 816 OFFCURVE",
"596 867 OFFCURVE",
"512 877 CURVE SMOOTH",
"452 884 OFFCURVE",
"379 866 OFFCURVE",
"326 842 CURVE SMOOTH",
"204 787 OFFCURVE",
"167 706 OFFCURVE",
"155 569 CURVE SMOOTH",
"152 535 OFFCURVE",
"157 534 OFFCURVE",
"118 534 CURVE SMOOTH"
);
},
{
closed = 1;
nodes = (
"630 922 OFFCURVE",
"554 885 OFFCURVE",
"709 911 CURVE",
"678 792 LINE"
);
},
{
closed = 1;
nodes = (
"683 858 OFFCURVE",
"691 863 OFFCURVE",
"691 874 CURVE SMOOTH",
"691 886 OFFCURVE",
"682 892 OFFCURVE",
"672 892 CURVE SMOOTH",
"660 892 OFFCURVE",
"648 882 OFFCURVE",
"657 867 CURVE SMOOTH",
"661 861 OFFCURVE",
"668 858 OFFCURVE",
"675 858 CURVE SMOOTH"
);
}
);
width = 778;
}
);
note = C;
unicode = 0043;
},
{
glyphname = D;
lastChange = "2021-12-30 14:01:18 +0000";
layers = (
{
hints = (
{
horizontal = 1;
place = "{53, 40}";
type = Stem;
},
{
horizontal = 1;
place = "{117, 15}";
type = Stem;
},
{
horizontal = 1;
place = "{867, 31}";
type = Stem;
},
{
horizontal = 1;
place = "{920, 24}";
type = Stem;
},
{
place = "{111, 103}";
type = Stem;
},
{
place = "{239, 36}";
type = Stem;
},
{
place = "{310, 18}";
type = Stem;
},
{
place = "{682, 56}";
type = Stem;
},
{
place = "{766, 103}";
type = Stem;
},
{
place = "{116, 100}";
type = Stem;
},
{
place = "{248, 44}";
type = Stem;
},
{
place = "{252, 20}";
type = Stem;
},
{
horizontal = 1;
place = "{117, 27}";
type = Stem;
}
);
layerId = "C926F53D-A7E5-453A-A1AF-2EFB3CF89CC0";
paths = (
{
closed = 1;
nodes = (
"262 53 OFFCURVE",
"335 60 OFFCURVE",
"410 70 CURVE SMOOTH",
"526 84 OFFCURVE",
"637 101 OFFCURVE",
"726 185 CURVE SMOOTH",
"856 309 OFFCURVE",
"901 501 OFFCURVE",
"846 674 CURVE SMOOTH",
"791 838 OFFCURVE",
"626 949 OFFCURVE",
"455 949 CURVE SMOOTH",
"352 949 OFFCURVE",
"260 944 OFFCURVE",
"156 944 CURVE SMOOTH",
"146 944 OFFCURVE",
"-20 947 OFFCURVE",
"-26 944 CURVE SMOOTH",
"-54 929 OFFCURVE",
"75 925 OFFCURVE",
"101 912 CURVE",
"101 911 OFFCURVE",
"102 910 OFFCURVE",
"102 910 CURVE",
"109 782 OFFCURVE",
"113 661 OFFCURVE",
"111 528 CURVE SMOOTH",
"116 84 LINE SMOOTH",
"116 76 OFFCURVE",
"82 75 OFFCURVE",
"48 75 CURVE SMOOTH",
"5 75 OFFCURVE",
"-36 77 OFFCURVE",
"-12 70 CURVE",
"90 58 LINE SMOOTH",
"123 54 OFFCURVE",
"156 53 OFFCURVE",
"189 53 CURVE SMOOTH"
);
},
{
closed = 1;
nodes = (
"275 93 OFFCURVE",
"233 94 OFFCURVE",
"222 100 CURVE SMOOTH",
"217 103 OFFCURVE",
"219 126 OFFCURVE",
"219 145 CURVE SMOOTH",
"219 161 OFFCURVE",
"231 169 OFFCURVE",
"245 171 CURVE SMOOTH",
"282 175 OFFCURVE",
"313 162 OFFCURVE",
"316 132 CURVE SMOOTH",
"319 100 OFFCURVE",
"300 93 OFFCURVE",
"292 93 CURVE SMOOTH"
);
},
{
closed = 1;
nodes = (
"276 117 OFFCURVE",
"282 119 OFFCURVE",
"286 121 CURVE SMOOTH",
"296 128 OFFCURVE",
"294 141 OFFCURVE",
"270 144 CURVE",
"258 147 OFFCURVE",
"238 137 OFFCURVE",
"253 122 CURVE",
"257 119 OFFCURVE",
"264 117 OFFCURVE",
"270 117 CURVE SMOOTH"
);
},
{
closed = 1;
nodes = (
"218 176 OFFCURVE",
"220 192 OFFCURVE",
"220 197 CURVE SMOOTH",
"221 227 LINE SMOOTH",
"223 276 OFFCURVE",
"216 324 OFFCURVE",
"216 371 CURVE SMOOTH",
"216 443 LINE SMOOTH",
"216 832 OFFCURVE",
"213 829 OFFCURVE",
"222 821 CURVE",
"227 818 OFFCURVE",
"232 815 OFFCURVE",
"239 812 CURVE SMOOTH",
"245 810 OFFCURVE",
"252 809 OFFCURVE",
"252 805 CURVE SMOOTH",
"256 767 OFFCURVE",
"252 667 OFFCURVE",
"252 657 CURVE SMOOTH",
"252 531 LINE SMOOTH",
"252 388 OFFCURVE",
"251 377 OFFCURVE",
"252 234 CURVE SMOOTH",
"252 224 OFFCURVE",
"254 198 OFFCURVE",
"251 197 CURVE SMOOTH",
"243 194 OFFCURVE",
"233 192 OFFCURVE",
"222 180 CURVE SMOOTH"
);
},
{
closed = 1;
nodes = (
"336 131 OFFCURVE",
"338 133 OFFCURVE",
"337 145 CURVE SMOOTH",
"335 164 OFFCURVE",
"322 182 OFFCURVE",
"310 188 CURVE SMOOTH",
"286 200 OFFCURVE",
"271 194 OFFCURVE",
"271 200 CURVE SMOOTH",
"271 241 LINE",
"273 328 LINE",
"273 357 LINE",
"271 414 LINE",
"271 443 LINE",
"279 695 LINE",
"283 764 LINE",
"284 768 OFFCURVE",
"283 791 OFFCURVE",
"283 800 CURVE SMOOTH",
"283 807 OFFCURVE",
"280 809 OFFCURVE",
"292 811 CURVE SMOOTH",
"326 817 OFFCURVE",
"328 859 OFFCURVE",
"328 871 CURVE SMOOTH",
"328 877 OFFCURVE",
"327 876 OFFCURVE",
"331 876 CURVE SMOOTH",
"461 872 OFFCURVE",
"574 800 OFFCURVE",
"635 685 CURVE SMOOTH",
"744 476 OFFCURVE",
"674 156 OFFCURVE",
"346 132 CURVE SMOOTH"
);
},
{
closed = 1;
nodes = (
"327 91 LINE SMOOTH",
"323 91 OFFCURVE",
"321 92 OFFCURVE",
"323 95 CURVE SMOOTH",
"330 103 OFFCURVE",
"332 109 OFFCURVE",
"337 116 CURVE SMOOTH",
"338 117 OFFCURVE",
"343 117 OFFCURVE",
"343 117 CURVE",
"380 117 LINE SMOOTH",
"506 117 OFFCURVE",
"622 161 OFFCURVE",
"680 286 CURVE SMOOTH",
"744 423 OFFCURVE",
"766 580 OFFCURVE",
"688 692 CURVE SMOOTH",
"641 757 OFFCURVE",
"575 813 OFFCURVE",
"503 852 CURVE SMOOTH",
"460 875 OFFCURVE",
"429 884 OFFCURVE",
"366 888 CURVE SMOOTH",
"357 889 OFFCURVE",
"328 890 OFFCURVE",
"328 894 CURVE SMOOTH",
"328 897 OFFCURVE",
"324 911 OFFCURVE",
"319 919 CURVE SMOOTH",
"316 924 OFFCURVE",
"368 920 OFFCURVE",
"395 918 CURVE SMOOTH",
"498 910 OFFCURVE",
"597 865 OFFCURVE",
"674 778 CURVE SMOOTH",
"735 708 OFFCURVE",
"762 617 OFFCURVE",
"766 525 CURVE SMOOTH",
"771 413 OFFCURVE",
"735 300 OFFCURVE",
"674 217 CURVE SMOOTH",
"597 114 OFFCURVE",
"444 81 OFFCURVE",
"351 89 CURVE SMOOTH"
);
},
{
closed = 1;
nodes = (
"244 827 OFFCURVE",
"230 832 OFFCURVE",
"217 842 CURVE SMOOTH",
"211 846 OFFCURVE",
"214 842 OFFCURVE",
"214 880 CURVE SMOOTH",
"214 903 OFFCURVE",
"216 920 OFFCURVE",
"243 920 CURVE SMOOTH",
"275 920 LINE SMOOTH",
"283 920 OFFCURVE",
"293 915 OFFCURVE",
"301 902 CURVE SMOOTH",
"314 882 OFFCURVE",
"315 843 OFFCURVE",
"288 832 CURVE SMOOTH",
"278 828 OFFCURVE",
"269 827 OFFCURVE",
"260 827 CURVE SMOOTH"
);
},
{
closed = 1;
nodes = (
"273 867 OFFCURVE",
"282 880 OFFCURVE",
"266 894 CURVE SMOOTH",
"263 897 OFFCURVE",
"258 898 OFFCURVE",
"254 898 CURVE SMOOTH",
"243 898 OFFCURVE",
"232 889 OFFCURVE",
"243 876 CURVE SMOOTH",
"249 870 OFFCURVE",
"255 867 OFFCURVE",
"261 867 CURVE SMOOTH"
);
}
);
width = 889;
}
);
note = D;
unicode = 0044;
},
{
glyphname = Eth;
lastChange = "2021-12-30 14:01:18 +0000";
layers = (
{
hints = (
{
horizontal = 1;
place = "{43, 19}";
type = Stem;
},
{
horizontal = 1;
place = "{98, 37}";
type = Stem;
},
{
horizontal = 1;
place = "{190, 11}";
type = Stem;
},
{
horizontal = 1;
place = "{262, 14}";
type = Stem;
},
{
horizontal = 1;
place = "{323, 15}";
type = Stem;
},
{
horizontal = 1;
place = "{485, 38}";
type = Stem;
},
{
horizontal = 1;
place = "{531, 16}";
type = Stem;
},
{
horizontal = 1;
place = "{628, 18}";
type = Stem;
},
{
horizontal = 1;
place = "{687, 17}";
type = Stem;
},
{
horizontal = 1;
place = "{741, 18}";
type = Stem;
},
{
horizontal = 1;
place = "{770, 13}";
type = Stem;
},
{
horizontal = 1;
place = "{815, 16}";
type = Stem;
},
{
horizontal = 1;
place = "{871, 85}";
type = Stem;
},
{
place = "{0, 17}";
type = Stem;
},
{
place = "{148, 19}";
type = Stem;
},
{
place = "{174, 36}";
type = Stem;
},
{
place = "{257, 72}";
type = Stem;
},
{
place = "{360, 25}";
type = Stem;
},
{
place = "{418, 24}";
type = Stem;
},
{
place = "{610, 13}";
type = Stem;
},
{
place = "{816, 42}";
type = Stem;
},
{
place = "{920, 78}";
type = Stem;
},
{
horizontal = 1;
place = "{871, 31}";
type = Stem;
},
{
horizontal = 1;
place = "{923, 25}";
type = Stem;
},
{
place = "{165, 19}";
type = Stem;
},
{
place = "{189, 11}";
type = Stem;
},
{
place = "{202, 34}";
type = Stem;
},
{
place = "{251, 76}";
type = Stem;
},
{
place = "{192, 22}";
type = Stem;
},
{
place = "{188, 22}";
type = Stem;
},
{
place = "{156, 17}";
type = Stem;
},
{
place = "{166, 13}";
type = Stem;
},
{
place = "{187, 8}";
type = Stem;
},
{
horizontal = 1;
place = "{102, 16}";
type = Stem;
},
{
horizontal = 1;
place = "{882, 14}";
type = Stem;
},
{
horizontal = 1;
place = "{925, 31}";
type = Stem;
},
{
place = "{440, 20}";
type = Stem;
},
{
place = "{361, 27}";
type = Stem;
},
{
horizontal = 1;
place = "{486, 40}";
type = Stem;
},
{
horizontal = 1;
place = "{488, 15}";
type = Stem;
}
);
layerId = "C926F53D-A7E5-453A-A1AF-2EFB3CF89CC0";
paths = (
{
closed = 1;
nodes = (
"540 33 OFFCURVE",
"739 65 OFFCURVE",
"852 172 CURVE SMOOTH",
"986 297 OFFCURVE",
"1030 496 OFFCURVE",
"974 671 CURVE SMOOTH",
"951 742 OFFCURVE",
"906 804 OFFCURVE",
"849 852 CURVE SMOOTH",
"747 939 OFFCURVE",
"651 956 OFFCURVE",
"514 956 CURVE SMOOTH",
"442 956 OFFCURVE",
"358 951 OFFCURVE",
"257 949 CURVE SMOOTH",
"170 948 LINE SMOOTH",
"151 948 OFFCURVE",
"87 953 OFFCURVE",
"69 941 CURVE SMOOTH",
"60 935 OFFCURVE",
"98 933 OFFCURVE",
"124 924 CURVE SMOOTH",
"144 917 OFFCURVE",
"165 901 OFFCURVE",
"175 883 CURVE SMOOTH",
"189 858 OFFCURVE",
"198 784 OFFCURVE",
"192 783 CURVE SMOOTH",
"184 782 OFFCURVE",
"159 770 OFFCURVE",
"155 763 CURVE SMOOTH",
"143 743 OFFCURVE",
"188 729 OFFCURVE",
"170 724 CURVE SMOOTH",
"167 723 OFFCURVE",
"156 715 OFFCURVE",
"153 709 CURVE SMOOTH",
"146 698 OFFCURVE",
"146 683 OFFCURVE",
"154 673 CURVE SMOOTH",
"162 662 OFFCURVE",
"167 662 OFFCURVE",
"179 659 CURVE SMOOTH",
"190 656 OFFCURVE",
"156 655 OFFCURVE",
"156 622 CURVE SMOOTH",
"156 608 OFFCURVE",
"167 600 OFFCURVE",
"181 598 CURVE SMOOTH",
"187 597 OFFCURVE",
"188 598 OFFCURVE",
"188 589 CURVE SMOOTH",
"188 523 LINE SMOOTH",
"188 516 OFFCURVE",
"70 533 OFFCURVE",
"60 537 CURVE SMOOTH",
"46 543 OFFCURVE",
"31 548 OFFCURVE",
"24 562 CURVE SMOOTH",
"18 574 OFFCURVE",
"16 632 OFFCURVE",
"11 609 CURVE SMOOTH",
"6 588 OFFCURVE",
"-10 436 OFFCURVE",
"10 408 CURVE SMOOTH",
"21 391 OFFCURVE",
"13 421 OFFCURVE",
"17 458 CURVE SMOOTH",
"20 480 OFFCURVE",
"151 485 OFFCURVE",
"186 485 CURVE SMOOTH",
"193 485 OFFCURVE",
"192 448 OFFCURVE",
"192 363 CURVE SMOOTH",
"192 357 OFFCURVE",
"193 356 OFFCURVE",
"184 351 CURVE SMOOTH",
"176 347 OFFCURVE",
"165 336 OFFCURVE",
"165 328 CURVE SMOOTH",
"165 313 OFFCURVE",
"171 308 OFFCURVE",
"187 299 CURVE",
"199 295 OFFCURVE",
"160 285 OFFCURVE",
"165 264 CURVE SMOOTH",
"168 251 OFFCURVE",
"174 248 OFFCURVE",
"188 244 CURVE SMOOTH",
"203 240 OFFCURVE",
"184 241 OFFCURVE",
"172 229 CURVE SMOOTH",
"166 224 OFFCURVE",
"162 207 OFFCURVE",
"172 200 CURVE SMOOTH",
"184 192 OFFCURVE",
"190 190 OFFCURVE",
"199 190 CURVE SMOOTH",
"203 190 OFFCURVE",
"202 180 OFFCURVE",
"202 174 CURVE SMOOTH",
"201 147 OFFCURVE",
"202 132 OFFCURVE",
"197 118 CURVE SMOOTH",
"185 74 OFFCURVE",
"155 66 OFFCURVE",
"116 56 CURVE SMOOTH",
"90 49 LINE SMOOTH",
"60 40 OFFCURVE",
"155 44 OFFCURVE",
"187 43 CURVE SMOOTH"
);
},
{
closed = 1;
nodes = (
"218 260 OFFCURVE",
"235 261 OFFCURVE",
"237 267 CURVE SMOOTH",
"241 277 OFFCURVE",
"222 278 OFFCURVE",
"213 276 CURVE SMOOTH",
"193 272 OFFCURVE",
"200 266 OFFCURVE",
"212 262 CURVE SMOOTH"
);
},
{
closed = 1;
nodes = (
"199 62 OFFCURVE",
"180 62 OFFCURVE",
"184 66 CURVE SMOOTH",
"199 81 OFFCURVE",
"213 88 OFFCURVE",
"218 148 CURVE SMOOTH",
"219 163 OFFCURVE",
"218 189 OFFCURVE",
"229 204 CURVE SMOOTH",
"244 224 OFFCURVE",
"235 231 OFFCURVE",
"223 231 CURVE SMOOTH",
"212 231 OFFCURVE",
"200 225 OFFCURVE",
"202 221 CURVE SMOOTH",
"203 219 OFFCURVE",
"206 218 OFFCURVE",
"209 218 CURVE SMOOTH",
"217 218 OFFCURVE",
"228 223 OFFCURVE",
"223 213 CURVE SMOOTH",
"220 206 OFFCURVE",
"208 200 OFFCURVE",
"197 200 CURVE SMOOTH",
"192 200 OFFCURVE",
"188 202 OFFCURVE",
"184 205 CURVE SMOOTH",
"168 219 OFFCURVE",
"191 234 OFFCURVE",
"211 241 CURVE SMOOTH",
"216 243 OFFCURVE",
"217 246 OFFCURVE",
"211 248 CURVE SMOOTH",
"201 251 OFFCURVE",
"191 249 OFFCURVE",
"184 260 CURVE SMOOTH",
"178 270 OFFCURVE",
"184 280 OFFCURVE",
"190 285 CURVE SMOOTH",
"197 291 OFFCURVE",
"207 294 OFFCURVE",
"207 297 CURVE SMOOTH",
"207 301 OFFCURVE",
"186 310 OFFCURVE",
"184 327 CURVE SMOOTH",
"183 346 OFFCURVE",
"200 347 OFFCURVE",
"214 350 CURVE SMOOTH",
"218 351 OFFCURVE",
"214 427 OFFCURVE",
"214 433 CURVE SMOOTH",
"214 464 LINE SMOOTH",
"214 492 OFFCURVE",
"216 483 OFFCURVE",
"253 485 CURVE SMOOTH",
"264 486 OFFCURVE",
"257 304 OFFCURVE",
"257 290 CURVE SMOOTH",
"257 70 LINE SMOOTH",
"257 64 OFFCURVE",
"257 60 OFFCURVE",
"217 62 CURVE SMOOTH"
);
},
{
closed = 1;
nodes = (
"339 80 OFFCURVE",
"332 80 OFFCURVE",
"332 88 CURVE SMOOTH",
"332 91 OFFCURVE",
"329 116 OFFCURVE",
"331 125 CURVE SMOOTH",
"337 149 OFFCURVE",
"358 163 OFFCURVE",
"383 163 CURVE SMOOTH",
"393 163 OFFCURVE",
"404 161 OFFCURVE",
"415 156 CURVE SMOOTH",
"430 149 OFFCURVE",
"444 132 OFFCURVE",
"440 115 CURVE SMOOTH",
"437 104 OFFCURVE",
"432 98 OFFCURVE",
"422 88 CURVE SMOOTH",
"413 79 OFFCURVE",
"413 80 OFFCURVE",
"372 80 CURVE SMOOTH"
);
},
{
closed = 1;
nodes = (
"394 98 OFFCURVE",
"420 130 OFFCURVE",
"388 135 CURVE SMOOTH",
"379 136 OFFCURVE",
"365 125 OFFCURVE",
"361 115 CURVE",
"361 113 LINE SMOOTH",
"363 102 OFFCURVE",
"369 98 OFFCURVE",
"375 98 CURVE SMOOTH"
);
},
{
closed = 1;
nodes = (
"222 323 OFFCURVE",
"239 323 OFFCURVE",
"237 330 CURVE SMOOTH",
"236 336 OFFCURVE",
"231 338 OFFCURVE",
"224 338 CURVE SMOOTH",
"208 338 OFFCURVE",
"186 323 OFFCURVE",
"216 323 CURVE SMOOTH"
);
},
{
closed = 1;
nodes = (
"327 152 OFFCURVE",
"329 356 OFFCURVE",
"329 364 CURVE SMOOTH",
"328 438 LINE SMOOTH",
"327 478 OFFCURVE",
"325 485 OFFCURVE",
"332 485 CURVE SMOOTH",
"353 485 LINE SMOOTH",
"364 485 OFFCURVE",
"358 491 OFFCURVE",
"360 402 CURVE SMOOTH",
"361 362 OFFCURVE",
"359 324 OFFCURVE",
"360 286 CURVE SMOOTH",
"362 207 LINE SMOOTH",
"362 194 OFFCURVE",
"363 194 OFFCURVE",
"358 190 CURVE SMOOTH",
"341 178 OFFCURVE",
"335 171 OFFCURVE",
"328 154 CURVE SMOOTH"
);
},
{
closed = 1;
nodes = (
"217 627 OFFCURVE",
"231 633 OFFCURVE",
"231 640 CURVE SMOOTH",
"231 644 OFFCURVE",
"224 646 OFFCURVE",
"217 646 CURVE SMOOTH",
"207 646 OFFCURVE",
"195 643 OFFCURVE",
"194 638 CURVE SMOOTH",
"192 630 OFFCURVE",
"199 627 OFFCURVE",
"206 627 CURVE SMOOTH"
);
},
{
closed = 1;
nodes = (
"213 686 OFFCURVE",
"228 690 OFFCURVE",
"231 695 CURVE SMOOTH",
"233 700 OFFCURVE",
"222 704 OFFCURVE",
"210 704 CURVE SMOOTH",
"198 704 OFFCURVE",
"185 700 OFFCURVE",
"187 691 CURVE",
"187 688 OFFCURVE",
"194 686 OFFCURVE",
"201 686 CURVE SMOOTH"
);
},
{
closed = 1;
nodes = (
"211 523 OFFCURVE",
"210 524 OFFCURVE",
"210 539 CURVE SMOOTH",
"210 567 OFFCURVE",
"211 585 OFFCURVE",
"211 596 CURVE SMOOTH",
"211 603 OFFCURVE",
"212 607 OFFCURVE",
"206 607 CURVE SMOOTH",
"178 609 OFFCURVE",
"174 622 OFFCURVE",
"173 633 CURVE SMOOTH",
"172 642 OFFCURVE",
"195 653 OFFCURVE",
"195 659 CURVE SMOOTH",
"195 672 OFFCURVE",
"167 666 OFFCURVE",
"167 689 CURVE SMOOTH",
"167 726 OFFCURVE",
"200 712 OFFCURVE",
"200 726 CURVE SMOOTH",
"200 732 OFFCURVE",
"170 737 OFFCURVE",
"170 754 CURVE SMOOTH",
"170 767 OFFCURVE",
"190 772 OFFCURVE",
"207 770 CURVE SMOOTH",
"213 769 OFFCURVE",
"207 829 OFFCURVE",
"206 835 CURVE SMOOTH",
"197 884 OFFCURVE",
"194 890 OFFCURVE",
"171 919 CURVE SMOOTH",
"169 922 OFFCURVE",
"176 923 OFFCURVE",
"186 923 CURVE SMOOTH",
"206 923 OFFCURVE",
"239 919 OFFCURVE",
"249 916 CURVE",
"250 915 OFFCURVE",
"251 914 OFFCURVE",
"251 913 CURVE SMOOTH",
"251 720 OFFCURVE",
"255 575 OFFCURVE",
"254 527 CURVE SMOOTH",
"254 520 OFFCURVE",
"233 523 OFFCURVE",
"215 523 CURVE SMOOTH"
);
},
{
closed = 1;
nodes = (
"217 741 OFFCURVE",
"225 744 OFFCURVE",
"227 749 CURVE SMOOTH",
"231 756 OFFCURVE",
"221 759 OFFCURVE",
"210 759 CURVE SMOOTH",
"200 759 OFFCURVE",
"189 756 OFFCURVE",
"189 752 CURVE SMOOTH",
"190 745 OFFCURVE",
"200 741 OFFCURVE",
"210 741 CURVE SMOOTH"
);
},
{
closed = 1;
nodes = (
"465 75 OFFCURVE",
"449 74 OFFCURVE",
"451 78 CURVE SMOOTH",
"456 88 OFFCURVE",
"458 95 OFFCURVE",
"459 102 CURVE SMOOTH",
"460 105 OFFCURVE",
"469 102 OFFCURVE",
"489 102 CURVE SMOOTH",
"581 102 OFFCURVE",
"677 132 OFFCURVE",
"746 194 CURVE SMOOTH",
"821 259 OFFCURVE",
"855 389 OFFCURVE",
"858 485 CURVE SMOOTH",
"858 487 OFFCURVE",
"859 488 OFFCURVE",
"861 488 CURVE SMOOTH",
"878 486 OFFCURVE",
"898 486 OFFCURVE",
"916 488 CURVE SMOOTH",
"918 488 OFFCURVE",
"920 486 OFFCURVE",
"920 484 CURVE SMOOTH",
"919 459 LINE SMOOTH",
"914 363 OFFCURVE",
"879 267 OFFCURVE",
"808 197 CURVE SMOOTH",
"705 94 OFFCURVE",
"617 80 OFFCURVE",
"471 75 CURVE SMOOTH"
);
},
{
closed = 1;
nodes = (
"329 527 OFFCURVE",
"330 528 OFFCURVE",
"329 581 CURVE SMOOTH",
"327 814 LINE SMOOTH",
"327 827 OFFCURVE",
"327 830 OFFCURVE",
"329 828 CURVE SMOOTH",
"338 819 OFFCURVE",
"343 818 OFFCURVE",
"360 815 CURVE SMOOTH",
"363 814 OFFCURVE",
"362 810 OFFCURVE",
"362 807 CURVE SMOOTH",
"361 765 OFFCURVE",
"361 666 OFFCURVE",
"361 656 CURVE SMOOTH",
"361 581 LINE SMOOTH",
"361 568 OFFCURVE",
"361 557 OFFCURVE",
"360 534 CURVE SMOOTH",
"360 526 OFFCURVE",
"358 527 OFFCURVE",
"336 527 CURVE SMOOTH"
);
},
{
closed = 1;
nodes = (
"477 118 OFFCURVE",
"460 115 OFFCURVE",
"460 125 CURVE SMOOTH",
"460 136 OFFCURVE",
"452 175 OFFCURVE",
"421 185 CURVE SMOOTH",
"400 192 OFFCURVE",
"384 191 OFFCURVE",
"384 196 CURVE SMOOTH",
"384 229 LINE SMOOTH",
"388 358 OFFCURVE",
"385 401 OFFCURVE",
"385 437 CURVE SMOOTH",
"385 447 OFFCURVE",
"382 485 OFFCURVE",
"388 485 CURVE SMOOTH",
"423 486 LINE SMOOTH",
"467 486 OFFCURVE",
"491 492 OFFCURVE",
"535 490 CURVE SMOOTH",
"580 489 OFFCURVE",
"594 488 OFFCURVE",
"604 439 CURVE SMOOTH",
"608 421 OFFCURVE",
"611 412 OFFCURVE",
"614 412 CURVE SMOOTH",
"621 412 OFFCURVE",
"624 467 OFFCURVE",
"623 577 CURVE SMOOTH",
"623 592 OFFCURVE",
"621 604 OFFCURVE",
"618 604 CURVE SMOOTH",
"616 604 OFFCURVE",
"613 598 OFFCURVE",
"610 583 CURVE SMOOTH",
"607 566 OFFCURVE",
"613 539 OFFCURVE",
"538 530 CURVE SMOOTH",
"506 526 OFFCURVE",
"529 526 OFFCURVE",
"463 526 CURVE SMOOTH",
"433 526 OFFCURVE",
"413 527 OFFCURVE",
"396 529 CURVE SMOOTH",
"384 530 OFFCURVE",
"388 555 OFFCURVE",
"388 605 CURVE SMOOTH",
"388 766 LINE SMOOTH",
"388 774 OFFCURVE",
"386 800 OFFCURVE",
"389 810 CURVE SMOOTH",
"392 819 OFFCURVE",
"396 815 OFFCURVE",
"407 821 CURVE SMOOTH",
"430 834 OFFCURVE",
"440 848 OFFCURVE",
"442 879 CURVE SMOOTH",
"443 889 OFFCURVE",
"554 874 OFFCURVE",
"633 826 CURVE SMOOTH",
"927 655 OFFCURVE",
"854 118 OFFCURVE",
"511 118 CURVE SMOOTH"
);
},
{
closed = 1;
nodes = (
"352 831 OFFCURVE",
"340 838 OFFCURVE",
"332 844 CURVE SMOOTH",
"330 846 OFFCURVE",
"327 843 OFFCURVE",
"326 858 CURVE SMOOTH",
"326 863 OFFCURVE",
"324 892 OFFCURVE",
"324 905 CURVE SMOOTH",
"324 921 OFFCURVE",
"327 925 OFFCURVE",
"354 925 CURVE SMOOTH",
"399 925 LINE SMOOTH",
"406 925 OFFCURVE",
"411 927 OFFCURVE",
"415 906 CURVE SMOOTH",
"419 883 OFFCURVE",
"425 850 OFFCURVE",
"398 838 CURVE SMOOTH",
"387 833 OFFCURVE",
"378 831 OFFCURVE",
"369 831 CURVE SMOOTH"
);
},
{
closed = 1;
nodes = (
"386 871 OFFCURVE",
"395 883 OFFCURVE",
"379 897 CURVE SMOOTH",
"375 900 OFFCURVE",
"370 902 OFFCURVE",
"365 902 CURVE SMOOTH",
"353 902 OFFCURVE",
"342 893 OFFCURVE",
"354 880 CURVE SMOOTH",
"360 874 OFFCURVE",
"367 871 OFFCURVE",
"373 871 CURVE SMOOTH"
);
},
{
closed = 1;
nodes = (
"862 503 OFFCURVE",
"858 505 OFFCURVE",
"858 506 CURVE SMOOTH",
"855 527 LINE SMOOTH",
"855 529 OFFCURVE",
"857 531 OFFCURVE",
"859 531 CURVE SMOOTH",
"878 530 OFFCURVE",
"898 529 OFFCURVE",
"917 531 CURVE SMOOTH",
"919 531 OFFCURVE",
"920 529 OFFCURVE",
"920 528 CURVE SMOOTH",
"921 506 LINE SMOOTH",
"921 505 OFFCURVE",
"919 503 OFFCURVE",
"918 503 CURVE SMOOTH",
"907 503 LINE SMOOTH",
"904 503 OFFCURVE",
"888 504 OFFCURVE",
"868 503 CURVE SMOOTH"
);
},
{
closed = 1;
nodes = (
"853 547 OFFCURVE",
"852 549 OFFCURVE",
"852 550 CURVE SMOOTH",
"847 586 LINE SMOOTH",
"840 637 OFFCURVE",
"806 705 OFFCURVE",
"772 745 CURVE SMOOTH",
"695 831 OFFCURVE",
"564 896 OFFCURVE",
"447 896 CURVE SMOOTH",
"440 896 OFFCURVE",
"440 893 OFFCURVE",
"440 915 CURVE SMOOTH",
"440 920 OFFCURVE",
"439 925 OFFCURVE",
"442 925 CURVE SMOOTH",
"449 926 OFFCURVE",
"515 919 OFFCURVE",
"533 915 CURVE SMOOTH",
"704 883 OFFCURVE",
"893 751 OFFCURVE",
"913 601 CURVE SMOOTH",
"920 551 LINE SMOOTH",
"920 549 OFFCURVE",
"919 548 OFFCURVE",
"917 548 CURVE SMOOTH",
"897 547 LINE SMOOTH",
"888 547 OFFCURVE",
"871 548 OFFCURVE",
"855 547 CURVE SMOOTH"
);
}
);
width = 998;
}
);
note = Eth;
unicode = 00D0;
},
{
glyphname = E;
lastChange = "2021-12-30 14:01:18 +0000";
layers = (
{
hints = (
{
horizontal = 1;
place = "{-3, 34}";
type = Stem;
},
{
horizontal = 1;
place = "{52, 28}";
type = Stem;
},
{
horizontal = 1;
place = "{110, 42}";
type = Stem;
},
{
horizontal = 1;
place = "{321, 12}";
type = Stem;
},
{
horizontal = 1;
place = "{435, 22}";
type = Stem;
},
{
horizontal = 1;
place = "{474, 14}";
type = Stem;
},
{
horizontal = 1;
place = "{547, 141}";
type = Stem;
},
{
horizontal = 1;
place = "{864, 22}";
type = Stem;
},
{
horizontal = 1;
place = "{911, 47}";
type = Stem;
},
{
place = "{20, 79}";
type = Stem;
},
{
place = "{110, 38}";
type = Stem;
},
{
place = "{165, 16}";
type = Stem;
},
{
place = "{592, 20}";
type = Stem;
},
{
place = "{630, 15}";
type = Stem;
},
{
place = "{663, 40}";
type = Stem;
},
{
place = "{729, 18}";
type = Stem;
},
{
place = "{171, 19}";
type = Stem;
},
{
horizontal = 1;
place = "{569, 28}";
type = Stem;
},
{
horizontal = 1;
place = "{628, 23}";
type = Stem;
},
{
horizontal = 1;
place = "{656, 28}";
type = Stem;
},
{
place = "{742, 74}";
type = Stem;
},
{
place = "{168, 21}";
type = Stem;
},
{
place = "{24, 74}";
type = Stem;
},
{
place = "{117, 22}";
type = Stem;
},
{
place = "{144, 25}";
type = Stem;
},
{
place = "{130, 20}";
type = Stem;
},
{
horizontal = 1;
place = "{488, 38}";
type = Stem;
},
{
place = "{681, 39}";
type = Stem;
}
);
layerId = "C926F53D-A7E5-453A-A1AF-2EFB3CF89CC0";
paths = (
{
closed = 1;
nodes = (
"509 18 OFFCURVE",
"618 59 OFFCURVE",
"711 99 CURVE SMOOTH",
"761 120 OFFCURVE",
"795 134 OFFCURVE",
"781 143 CURVE SMOOTH",
"770 150 OFFCURVE",
"760 168 OFFCURVE",
"750 180 CURVE SMOOTH",
"722 214 OFFCURVE",
"708 239 OFFCURVE",
"674 271 CURVE SMOOTH",
"659 285 OFFCURVE",
"632 298 OFFCURVE",
"608 298 CURVE SMOOTH",
"600 298 OFFCURVE",
"593 297 OFFCURVE",
"587 294 CURVE SMOOTH",
"576 287 OFFCURVE",
"618 292 OFFCURVE",
"634 285 CURVE SMOOTH",
"647 280 OFFCURVE",
"654 264 OFFCURVE",
"657 252 CURVE SMOOTH",
"663 225 OFFCURVE",
"662 197 OFFCURVE",
"648 174 CURVE SMOOTH",
"616 121 OFFCURVE",
"527 99 OFFCURVE",
"468 99 CURVE SMOOTH",
"378 99 OFFCURVE",
"288 140 OFFCURVE",
"232 217 CURVE SMOOTH",
"205 257 OFFCURVE",
"167 317 OFFCURVE",
"191 362 CURVE",
"198 379 OFFCURVE",
"198 399 OFFCURVE",
"184 411 CURVE SMOOTH",
"162 431 OFFCURVE",
"155 424 OFFCURVE",
"172 433 CURVE SMOOTH",
"180 437 OFFCURVE",
"186 449 OFFCURVE",
"185 459 CURVE SMOOTH",
"184 478 OFFCURVE",
"177 484 OFFCURVE",
"180 484 CURVE SMOOTH",
"250 483 OFFCURVE",
"310 486 OFFCURVE",
"394 487 CURVE SMOOTH",
"451 488 OFFCURVE",
"510 487 OFFCURVE",
"569 485 CURVE SMOOTH",
"634 483 OFFCURVE",
"690 471 OFFCURVE",
"723 421 CURVE SMOOTH",
"741 397 OFFCURVE",
"736 385 OFFCURVE",
"745 381 CURVE SMOOTH",
"752 378 OFFCURVE",
"749 449 OFFCURVE",
"749 453 CURVE SMOOTH",
"749 490 OFFCURVE",
"752 527 OFFCURVE",
"746 565 CURVE SMOOTH",
"744 577 OFFCURVE",
"741 586 OFFCURVE",
"739 597 CURVE SMOOTH",
"737 610 OFFCURVE",
"738 657 OFFCURVE",
"732 640 CURVE SMOOTH",
"720 606 OFFCURVE",
"720 584 OFFCURVE",
"675 575 CURVE SMOOTH",
"526 547 OFFCURVE",
"427 557 OFFCURVE",
"276 553 CURVE SMOOTH",
"188 550 OFFCURVE",
"146 545 OFFCURVE",
"128 545 CURVE SMOOTH",
"118 545 OFFCURVE",
"115 546 OFFCURVE",
"115 551 CURVE SMOOTH",
"115 783 OFFCURVE",
"167 912 OFFCURVE",
"415 912 CURVE SMOOTH",
"527 912 OFFCURVE",
"625 877 OFFCURVE",
"634 762 CURVE SMOOTH",
"636 740 OFFCURVE",
"632 716 OFFCURVE",
"622 697 CURVE SMOOTH",
"616 684 OFFCURVE",
"561 643 OFFCURVE",
"573 662 CURVE",
"614 696 OFFCURVE",
"625 718 OFFCURVE",
"617 777 CURVE SMOOTH",
"611 814 OFFCURVE",
"578 847 OFFCURVE",
"541 862 CURVE SMOOTH",
"505 879 OFFCURVE",
"459 888 OFFCURVE",
"412 888 CURVE SMOOTH",
"294 888 OFFCURVE",
"200 842 OFFCURVE",
"151 732 CURVE SMOOTH",
"139 706 OFFCURVE",
"146 718 OFFCURVE",
"170 705 CURVE SMOOTH",
"195 690 OFFCURVE",
"185 654 OFFCURVE",
"169 645 CURVE SMOOTH",
"157 639 OFFCURVE",
"142 635 OFFCURVE",
"140 630 CURVE SMOOTH",
"138 625 OFFCURVE",
"141 619 OFFCURVE",
"151 619 CURVE SMOOTH",
"179 620 OFFCURVE",
"181 611 OFFCURVE",
"182 600 CURVE SMOOTH",
"184 575 OFFCURVE",
"161 573 OFFCURVE",
"163 563 CURVE SMOOTH",
"164 557 OFFCURVE",
"181 565 OFFCURVE",
"186 570 CURVE SMOOTH",
"194 577 OFFCURVE",
"196 580 OFFCURVE",
"200 587 CURVE SMOOTH",
"209 603 OFFCURVE",
"199 636 OFFCURVE",
"174 631 CURVE",
"187 640 OFFCURVE",
"200 651 OFFCURVE",
"204 683 CURVE SMOOTH",
"207 710 OFFCURVE",
"200 715 OFFCURVE",
"183 733 CURVE",
"178 740 OFFCURVE",
"197 769 OFFCURVE",
"206 779 CURVE SMOOTH",
"259 842 OFFCURVE",
"327 867 OFFCURVE",
"407 867 CURVE SMOOTH",
"478 867 OFFCURVE",
"551 845 OFFCURVE",
"586 788 CURVE SMOOTH",
"601 763 OFFCURVE",
"600 734 OFFCURVE",
"591 707 CURVE SMOOTH",
"586 686 OFFCURVE",
"565 661 OFFCURVE",
"545 644 CURVE SMOOTH",
"539 638 OFFCURVE",
"539 635 OFFCURVE",
"541 635 CURVE SMOOTH",
"546 635 OFFCURVE",
"644 681 OFFCURVE",
"654 686 CURVE",
"679 703 OFFCURVE",
"711 706 OFFCURVE",
"742 716 CURVE SMOOTH",
"791 734 OFFCURVE",
"836 747 OFFCURVE",
"808 747 CURVE",
"797 745 OFFCURVE",
"783 739 OFFCURVE",
"773 739 CURVE SMOOTH",
"769 739 OFFCURVE",
"766 740 OFFCURVE",
"763 744 CURVE SMOOTH",
"712 814 OFFCURVE",
"682 850 OFFCURVE",
"624 888 CURVE SMOOTH",
"550 935 OFFCURVE",
"473 958 OFFCURVE",
"398 958 CURVE SMOOTH",
"303 958 OFFCURVE",
"213 920 OFFCURVE",
"138 844 CURVE SMOOTH",
"33 734 OFFCURVE",
"31 551 OFFCURVE",
"42 413 CURVE SMOOTH",
"45 358 OFFCURVE",
"59 296 OFFCURVE",
"78 244 CURVE SMOOTH",
"100 192 OFFCURVE",
"141 131 OFFCURVE",
"191 101 CURVE SMOOTH",
"255 60 OFFCURVE",
"329 18 OFFCURVE",
"406 18 CURVE SMOOTH"
);
},
{
closed = 1;
nodes = (
"154 378 OFFCURVE",
"160 384 OFFCURVE",
"147 392 CURVE SMOOTH",
"139 397 OFFCURVE",
"134 398 OFFCURVE",
"133 394 CURVE",
"131 391 OFFCURVE",
"131 386 OFFCURVE",
"134 381 CURVE",
"135 377 OFFCURVE",
"139 371 OFFCURVE",
"145 374 CURVE SMOOTH"
);
},
{
closed = 1;
nodes = (
"127 347 OFFCURVE",
"123 358 OFFCURVE",
"117 406 CURVE SMOOTH",
"114 429 OFFCURVE",
"111 483 OFFCURVE",
"116 483 CURVE SMOOTH",
"150 483 LINE SMOOTH",
"166 483 OFFCURVE",
"166 483 OFFCURVE",
"171 468 CURVE SMOOTH",
"178 444 OFFCURVE",
"155 437 OFFCURVE",
"142 429 CURVE SMOOTH",
"136 425 OFFCURVE",
"131 424 OFFCURVE",
"133 417 CURVE SMOOTH",
"134 414 OFFCURVE",
"135 413 OFFCURVE",
"139 413 CURVE SMOOTH",
"146 413 OFFCURVE",
"156 415 OFFCURVE",
"167 406 CURVE SMOOTH",
"181 393 OFFCURVE",
"183 374 OFFCURVE",
"172 362 CURVE SMOOTH",
"162 352 OFFCURVE",
"154 347 OFFCURVE",
"147 347 CURVE SMOOTH",
"132 347 LINE SMOOTH"
);
},
{
closed = 1;
nodes = (
"303 59 OFFCURVE",
"222 136 OFFCURVE",
"176 222 CURVE SMOOTH",
"163 248 OFFCURVE",
"149 273 OFFCURVE",
"141 295 CURVE SMOOTH",
"134 314 OFFCURVE",
"131 333 OFFCURVE",
"134 335 CURVE SMOOTH",
"140 338 OFFCURVE",
"158 343 OFFCURVE",
"159 341 CURVE",
"167 308 OFFCURVE",
"167 300 OFFCURVE",
"177 278 CURVE SMOOTH",
"216 193 OFFCURVE",
"260 147 OFFCURVE",
"317 110 CURVE SMOOTH",
"356 84 OFFCURVE",
"406 69 OFFCURVE",
"452 72 CURVE SMOOTH",
"591 79 OFFCURVE",
"641 133 OFFCURVE",
"661 162 CURVE",
"635 91 OFFCURVE",
"530 44 OFFCURVE",
"421 51 CURVE SMOOTH"
);
},
{
closed = 1;
nodes = (
"146 446 OFFCURVE",
"153 455 OFFCURVE",
"155 459 CURVE SMOOTH",
"158 466 OFFCURVE",
"154 468 OFFCURVE",
"148 468 CURVE SMOOTH",
"143 468 OFFCURVE",
"136 466 OFFCURVE",
"132 463 CURVE SMOOTH",
"117 454 OFFCURVE",
"133 445 OFFCURVE",
"139 446 CURVE SMOOTH"
);
},
{
closed = 1;
nodes = (
"159 577 OFFCURVE",
"166 587 OFFCURVE",
"163 598 CURVE SMOOTH",
"161 603 OFFCURVE",
"159 605 OFFCURVE",
"156 605 CURVE SMOOTH",
"147 605 OFFCURVE",
"136 590 OFFCURVE",
"141 583 CURVE SMOOTH",
"144 579 OFFCURVE",
"148 577 OFFCURVE",
"151 577 CURVE SMOOTH"
);
},
{
closed = 1;
nodes = (
"152 662 OFFCURVE",
"162 667 OFFCURVE",
"165 680 CURVE SMOOTH",
"166 685 OFFCURVE",
"163 690 OFFCURVE",
"157 690 CURVE SMOOTH",
"141 690 OFFCURVE",
"128 665 OFFCURVE",
"145 663 CURVE SMOOTH"
);
},
{
closed = 1;
nodes = (
"704 128 OFFCURVE",
"712 132 OFFCURVE",
"716 137 CURVE SMOOTH",
"729 154 OFFCURVE",
"722 169 OFFCURVE",
"709 169 CURVE SMOOTH",
"701 169 OFFCURVE",
"690 162 OFFCURVE",
"684 141 CURVE",
"683 132 OFFCURVE",
"689 128 OFFCURVE",
"697 128 CURVE SMOOTH"
);
},
{
closed = 1;
nodes = (
"652 103 OFFCURVE",
"669 149 OFFCURVE",
"672 170 CURVE SMOOTH",
"674 185 OFFCURVE",
"674 217 OFFCURVE",
"684 224 CURVE SMOOTH",
"689 227 OFFCURVE",
"690 219 OFFCURVE",
"732 173 CURVE SMOOTH",
"743 162 OFFCURVE",
"742 161 OFFCURVE",
"754 147 CURVE",
"761 141 OFFCURVE",
"741 132 OFFCURVE",
"711 119 CURVE SMOOTH",
"691 110 OFFCURVE",
"684 109 OFFCURVE",
"673 107 CURVE SMOOTH",
"662 105 LINE SMOOTH"
);
},
{
closed = 1;
nodes = (
"732 434 OFFCURVE",
"727 437 OFFCURVE",
"716 452 CURVE SMOOTH",
"688 489 OFFCURVE",
"601 507 OFFCURVE",
"521 509 CURVE SMOOTH",
"443 511 OFFCURVE",
"361 508 OFFCURVE",
"282 505 CURVE SMOOTH",
"116 498 LINE SMOOTH",
"112 498 OFFCURVE",
"114 521 OFFCURVE",
"114 528 CURVE SMOOTH",
"114 534 OFFCURVE",
"134 531 OFFCURVE",
"149 532 CURVE SMOOTH",
"318 544 OFFCURVE",
"447 535 OFFCURVE",
"614 547 CURVE SMOOTH",
"699 553 OFFCURVE",
"701 556 OFFCURVE",
"720 556 CURVE SMOOTH",
"728 556 OFFCURVE",
"726 492 OFFCURVE",
"728 468 CURVE SMOOTH",
"731 443 LINE SMOOTH"
);
},
{
closed = 1;
nodes = (
"721 501 OFFCURVE",
"720 525 OFFCURVE",
"717 530 CURVE",
"714 538 OFFCURVE",
"707 534 OFFCURVE",
"690 532 CURVE SMOOTH",
"678 531 OFFCURVE",
"666 536 OFFCURVE",
"657 536 CURVE SMOOTH",
"636 536 OFFCURVE",
"625 535 OFFCURVE",
"609 528 CURVE SMOOTH",
"582 519 OFFCURVE",
"632 522 OFFCURVE",
"645 515 CURVE SMOOTH",
"654 510 OFFCURVE",
"703 496 OFFCURVE",
"711 498 CURVE SMOOTH"
);
},
{
closed = 1;
nodes = (
"697 728 OFFCURVE",
"707 737 OFFCURVE",
"706 748 CURVE",
"704 754 OFFCURVE",
"698 760 OFFCURVE",
"690 767 CURVE SMOOTH",
"680 774 OFFCURVE",
"671 764 OFFCURVE",
"667 753 CURVE SMOOTH",
"664 744 OFFCURVE",
"669 738 OFFCURVE",
"676 732 CURVE SMOOTH",
"679 729 OFFCURVE",
"683 728 OFFCURVE",
"687 728 CURVE SMOOTH"
);
},
{
closed = 1;
nodes = (
"644 706 OFFCURVE",
"649 731 OFFCURVE",
"649 775 CURVE SMOOTH",
"649 794 OFFCURVE",
"649 830 OFFCURVE",
"657 825 CURVE SMOOTH",
"669 818 OFFCURVE",
"675 810 OFFCURVE",
"682 801 CURVE",
"720 761 LINE SMOOTH",
"743 737 OFFCURVE",
"753 736 OFFCURVE",
"734 730 CURVE SMOOTH",
"668 705 LINE SMOOTH",
"635 692 OFFCURVE",
"625 690 OFFCURVE",
"634 698 CURVE SMOOTH"
);
}
);
width = 816;
}
);
note = E;
unicode = 0045;
},
{
glyphname = F;
lastChange = "2021-12-30 14:01:18 +0000";
layers = (
{
hints = (
{
horizontal = 1;
place = "{-126, 13}";
type = Stem;
},
{
horizontal = 1;
place = "{-101, 24}";
type = Stem;
},
{
horizontal = 1;
place = "{-66, 9}";
type = Stem;
},
{
horizontal = 1;
place = "{502, 29}";
type = Stem;
},
{
horizontal = 1;
place = "{896, 10}";
type = Stem;
},
{
horizontal = 1;
place = "{922, 18}";
type = Stem;
},
{
horizontal = 1;
place = "{953, 16}";
type = Stem;
},
{
place = "{2, 12}";
type = Stem;
},
{
place = "{17, 46}";
type = Stem;
},
{
place = "{108, 48}";
type = Stem;
},
{
place = "{165, 21}";
type = Stem;
},
{
place = "{528, 27}";
type = Stem;
},
{
horizontal = 1;
place = "{502, 22}";
type = Stem;
}
);
layerId = "C926F53D-A7E5-453A-A1AF-2EFB3CF89CC0";
paths = (
{
closed = 1;
nodes = (
"53 -126 OFFCURVE",
"62 -122 OFFCURVE",
"70 -118 CURVE SMOOTH",
"87 -109 OFFCURVE",
"99 -88 OFFCURVE",
"116 -74 CURVE SMOOTH",
"128 -64 OFFCURVE",
"144 -53 OFFCURVE",
"160 -48 CURVE SMOOTH",
"173 -44 OFFCURVE",
"207 -45 OFFCURVE",
"183 -33 CURVE SMOOTH",
"171 -27 OFFCURVE",
"166 -23 OFFCURVE",
"163 -10 CURVE SMOOTH",
"158 10 OFFCURVE",
"160 28 OFFCURVE",
"160 48 CURVE",
"183 410 LINE SMOOTH",
"186 452 OFFCURVE",
"186 452 OFFCURVE",
"229 457 CURVE SMOOTH",
"539 495 LINE SMOOTH",
"567 498 OFFCURVE",
"596 501 OFFCURVE",
"622 505 CURVE",
"622 513 LINE",
"550 527 OFFCURVE",
"477 531 OFFCURVE",
"403 531 CURVE SMOOTH",
"332 531 OFFCURVE",
"260 527 OFFCURVE",
"189 524 CURVE",
"186 547 LINE",
"186 617 OFFCURVE",
"183 689 OFFCURVE",
"186 759 CURVE SMOOTH",
"186 802 OFFCURVE",
"186 846 OFFCURVE",
"198 888 CURVE SMOOTH",
"216 951 OFFCURVE",
"290 961 OFFCURVE",
"345 953 CURVE SMOOTH",
"389 946 OFFCURVE",
"431 925 OFFCURVE",
"449 885 CURVE SMOOTH",
"460 862 OFFCURVE",
"464 835 OFFCURVE",
"462 811 CURVE SMOOTH",
"461 802 OFFCURVE",
"460 786 OFFCURVE",
"452 783 CURVE SMOOTH",
"445 781 OFFCURVE",
"419 769 OFFCURVE",
"435 772 CURVE",
"510 793 LINE SMOOTH",
"518 796 OFFCURVE",
"552 804 OFFCURVE",
"555 812 CURVE SMOOTH",
"560 822 OFFCURVE",
"541 838 OFFCURVE",
"536 844 CURVE SMOOTH",
"517 867 OFFCURVE",
"499 895 OFFCURVE",
"476 914 CURVE SMOOTH",
"436 948 OFFCURVE",
"383 967 OFFCURVE",
"330 969 CURVE SMOOTH",
"284 970 OFFCURVE",
"226 960 OFFCURVE",
"195 924 CURVE SMOOTH",
"176 903 OFFCURVE",
"176 879 OFFCURVE",
"173 853 CURVE SMOOTH",
"167 807 OFFCURVE",
"165 760 OFFCURVE",
"165 715 CURVE SMOOTH",
"164 623 OFFCURVE",
"168 530 OFFCURVE",
"165 438 CURVE SMOOTH",
"160 300 LINE",
"153 672 LINE",
"160 890 LINE SMOOTH",
"163 935 OFFCURVE",
"165 937 OFFCURVE",
"182 939 CURVE SMOOTH",
"212 945 OFFCURVE",
"122 944 OFFCURVE",
"92 941 CURVE SMOOTH",
"47 935 LINE",
"37 932 OFFCURVE",
"3 924 OFFCURVE",
"2 909 CURVE SMOOTH",
"2 898 OFFCURVE",
"8 893 OFFCURVE",
"18 896 CURVE",
"33 898 OFFCURVE",
"27 925 OFFCURVE",
"26 914 CURVE",
"24 909 OFFCURVE",
"17 901 OFFCURVE",
"14 909 CURVE SMOOTH",
"11 919 OFFCURVE",
"25 922 OFFCURVE",
"41 922 CURVE SMOOTH",
"55 922 OFFCURVE",
"69 920 OFFCURVE",
"74 918 CURVE SMOOTH",
"96 906 OFFCURVE",
"95 877 OFFCURVE",
"95 855 CURVE SMOOTH",
"112 382 LINE SMOOTH",
"114 294 OFFCURVE",
"110 207 OFFCURVE",
"108 118 CURVE SMOOTH",
"106 -36 LINE SMOOTH",
"105 -48 OFFCURVE",
"102 -64 OFFCURVE",
"96 -74 CURVE SMOOTH",
"92 -83 OFFCURVE",
"85 -91 OFFCURVE",
"80 -99 CURVE SMOOTH",
"77 -103 OFFCURVE",
"77 -101 OFFCURVE",
"78 -96 CURVE SMOOTH",
"82 -83 OFFCURVE",
"78 -60 OFFCURVE",
"66 -57 CURVE SMOOTH",
"53 -53 OFFCURVE",
"42 -58 OFFCURVE",
"33 -68 CURVE SMOOTH",
"21 -80 OFFCURVE",
"12 -99 OFFCURVE",
"21 -112 CURVE SMOOTH",
"28 -122 OFFCURVE",
"36 -126 OFFCURVE",
"44 -126 CURVE SMOOTH"
);
},
{
closed = 1;
nodes = (
"43 -114 OFFCURVE",
"30 -97 OFFCURVE",
"35 -84 CURVE SMOOTH",
"39 -73 OFFCURVE",
"47 -66 OFFCURVE",
"55 -66 CURVE SMOOTH",
"57 -66 OFFCURVE",
"60 -67 OFFCURVE",
"63 -69 CURVE SMOOTH",
"75 -79 OFFCURVE",
"78 -111 OFFCURVE",
"54 -113 CURVE SMOOTH"
);
},
{
closed = 1;
nodes = (
"61 -101 OFFCURVE",
"68 -87 OFFCURVE",
"60 -80 CURVE SMOOTH",
"53 -72 OFFCURVE",
"43 -83 OFFCURVE",
"47 -94 CURVE SMOOTH",
"49 -99 OFFCURVE",
"51 -101 OFFCURVE",
"54 -101 CURVE SMOOTH"
);
},
{
closed = 1;
nodes = (
"192 496 LINE",
"229 498 LINE",
"361 502 LINE SMOOTH",
"389 502 OFFCURVE",
"460 507 OFFCURVE",
"513 504 CURVE",
"502 498 OFFCURVE",
"425 495 OFFCURVE",
"412 495 CURVE",
"295 482 LINE SMOOTH",
"274 480 OFFCURVE",
"254 476 OFFCURVE",
"234 475 CURVE SMOOTH",
"205 472 LINE SMOOTH",
"198 472 OFFCURVE",
"193 471 OFFCURVE",
"187 472 CURVE"
);
},
{
closed = 1;
nodes = (
"473 791 OFFCURVE",
"483 796 OFFCURVE",
"476 850 CURVE SMOOTH",
"475 864 OFFCURVE",
"454 901 OFFCURVE",
"468 888 CURVE SMOOTH",
"487 867 LINE SMOOTH",
"494 860 OFFCURVE",
"502 851 OFFCURVE",
"507 843 CURVE SMOOTH",
"525 818 LINE SMOOTH",
"533 805 OFFCURVE",
"525 806 OFFCURVE",
"519 805 CURVE SMOOTH",
"486 796 LINE"
);
}
);
width = 600;
}
);
note = F;
unicode = 0046;
},
{
glyphname = G;
lastChange = "2021-12-30 14:01:18 +0000";
layers = (
{
hints = (
{
horizontal = 1;
place = "{39, 28}";
type = Stem;
},
{
horizontal = 1;
place = "{95, 15}";
type = Stem;
},
{
horizontal = 1;
place = "{869, 13}";
type = Stem;
},
{
horizontal = 1;
place = "{901, 25}";
type = Stem;
},
{
horizontal = 1;
place = "{959, -20}";
target = down;
type = TopGhost;
},
{
place = "{76, 77}";
type = Stem;
},
{
place = "{177, 13}";
type = Stem;
},
{
place = "{216, 30}";
type = Stem;
},
{
place = "{517, 89}";
type = Stem;
},
{
place = "{79, 73}";
type = Stem;
}
);
layerId = "C926F53D-A7E5-453A-A1AF-2EFB3CF89CC0";
paths = (
{
closed = 1;
nodes = (
"256 39 OFFCURVE",
"402 43 OFFCURVE",
"584 49 CURVE SMOOTH",
"641 51 OFFCURVE",
"671 52 OFFCURVE",
"620 61 CURVE SMOOTH",
"609 63 OFFCURVE",
"610 92 OFFCURVE",
"609 117 CURVE SMOOTH",
"602 297 OFFCURVE",
"607 387 OFFCURVE",
"607 497 CURVE SMOOTH",
"607 555 OFFCURVE",
"603 562 OFFCURVE",
"626 569 CURVE SMOOTH",
"636 572 OFFCURVE",
"637 576 OFFCURVE",
"629 576 CURVE SMOOTH",
"603 576 OFFCURVE",
"439 566 OFFCURVE",
"403 571 CURVE SMOOTH",
"387 573 OFFCURVE",
"370 576 OFFCURVE",
"393 561 CURVE SMOOTH",
"407 552 OFFCURVE",
"421 550 OFFCURVE",
"435 550 CURVE SMOOTH",
"451 550 OFFCURVE",
"466 553 OFFCURVE",
"479 553 CURVE SMOOTH",
"500 553 OFFCURVE",
"514 545 OFFCURVE",
"515 505 CURVE SMOOTH",
"520 272 LINE SMOOTH",
"522 193 OFFCURVE",
"524 179 OFFCURVE",
"524 114 CURVE SMOOTH",
"524 106 OFFCURVE",
"399 112 OFFCURVE",
"350 111 CURVE SMOOTH",
"238 109 LINE",
"231 108 OFFCURVE",
"249 126 OFFCURVE",
"229 140 CURVE SMOOTH",
"223 144 OFFCURVE",
"217 145 OFFCURVE",
"212 145 CURVE SMOOTH",
"198 145 OFFCURVE",
"187 138 OFFCURVE",
"188 146 CURVE",
"191 258 OFFCURVE",
"190 392 OFFCURVE",
"190 537 CURVE SMOOTH",
"190 557 OFFCURVE",
"192 689 OFFCURVE",
"192 719 CURVE SMOOTH",
"192 752 OFFCURVE",
"191 771 OFFCURVE",
"193 807 CURVE SMOOTH",
"193 813 OFFCURVE",
"195 815 OFFCURVE",
"197 815 CURVE SMOOTH",
"202 815 OFFCURVE",
"213 807 OFFCURVE",
"232 819 CURVE SMOOTH",
"247 829 OFFCURVE",
"252 839 OFFCURVE",
"246 860 CURVE SMOOTH",
"244 867 OFFCURVE",
"248 865 OFFCURVE",
"257 865 CURVE SMOOTH",
"361 868 OFFCURVE",
"388 869 OFFCURVE",
"482 869 CURVE SMOOTH",
"529 869 OFFCURVE",
"558 834 OFFCURVE",
"568 818 CURVE SMOOTH",
"586 789 OFFCURVE",
"575 764 OFFCURVE",
"584 769 CURVE SMOOTH",
"599 777 OFFCURVE",
"591 864 OFFCURVE",
"590 872 CURVE SMOOTH",
"587 899 OFFCURVE",
"594 927 OFFCURVE",
"587 951 CURVE SMOOTH",
"582 969 OFFCURVE",
"579 954 OFFCURVE",
"576 944 CURVE SMOOTH",
"572 932 OFFCURVE",
"545 930 OFFCURVE",
"530 931 CURVE SMOOTH",
"451 934 LINE SMOOTH",
"409 936 OFFCURVE",
"366 933 OFFCURVE",
"323 931 CURVE SMOOTH",
"125 922 LINE SMOOTH",
"87 920 OFFCURVE",
"55 925 OFFCURVE",
"32 925 CURVE SMOOTH",
"20 925 OFFCURVE",
"11 924 OFFCURVE",
"5 919 CURVE",
"-16 907 OFFCURVE",
"36 920 OFFCURVE",
"51 913 CURVE SMOOTH",
"77 901 OFFCURVE",
"76 870 OFFCURVE",
"76 847 CURVE SMOOTH",
"81 613 LINE SMOOTH",
"83 506 OFFCURVE",
"78 398 OFFCURVE",
"79 290 CURVE SMOOTH",
"81 142 LINE SMOOTH",
"81 123 OFFCURVE",
"84 83 OFFCURVE",
"73 68 CURVE SMOOTH",
"63 54 OFFCURVE",
"50 60 OFFCURVE",
"22 51 CURVE",
"-22 45 OFFCURVE",
"-19 42 OFFCURVE",
"32 41 CURVE SMOOTH",
"83 40 OFFCURVE",
"117 39 OFFCURVE",
"135 39 CURVE SMOOTH"
);
},
{
closed = 1;
nodes = (
"234 67 OFFCURVE",
"154 66 OFFCURVE",
"154 71 CURVE SMOOTH",
"154 144 LINE SMOOTH",
"154 243 OFFCURVE",
"155 344 OFFCURVE",
"154 444 CURVE SMOOTH",
"151 644 LINE SMOOTH",
"150 680 OFFCURVE",
"153 717 OFFCURVE",
"153 754 CURVE SMOOTH",
"153 871 LINE SMOOTH",
"153 899 OFFCURVE",
"150 893 OFFCURVE",
"210 897 CURVE SMOOTH",
"259 900 OFFCURVE",
"296 902 OFFCURVE",
"328 902 CURVE SMOOTH",
"386 902 OFFCURVE",
"423 896 OFFCURVE",
"472 883 CURVE SMOOTH",
"495 877 OFFCURVE",
"388 882 OFFCURVE",
"381 882 CURVE SMOOTH",
"225 880 LINE SMOOTH",
"203 880 OFFCURVE",
"226 873 OFFCURVE",
"230 863 CURVE SMOOTH",
"235 850 OFFCURVE",
"225 829 OFFCURVE",
"211 829 CURVE SMOOTH",
"207 829 OFFCURVE",
"202 831 OFFCURVE",
"198 835 CURVE SMOOTH",
"195 838 OFFCURVE",
"195 847 OFFCURVE",
"199 846 CURVE SMOOTH",
"217 841 OFFCURVE",
"228 862 OFFCURVE",
"201 866 CURVE SMOOTH",
"172 870 OFFCURVE",
"175 790 OFFCURVE",
"176 765 CURVE SMOOTH",
"178 709 OFFCURVE",
"177 653 OFFCURVE",
"177 598 CURVE SMOOTH",
"177 469 OFFCURVE",
"180 347 OFFCURVE",
"177 211 CURVE SMOOTH",
"176 165 OFFCURVE",
"177 160 OFFCURVE",
"177 121 CURVE SMOOTH",
"177 108 OFFCURVE",
"179 93 OFFCURVE",
"196 93 CURVE SMOOTH",
"206 93 OFFCURVE",
"212 105 OFFCURVE",
"208 115 CURVE SMOOTH",
"205 123 OFFCURVE",
"186 108 OFFCURVE",
"188 122 CURVE SMOOTH",
"189 129 OFFCURVE",
"197 133 OFFCURVE",
"205 133 CURVE SMOOTH",
"214 133 OFFCURVE",
"223 128 OFFCURVE",
"224 118 CURVE SMOOTH",
"226 97 OFFCURVE",
"214 95 OFFCURVE",
"221 95 CURVE SMOOTH",
"256 96 OFFCURVE",
"375 95 OFFCURVE",
"376 95 CURVE SMOOTH",
"486 95 LINE SMOOTH",
"515 95 OFFCURVE",
"525 99 OFFCURVE",
"524 90 CURVE SMOOTH",
"524 81 LINE SMOOTH",
"525 68 OFFCURVE",
"482 79 OFFCURVE",
"340 72 CURVE SMOOTH",
"241 67 LINE SMOOTH"
);
}
);
width = 666;
}
);
note = G;
unicode = 0047;
},
{
glyphname = H;
lastChange = "2021-12-30 14:01:18 +0000";
layers = (
{
hints = (
{
horizontal = 1;
place = "{-510, 14}";
type = Stem;
},
{
horizontal = 1;
place = "{-439, 9}";
type = Stem;
},
{
horizontal = 1;
place = "{-424, 16}";
type = Stem;
},
{
horizontal = 1;
place = "{-392, 13}";
type = Stem;
},
{
horizontal = 1;
place = "{56, 13}";
type = Stem;
},
{
horizontal = 1;
place = "{385, 16}";
type = Stem;
},
{
horizontal = 1;
place = "{420, 50}";
type = Stem;
},
{
horizontal = 1;
place = "{501, 27}";
type = Stem;
},
{
horizontal = 1;
place = "{547, 16}";
type = Stem;
},
{
horizontal = 1;
place = "{565, 57}";
type = Stem;
},
{
horizontal = 1;
place = "{663, 22}";
type = Stem;
},
{
horizontal = 1;
place = "{927, 20}";
type = Stem;
},
{
place = "{74, 17}";
type = Stem;
},
{
place = "{108, 18}";
type = Stem;
},
{
place = "{161, 40}";
type = Stem;
},
{
place = "{220, 12}";
type = Stem;
},
{
place = "{272, 12}";
type = Stem;
},
{
place = "{364, 12}";
type = Stem;
},
{
place = "{488, 12}";
type = Stem;
},
{
place = "{516, 36}";
type = Stem;
},
{
place = "{598, 11}";
type = Stem;
},
{
place = "{626, 37}";
type = Stem;
},
{
place = "{729, 33}";
type = Stem;
},
{
place = "{817, 50}";
type = Stem;
},
{
horizontal = 1;
place = "{514, 12}";
type = Stem;
},
{
place = "{82, 16}";
type = Stem;
},
{
horizontal = 1;
place = "{446, 14}";
type = Stem;
},
{
place = "{120, 18}";
type = Stem;
},
{
horizontal = 1;
place = "{460, 23}";
type = Stem;
},
{
place = "{194, 19}";
type = Stem;
},
{
place = "{112, 38}";
type = Stem;
}
);
layerId = "C926F53D-A7E5-453A-A1AF-2EFB3CF89CC0";
paths = (
{
closed = 1;
nodes = (
"261 -538 OFFCURVE",
"289 -519 OFFCURVE",
"300 -495 CURVE SMOOTH",
"307 -481 OFFCURVE",
"310 -445 OFFCURVE",
"330 -438 CURVE SMOOTH",
"336 -436 OFFCURVE",
"335 -438 OFFCURVE",
"345 -439 CURVE SMOOTH",
"376 -442 OFFCURVE",
"387 -401 OFFCURVE",
"364 -385 CURVE SMOOTH",
"358 -381 OFFCURVE",
"349 -379 OFFCURVE",
"340 -379 CURVE SMOOTH",
"312 -379 OFFCURVE",
"296 -394 OFFCURVE",
"282 -417 CURVE SMOOTH",
"279 -422 OFFCURVE",
"274 -409 OFFCURVE",
"259 -408 CURVE SMOOTH",
"252 -408 OFFCURVE",
"241 -415 OFFCURVE",
"233 -422 CURVE SMOOTH",
"215 -437 OFFCURVE",
"260 -391 OFFCURVE",
"274 -380 CURVE SMOOTH",
"309 -349 OFFCURVE",
"341 -315 OFFCURVE",
"379 -286 CURVE SMOOTH",
"475 -213 OFFCURVE",
"576 -147 OFFCURVE",
"675 -79 CURVE SMOOTH",
"749 -28 OFFCURVE",
"804 39 OFFCURVE",
"837 127 CURVE SMOOTH",
"926 365 OFFCURVE",
"804 533 OFFCURVE",
"632 603 CURVE SMOOTH",
"600 616 OFFCURVE",
"563 622 OFFCURVE",
"525 622 CURVE SMOOTH",
"403 622 OFFCURVE",
"265 555 OFFCURVE",
"201 425 CURVE",
"201 447 LINE",
"206 625 LINE SMOOTH",
"208 713 OFFCURVE",
"200 801 OFFCURVE",
"208 887 CURVE SMOOTH",
"209 898 OFFCURVE",
"209 923 OFFCURVE",
"217 931 CURVE SMOOTH",
"228 943 OFFCURVE",
"267 941 OFFCURVE",
"263 945 CURVE SMOOTH",
"259 950 OFFCURVE",
"222 949 OFFCURVE",
"212 949 CURVE SMOOTH",
"196 949 OFFCURVE",
"177 947 OFFCURVE",
"159 947 CURVE SMOOTH",
"84 947 LINE SMOOTH",
"61 947 OFFCURVE",
"22 947 OFFCURVE",
"-9 928 CURVE SMOOTH",
"-16 924 OFFCURVE",
"8 930 OFFCURVE",
"18 931 CURVE SMOOTH",
"33 933 OFFCURVE",
"38 933 OFFCURVE",
"53 931 CURVE SMOOTH",
"89 926 OFFCURVE",
"108 910 OFFCURVE",
"108 881 CURVE SMOOTH",
"110 753 LINE SMOOTH",
"110 738 OFFCURVE",
"109 717 OFFCURVE",
"103 704 CURVE SMOOTH",
"100 697 OFFCURVE",
"75 688 OFFCURVE",
"74 676 CURVE SMOOTH",
"72 658 OFFCURVE",
"76 645 OFFCURVE",
"98 640 CURVE SMOOTH",
"106 638 OFFCURVE",
"82 624 OFFCURVE",
"81 605 CURVE SMOOTH",
"80 595 OFFCURVE",
"80 590 OFFCURVE",
"94 579 CURVE SMOOTH",
"103 572 OFFCURVE",
"110 571 OFFCURVE",
"106 569 CURVE SMOOTH",
"103 567 OFFCURVE",
"59 532 OFFCURVE",
"96 516 CURVE SMOOTH",
"103 513 OFFCURVE",
"108 514 OFFCURVE",
"118 514 CURVE SMOOTH",
"126 514 OFFCURVE",
"121 508 OFFCURVE",
"120 404 CURVE SMOOTH",
"118 328 OFFCURVE",
"119 250 OFFCURVE",
"116 176 CURVE SMOOTH",
"115 150 OFFCURVE",
"110 93 OFFCURVE",
"94 72 CURVE SMOOTH",
"81 55 OFFCURVE",
"57 67 OFFCURVE",
"38 56 CURVE SMOOTH",
"32 53 OFFCURVE",
"31 52 OFFCURVE",
"32 52 CURVE SMOOTH",
"35 52 OFFCURVE",
"46 55 OFFCURVE",
"52 55 CURVE SMOOTH",
"82 56 LINE SMOOTH",
"107 57 OFFCURVE",
"135 55 OFFCURVE",
"159 57 CURVE SMOOTH",
"172 58 OFFCURVE",
"283 50 OFFCURVE",
"254 61 CURVE",
"242 64 OFFCURVE",
"226 63 OFFCURVE",
"216 70 CURVE SMOOTH",
"210 74 OFFCURVE",
"210 79 OFFCURVE",
"208 116 CURVE SMOOTH",
"204 191 OFFCURVE",
"206 259 OFFCURVE",
"217 315 CURVE SMOOTH",
"233 401 OFFCURVE",
"305 490 OFFCURVE",
"397 501 CURVE SMOOTH",
"413 503 OFFCURVE",
"496 507 OFFCURVE",
"491 493 CURVE SMOOTH",
"481 465 OFFCURVE",
"494 446 OFFCURVE",
"510 446 CURVE SMOOTH",
"516 446 OFFCURVE",
"523 448 OFFCURVE",
"529 454 CURVE SMOOTH",
"534 459 OFFCURVE",
"536 461 OFFCURVE",
"537 461 CURVE SMOOTH",
"540 461 OFFCURVE",
"538 452 OFFCURVE",
"545 439 CURVE SMOOTH",
"552 427 OFFCURVE",
"570 421 OFFCURVE",
"588 427 CURVE SMOOTH",
"594 429 OFFCURVE",
"598 432 OFFCURVE",
"598 429 CURVE SMOOTH",
"598 423 OFFCURVE",
"598 385 OFFCURVE",
"621 385 CURVE SMOOTH",
"630 385 OFFCURVE",
"643 391 OFFCURVE",
"662 410 CURVE SMOOTH",
"673 421 OFFCURVE",
"729 365 OFFCURVE",
"729 245 CURVE SMOOTH",
"729 54 OFFCURVE",
"654 -45 OFFCURVE",
"478 -187 CURVE SMOOTH",
"469 -194 OFFCURVE",
"465 -198 OFFCURVE",
"466 -198 CURVE SMOOTH",
"467 -198 OFFCURVE",
"477 -191 OFFCURVE",
"499 -176 CURVE SMOOTH",
"577 -122 OFFCURVE",
"701 -32 OFFCURVE",
"738 92 CURVE SMOOTH",
"766 186 OFFCURVE",
"776 286 OFFCURVE",
"728 365 CURVE SMOOTH",
"700 410 OFFCURVE",
"685 427 OFFCURVE",
"688 439 CURVE SMOOTH",
"692 454 OFFCURVE",
"688 454 OFFCURVE",
"680 443 CURVE SMOOTH",
"660 416 OFFCURVE",
"639 404 OFFCURVE",
"632 401 CURVE SMOOTH",
"613 392 OFFCURVE",
"605 420 OFFCURVE",
"609 439 CURVE SMOOTH",
"612 452 OFFCURVE",
"634 468 OFFCURVE",
"620 470 CURVE",
"600 470 OFFCURVE",
"604 443 OFFCURVE",
"588 436 CURVE SMOOTH",
"575 430 OFFCURVE",
"555 439 OFFCURVE",
"549 454 CURVE SMOOTH",
"545 465 OFFCURVE",
"557 484 OFFCURVE",
"549 483 CURVE SMOOTH",
"534 483 OFFCURVE",
"532 458 OFFCURVE",
"515 460 CURVE SMOOTH",
"496 462 OFFCURVE",
"497 477 OFFCURVE",
"507 494 CURVE SMOOTH",
"510 499 OFFCURVE",
"520 517 OFFCURVE",
"517 520 CURVE SMOOTH",
"509 528 OFFCURVE",
"491 528 OFFCURVE",
"482 528 CURVE SMOOTH",
"433 527 LINE SMOOTH",
"401 526 OFFCURVE",
"369 512 OFFCURVE",
"338 499 CURVE SMOOTH",
"278 474 OFFCURVE",
"240 423 OFFCURVE",
"209 352 CURVE",
"211 397 OFFCURVE",
"225 446 OFFCURVE",
"258 475 CURVE SMOOTH",
"325 534 OFFCURVE",
"408 566 OFFCURVE",
"490 566 CURVE SMOOTH",
"570 566 OFFCURVE",
"649 535 OFFCURVE",
"710 470 CURVE SMOOTH",
"764 412 OFFCURVE",
"812 350 OFFCURVE",
"817 260 CURVE SMOOTH",
"825 113 OFFCURVE",
"751 11 OFFCURVE",
"654 -70 CURVE SMOOTH",
"605 -111 OFFCURVE",
"554 -143 OFFCURVE",
"498 -178 CURVE SMOOTH",
"428 -222 OFFCURVE",
"361 -283 OFFCURVE",
"294 -340 CURVE SMOOTH",
"242 -383 OFFCURVE",
"203 -425 OFFCURVE",
"194 -488 CURVE SMOOTH",
"191 -510 OFFCURVE",
"191 -523 OFFCURVE",
"212 -533 CURVE SMOOTH",
"219 -536 OFFCURVE",
"226 -538 OFFCURVE",
"234 -538 CURVE SMOOTH"
);
},
{
closed = 1;
nodes = (
"253 -510 OFFCURVE",
"265 -504 OFFCURVE",
"277 -489 CURVE SMOOTH",
"286 -478 OFFCURVE",
"284 -479 OFFCURVE",
"273 -487 CURVE SMOOTH",
"266 -492 OFFCURVE",
"255 -497 OFFCURVE",
"245 -497 CURVE SMOOTH",
"234 -497 OFFCURVE",
"226 -489 OFFCURVE",
"237 -465 CURVE SMOOTH",
"244 -450 OFFCURVE",
"245 -449 OFFCURVE",
"237 -455 CURVE SMOOTH",
"232 -460 OFFCURVE",
"222 -469 OFFCURVE",
"220 -480 CURVE SMOOTH",
"218 -495 OFFCURVE",
"228 -510 OFFCURVE",
"243 -510 CURVE SMOOTH"
);
},
{
closed = 1;
nodes = (
"224 -535 OFFCURVE",
"212 -519 OFFCURVE",
"213 -484 CURVE SMOOTH",
"214 -453 OFFCURVE",
"233 -423 OFFCURVE",
"253 -423 CURVE SMOOTH",
"267 -423 OFFCURVE",
"272 -435 OFFCURVE",
"272 -448 CURVE SMOOTH",
"271 -470 OFFCURVE",
"241 -472 OFFCURVE",
"249 -477 CURVE",
"263 -482 OFFCURVE",
"284 -459 OFFCURVE",
"284 -430 CURVE SMOOTH",
"284 -424 OFFCURVE",
"300 -410 OFFCURVE",
"306 -404 CURVE",
"319 -396 OFFCURVE",
"330 -392 OFFCURVE",
"339 -392 CURVE SMOOTH",
"356 -392 OFFCURVE",
"365 -403 OFFCURVE",
"364 -420 CURVE SMOOTH",
"363 -427 OFFCURVE",
"357 -430 OFFCURVE",
"352 -430 CURVE SMOOTH",
"345 -430 OFFCURVE",
"339 -426 OFFCURVE",
"341 -415 CURVE SMOOTH",
"342 -405 OFFCURVE",
"339 -409 OFFCURVE",
"337 -418 CURVE SMOOTH",
"336 -423 OFFCURVE",
"333 -423 OFFCURVE",
"328 -426 CURVE SMOOTH",
"304 -440 OFFCURVE",
"302 -470 OFFCURVE",
"297 -487 CURVE SMOOTH",
"288 -514 OFFCURVE",
"272 -529 OFFCURVE",
"248 -532 CURVE SMOOTH"
);
},
{
closed = 1;
nodes = (
"140 67 OFFCURVE",
"89 64 OFFCURVE",
"106 71 CURVE",
"121 85 OFFCURVE",
"129 104 OFFCURVE",
"131 150 CURVE SMOOTH",
"138 365 LINE SMOOTH",
"138 380 OFFCURVE",
"146 540 OFFCURVE",
"136 535 CURVE SMOOTH",
"132 533 OFFCURVE",
"123 526 OFFCURVE",
"114 526 CURVE SMOOTH",
"111 526 OFFCURVE",
"107 527 OFFCURVE",
"104 530 CURVE SMOOTH",
"82 550 OFFCURVE",
"122 570 OFFCURVE",
"134 572 CURVE SMOOTH",
"151 575 OFFCURVE",
"151 581 OFFCURVE",
"135 581 CURVE SMOOTH",
"109 580 OFFCURVE",
"95 586 OFFCURVE",
"98 610 CURVE SMOOTH",
"100 623 OFFCURVE",
"111 628 OFFCURVE",
"118 633 CURVE",
"118 633 OFFCURVE",
"140 646 OFFCURVE",
"138 650 CURVE SMOOTH",
"135 656 OFFCURVE",
"93 641 OFFCURVE",
"91 671 CURVE SMOOTH",
"90 681 OFFCURVE",
"95 685 OFFCURVE",
"104 691 CURVE SMOOTH",
"116 699 OFFCURVE",
"125 700 OFFCURVE",
"125 714 CURVE SMOOTH",
"125 744 OFFCURVE",
"125 777 OFFCURVE",
"126 824 CURVE SMOOTH",
"127 856 OFFCURVE",
"126 868 OFFCURVE",
"126 913 CURVE SMOOTH",
"126 920 OFFCURVE",
"127 927 OFFCURVE",
"131 927 CURVE SMOOTH",
"159 927 LINE SMOOTH",
"162 927 OFFCURVE",
"167 925 OFFCURVE",
"167 921 CURVE SMOOTH",
"167 914 OFFCURVE",
"166 915 OFFCURVE",
"166 895 CURVE SMOOTH",
"170 686 OFFCURVE",
"161 464 OFFCURVE",
"161 249 CURVE SMOOTH",
"161 147 LINE SMOOTH",
"161 92 OFFCURVE",
"161 71 OFFCURVE",
"149 69 CURVE SMOOTH"
);
},
{
closed = 1;
nodes = (
"131 547 OFFCURVE",
"139 548 OFFCURVE",
"142 551 CURVE SMOOTH",
"166 571 OFFCURVE",
"118 564 OFFCURVE",
"114 551 CURVE SMOOTH",
"113 548 OFFCURVE",
"118 547 OFFCURVE",
"124 547 CURVE SMOOTH"
);
},
{
closed = 1;
nodes = (
"137 603 OFFCURVE",
"161 613 OFFCURVE",
"145 621 CURVE SMOOTH",
"133 627 OFFCURVE",
"113 616 OFFCURVE",
"112 609 CURVE SMOOTH",
"111 605 OFFCURVE",
"116 603 OFFCURVE",
"122 603 CURVE SMOOTH"
);
},
{
closed = 1;
nodes = (
"125 662 OFFCURVE",
"136 667 OFFCURVE",
"145 676 CURVE SMOOTH",
"151 682 OFFCURVE",
"143 685 OFFCURVE",
"133 685 CURVE SMOOTH",
"125 685 OFFCURVE",
"116 683 OFFCURVE",
"111 679 CURVE SMOOTH",
"100 668 OFFCURVE",
"101 663 OFFCURVE",
"113 663 CURVE SMOOTH"
);
},
{
closed = 1;
nodes = (
"518 461 OFFCURVE",
"526 472 OFFCURVE",
"540 495 CURVE SMOOTH",
"547 507 OFFCURVE",
"551 521 OFFCURVE",
"550 528 CURVE",
"550 545 OFFCURVE",
"535 517 OFFCURVE",
"525 495 CURVE SMOOTH",
"516 476 OFFCURVE",
"513 466 OFFCURVE",
"516 464 CURVE"
);
},
{
closed = 1;
nodes = (
"579 448 OFFCURVE",
"583 454 OFFCURVE",
"586 460 CURVE SMOOTH",
"592 472 LINE SMOOTH",
"595 477 OFFCURVE",
"605 516 OFFCURVE",
"595 512 CURVE SMOOTH",
"588 509 OFFCURVE",
"581 493 OFFCURVE",
"579 483 CURVE SMOOTH",
"577 475 OFFCURVE",
"570 457 OFFCURVE",
"576 451 CURVE SMOOTH"
);
},
{
closed = 1;
nodes = (
"634 420 OFFCURVE",
"640 424 OFFCURVE",
"646 435 CURVE SMOOTH",
"649 439 OFFCURVE",
"671 473 OFFCURVE",
"660 471 CURVE SMOOTH",
"653 470 OFFCURVE",
"641 456 OFFCURVE",
"637 451 CURVE SMOOTH",
"632 444 OFFCURVE",
"626 436 OFFCURVE",
"626 428 CURVE SMOOTH",
"626 423 OFFCURVE",
"628 420 OFFCURVE",
"631 420 CURVE SMOOTH"
);
}
);
width = 877;
}
);
note = H;
unicode = 0048;
},
{
glyphname = I;
lastChange = "2021-12-30 14:01:18 +0000";
layers = (
{
hints = (
{
horizontal = 1;
place = "{-34, 16}";
type = Stem;
},
{
horizontal = 1;
place = "{9, 19}";
type = Stem;
},
{
horizontal = 1;
place = "{310, 39}";
type = Stem;
},
{
horizontal = 1;
place = "{381, 12}";
type = Stem;
},
{
horizontal = 1;
place = "{402, 13}";
type = Stem;
},
{
horizontal = 1;
place = "{432, 8}";
type = Stem;
},
{
horizontal = 1;
place = "{635, 11}";
type = Stem;
},
{
horizontal = 1;
place = "{658, 21}";
type = Stem;
},
{
horizontal = 1;
place = "{692, 8}";
type = Stem;
},
{
horizontal = 1;
place = "{731, 32}";
type = Stem;
},
{
horizontal = 1;
place = "{925, 15}";
type = Stem;
},
{
place = "{63, 19}";
type = Stem;
},
{
place = "{86, 15}";
type = Stem;
},
{
place = "{107, 20}";
type = Stem;
},
{
place = "{158, 41}";
type = Stem;
},
{
place = "{90, 9}";
type = Stem;
},
{
place = "{116, 13}";
type = Stem;
},
{
horizontal = 1;
place = "{343, 23}";
type = Stem;
},
{
place = "{99, 10}";
type = Stem;
},
{
place = "{124, 21}";
type = Stem;
},
{
place = "{117, 31}";
type = Stem;
}
);
layerId = "C926F53D-A7E5-453A-A1AF-2EFB3CF89CC0";
paths = (
{
closed = 1;
nodes = (
"92 -34 OFFCURVE",
"101 -26 OFFCURVE",
"107 -21 CURVE",
"137 12 OFFCURVE",
"168 45 OFFCURVE",
"175 92 CURVE SMOOTH",
"185 168 OFFCURVE",
"195 246 OFFCURVE",
"199 323 CURVE SMOOTH",
"204 418 OFFCURVE",
"201 514 OFFCURVE",
"202 608 CURVE SMOOTH",
"203 685 OFFCURVE",
"205 764 OFFCURVE",
"209 841 CURVE SMOOTH",
"210 863 OFFCURVE",
"209 888 OFFCURVE",
"216 909 CURVE SMOOTH",
"218 915 OFFCURVE",
"220 928 OFFCURVE",
"228 932 CURVE",
"228 932 OFFCURVE",
"248 938 OFFCURVE",
"250 938 CURVE SMOOTH",
"274 942 OFFCURVE",
"229 940 OFFCURVE",
"219 940 CURVE SMOOTH",
"118 934 LINE SMOOTH",
"86 931 OFFCURVE",
"58 933 OFFCURVE",
"25 923 CURVE",
"20 920 OFFCURVE",
"19 919 OFFCURVE",
"20 919 CURVE SMOOTH",
"24 919 OFFCURVE",
"38 923 OFFCURVE",
"53 923 CURVE SMOOTH",
"64 923 OFFCURVE",
"74 921 OFFCURVE",
"81 915 CURVE SMOOTH",
"98 902 OFFCURVE",
"103 884 OFFCURVE",
"105 861 CURVE SMOOTH",
"107 829 OFFCURVE",
"112 795 OFFCURVE",
"110 763 CURVE",
"104 763 OFFCURVE",
"96 761 OFFCURVE",
"94 755 CURVE",
"85 742 OFFCURVE",
"90 724 OFFCURVE",
"103 715 CURVE",
"98 709 OFFCURVE",
"92 697 OFFCURVE",
"92 689 CURVE SMOOTH",
"92 686 OFFCURVE",
"98 669 OFFCURVE",
"103 672 CURVE",
"96 666 OFFCURVE",
"87 659 OFFCURVE",
"86 649 CURVE SMOOTH",
"85 637 OFFCURVE",
"107 631 OFFCURVE",
"116 632 CURVE SMOOTH",
"114 632 OFFCURVE",
"116 611 OFFCURVE",
"116 610 CURVE SMOOTH",
"116 565 LINE SMOOTH",
"116 528 OFFCURVE",
"116 490 OFFCURVE",
"113 453 CURVE",
"97 449 OFFCURVE",
"89 428 OFFCURVE",
"96 413 CURVE",
"103 404 OFFCURVE",
"108 408 OFFCURVE",
"107 398 CURVE SMOOTH",
"107 381 OFFCURVE",
"87 370 OFFCURVE",
"109 357 CURVE",
"103 351 OFFCURVE",
"94 343 OFFCURVE",
"96 330 CURVE SMOOTH",
"98 317 OFFCURVE",
"110 311 OFFCURVE",
"124 310 CURVE",
"129 223 OFFCURVE",
"124 133 OFFCURVE",
"124 46 CURVE SMOOTH",
"124 31 OFFCURVE",
"114 10 OFFCURVE",
"106 -2 CURVE SMOOTH",
"103 -8 OFFCURVE",
"96 -16 OFFCURVE",
"89 -18 CURVE",
"79 -19 OFFCURVE",
"69 -8 OFFCURVE",
"69 1 CURVE SMOOTH",
"69 7 OFFCURVE",
"74 9 OFFCURVE",
"79 9 CURVE SMOOTH",
"86 9 OFFCURVE",
"92 5 OFFCURVE",
"87 -1 CURVE",
"81 -4 OFFCURVE",
"81 -6 OFFCURVE",
"83 -6 CURVE SMOOTH",
"89 -6 OFFCURVE",
"115 5 OFFCURVE",
"103 24 CURVE SMOOTH",
"101 27 OFFCURVE",
"99 28 OFFCURVE",
"96 28 CURVE SMOOTH",
"89 28 OFFCURVE",
"80 21 OFFCURVE",
"76 18 CURVE SMOOTH",
"61 4 OFFCURVE",
"57 -13 OFFCURVE",
"72 -28 CURVE SMOOTH",
"76 -32 OFFCURVE",
"80 -34 OFFCURVE",
"84 -34 CURVE SMOOTH"
);
},
{
closed = 1;
nodes = (
"124 335 OFFCURVE",
"143 342 OFFCURVE",
"146 343 CURVE",
"152 347 OFFCURVE",
"147 349 OFFCURVE",
"140 349 CURVE SMOOTH",
"130 349 OFFCURVE",
"117 346 OFFCURVE",
"122 339 CURVE SMOOTH"
);
},
{
closed = 1;
nodes = (
"130 380 OFFCURVE",
"145 384 OFFCURVE",
"150 389 CURVE",
"156 392 OFFCURVE",
"145 393 OFFCURVE",
"143 393 CURVE SMOOTH",
"138 394 OFFCURVE",
"131 392 OFFCURVE",
"128 389 CURVE",
"127 389 OFFCURVE",
"120 381 OFFCURVE",
"123 381 CURVE SMOOTH"
);
},
{
closed = 1;
nodes = (
"116 428 OFFCURVE",
"141 431 OFFCURVE",
"143 432 CURVE SMOOTH",
"152 436 OFFCURVE",
"147 439 OFFCURVE",
"140 440 CURVE SMOOTH",
"131 441 OFFCURVE",
"121 439 OFFCURVE",
"117 430 CURVE SMOOTH"
);
},
{
closed = 1;
nodes = (
"144 61 OFFCURVE",
"142 90 OFFCURVE",
"143 112 CURVE SMOOTH",
"145 199 LINE SMOOTH",
"145 228 OFFCURVE",
"143 255 OFFCURVE",
"144 283 CURVE SMOOTH",
"143 336 LINE",
"134 335 OFFCURVE",
"130 325 OFFCURVE",
"120 329 CURVE SMOOTH",
"110 333 OFFCURVE",
"106 341 OFFCURVE",
"112 347 CURVE",
"118 357 OFFCURVE",
"155 365 OFFCURVE",
"142 366 CURVE SMOOTH",
"130 368 OFFCURVE",
"114 358 OFFCURVE",
"111 374 CURVE SMOOTH",
"107 390 OFFCURVE",
"117 399 OFFCURVE",
"131 402 CURVE",
"133 402 OFFCURVE",
"142 401 OFFCURVE",
"143 405 CURVE",
"150 415 OFFCURVE",
"118 413 OFFCURVE",
"115 415 CURVE SMOOTH",
"109 418 OFFCURVE",
"106 428 OFFCURVE",
"109 435 CURVE SMOOTH",
"112 446 OFFCURVE",
"123 444 OFFCURVE",
"127 452 CURVE SMOOTH",
"130 460 OFFCURVE",
"129 467 OFFCURVE",
"129 475 CURVE SMOOTH",
"129 522 LINE",
"130 618 LINE SMOOTH",
"130 623 OFFCURVE",
"130 629 OFFCURVE",
"132 635 CURVE",
"132 635 OFFCURVE",
"143 647 OFFCURVE",
"141 646 CURVE",
"130 645 OFFCURVE",
"112 641 OFFCURVE",
"105 649 CURVE SMOOTH",
"96 657 OFFCURVE",
"103 661 OFFCURVE",
"108 665 CURVE",
"111 666 OFFCURVE",
"130 674 OFFCURVE",
"130 678 CURVE",
"129 681 OFFCURVE",
"120 678 OFFCURVE",
"116 679 CURVE SMOOTH",
"105 680 OFFCURVE",
"102 690 OFFCURVE",
"106 700 CURVE SMOOTH",
"109 706 OFFCURVE",
"127 713 OFFCURVE",
"120 719 CURVE SMOOTH",
"116 722 OFFCURVE",
"109 720 OFFCURVE",
"106 725 CURVE",
"103 728 OFFCURVE",
"99 734 OFFCURVE",
"99 739 CURVE SMOOTH",
"100 749 OFFCURVE",
"112 752 OFFCURVE",
"120 755 CURVE SMOOTH",
"130 760 OFFCURVE",
"128 763 OFFCURVE",
"128 773 CURVE SMOOTH",
"127 799 OFFCURVE",
"125 825 OFFCURVE",
"123 851 CURVE",
"115 889 LINE SMOOTH",
"112 900 OFFCURVE",
"106 911 OFFCURVE",
"106 922 CURVE SMOOTH",
"106 924 OFFCURVE",
"146 925 OFFCURVE",
"150 925 CURVE",
"153 911 OFFCURVE",
"150 897 OFFCURVE",
"150 881 CURVE SMOOTH",
"155 752 OFFCURVE",
"158 623 OFFCURVE",
"157 493 CURVE SMOOTH",
"156 401 OFFCURVE",
"158 308 OFFCURVE",
"158 216 CURVE SMOOTH",
"155 120 LINE SMOOTH",
"155 102 OFFCURVE",
"152 85 OFFCURVE",
"149 66 CURVE SMOOTH",
"147 58 OFFCURVE",
"141 45 OFFCURVE",
"139 36 CURVE SMOOTH"
);
},
{
closed = 1;
nodes = (
"137 658 OFFCURVE",
"149 661 OFFCURVE",
"147 666 CURVE",
"135 667 LINE SMOOTH",
"130 667 OFFCURVE",
"123 665 OFFCURVE",
"118 662 CURVE",
"117 659 OFFCURVE",
"122 658 OFFCURVE",
"128 658 CURVE SMOOTH"
);
},
{
closed = 1;
nodes = (
"135 692 OFFCURVE",
"147 696 OFFCURVE",
"146 702 CURVE SMOOTH",
"145 707 OFFCURVE",
"117 699 OFFCURVE",
"116 698 CURVE",
"116 693 OFFCURVE",
"120 692 OFFCURVE",
"126 692 CURVE SMOOTH"
);
},
{
closed = 1;
nodes = (
"140 732 OFFCURVE",
"153 736 OFFCURVE",
"146 742 CURVE SMOOTH",
"143 745 OFFCURVE",
"115 740 OFFCURVE",
"113 736 CURVE SMOOTH",
"111 729 OFFCURVE",
"132 730 OFFCURVE",
"135 731 CURVE SMOOTH"
);
}
);
width = 297;
}
);
note = I;
unicode = 0049;
},
{
glyphname = J;
lastChange = "2021-12-30 14:01:18 +0000";
layers = (
{
hints = (
{
horizontal = 1;
place = "{-138, 20}";
type = Stem;
},
{
horizontal = 1;
place = "{-107, 26}";
type = Stem;
},
{
horizontal = 1;
place = "{-69, 10}";
type = Stem;
},
{
horizontal = 1;
place = "{225, 16}";
type = Stem;
},
{
horizontal = 1;
place = "{327, 18}";
type = Stem;
},
{
horizontal = 1;
place = "{660, 9}";
type = Stem;
},
{
horizontal = 1;
place = "{707, 11}";
type = Stem;
},
{
horizontal = 1;
place = "{761, 11}";
type = Stem;
},
{
horizontal = 1;
place = "{787, 12}";
type = Stem;
},
{
horizontal = 1;
place = "{920, 12}";
type = Stem;
},
{
place = "{9, 25}";
type = Stem;
},
{
place = "{44, 13}";
type = Stem;
},
{
place = "{132, 10}";
type = Stem;
},
{
place = "{160, 13}";
type = Stem;
},
{
place = "{174, 9}";
type = Stem;
},
{
place = "{204, 46}";
type = Stem;
},
{
place = "{155, 39}";
type = Stem;
}
);
layerId = "C926F53D-A7E5-453A-A1AF-2EFB3CF89CC0";
paths = (
{
closed = 1;
nodes = (
"50 -138 OFFCURVE",
"59 -136 OFFCURVE",
"67 -133 CURVE SMOOTH",
"87 -125 LINE SMOOTH",
"111 -115 OFFCURVE",
"157 -85 OFFCURVE",
"177 -58 CURVE SMOOTH",
"194 -33 LINE SMOOTH",
"242 39 OFFCURVE",
"250 161 OFFCURVE",
"250 320 CURVE SMOOTH",
"250 391 LINE",
"252 708 LINE SMOOTH",
"252 679 OFFCURVE",
"253 757 OFFCURVE",
"256 824 CURVE SMOOTH",
"257 856 OFFCURVE",
"258 920 OFFCURVE",
"273 922 CURVE",
"273 922 OFFCURVE",
"292 929 OFFCURVE",
"318 932 CURVE SMOOTH",
"353 935 OFFCURVE",
"344 935 OFFCURVE",
"290 934 CURVE SMOOTH",
"235 933 OFFCURVE",
"191 932 OFFCURVE",
"156 932 CURVE SMOOTH",
"142 932 OFFCURVE",
"102 933 OFFCURVE",
"85 925 CURVE SMOOTH",
"69 916 OFFCURVE",
"125 925 OFFCURVE",
"132 920 CURVE",
"173 909 OFFCURVE",
"168 798 OFFCURVE",
"163 799 CURVE",
"142 787 OFFCURVE",
"136 769 OFFCURVE",
"146 747 CURVE SMOOTH",
"150 738 OFFCURVE",
"158 744 OFFCURVE",
"158 734 CURVE SMOOTH",
"158 731 OFFCURVE",
"146 723 OFFCURVE",
"146 719 CURVE",
"139 704 OFFCURVE",
"146 691 OFFCURVE",
"160 686 CURVE",
"160 686 OFFCURVE",
"135 662 OFFCURVE",
"169 644 CURVE SMOOTH",
"174 641 OFFCURVE",
"173 639 OFFCURVE",
"173 616 CURVE SMOOTH",
"173 564 OFFCURVE",
"173 521 OFFCURVE",
"174 489 CURVE SMOOTH",
"174 404 OFFCURVE",
"175 382 OFFCURVE",
"168 374 CURVE SMOOTH",
"163 368 OFFCURVE",
"153 367 OFFCURVE",
"146 364 CURVE SMOOTH",
"134 358 OFFCURVE",
"129 342 OFFCURVE",
"132 327 CURVE SMOOTH",
"133 320 OFFCURVE",
"139 317 OFFCURVE",
"142 309 CURVE",
"142 293 OFFCURVE",
"116 277 OFFCURVE",
"147 256 CURVE",
"152 250 OFFCURVE",
"117 235 OFFCURVE",
"146 202 CURVE",
"155 195 OFFCURVE",
"169 194 OFFCURVE",
"174 194 CURVE",
"175 138 LINE SMOOTH",
"177 47 OFFCURVE",
"152 -31 OFFCURVE",
"117 -81 CURVE SMOOTH",
"105 -100 OFFCURVE",
"75 -118 OFFCURVE",
"63 -118 CURVE SMOOTH",
"59 -118 OFFCURVE",
"57 -117 OFFCURVE",
"57 -113 CURVE SMOOTH",
"57 -81 OFFCURVE",
"53 -59 OFFCURVE",
"25 -59 CURVE SMOOTH",
"1 -59 OFFCURVE",
"-15 -81 OFFCURVE",
"-8 -107 CURVE SMOOTH",
"-2 -128 OFFCURVE",
"19 -138 OFFCURVE",
"41 -138 CURVE SMOOTH"
);
},
{
closed = 1;
nodes = (
"5 -118 OFFCURVE",
"1 -100 OFFCURVE",
"1 -92 CURVE SMOOTH",
"1 -86 OFFCURVE",
"8 -70 OFFCURVE",
"19 -69 CURVE",
"34 -64 OFFCURVE",
"42 -79 OFFCURVE",
"44 -92 CURVE SMOOTH",
"47 -107 OFFCURVE",
"37 -126 OFFCURVE",
"12 -120 CURVE SMOOTH"
);
},
{
closed = 1;
nodes = (
"36 -107 OFFCURVE",
"40 -81 OFFCURVE",
"25 -81 CURVE SMOOTH",
"22 -81 LINE",
"8 -89 OFFCURVE",
"1 -107 OFFCURVE",
"22 -107 CURVE SMOOTH"
);
},
{
closed = 1;
nodes = (
"183 225 OFFCURVE",
"195 227 OFFCURVE",
"195 230 CURVE SMOOTH",
"195 238 OFFCURVE",
"194 241 OFFCURVE",
"183 241 CURVE",
"142 229 OFFCURVE",
"155 225 OFFCURVE",
"172 225 CURVE SMOOTH"
);
},
{
closed = 1;
nodes = (
"212 284 OFFCURVE",
"181 299 OFFCURVE",
"163 291 CURVE SMOOTH",
"141 283 OFFCURVE",
"173 281 OFFCURVE",
"181 281 CURVE SMOOTH"
);
},
{
closed = 1;
nodes = (
"200 333 OFFCURVE",
"187 345 OFFCURVE",
"171 345 CURVE SMOOTH",
"166 345 OFFCURVE",
"161 344 OFFCURVE",
"156 342 CURVE SMOOTH",
"139 333 OFFCURVE",
"166 327 OFFCURVE",
"177 327 CURVE"
);
},
{
closed = 1;
nodes = (
"134 -76 OFFCURVE",
"135 -73 OFFCURVE",
"139 -66 CURVE SMOOTH",
"165 -10 LINE SMOOTH",
"188 40 OFFCURVE",
"194 97 OFFCURVE",
"190 207 CURVE",
"188 219 OFFCURVE",
"140 211 OFFCURVE",
"149 235 CURVE",
"153 241 OFFCURVE",
"177 248 OFFCURVE",
"173 255 CURVE SMOOTH",
"165 269 OFFCURVE",
"149 262 OFFCURVE",
"146 277 CURVE SMOOTH",
"139 301 OFFCURVE",
"173 291 OFFCURVE",
"173 309 CURVE SMOOTH",
"173 317 OFFCURVE",
"142 317 OFFCURVE",
"142 334 CURVE SMOOTH",
"142 345 OFFCURVE",
"157 350 OFFCURVE",
"166 355 CURVE SMOOTH",
"173 359 LINE SMOOTH",
"195 373 OFFCURVE",
"183 400 OFFCURVE",
"183 430 CURVE SMOOTH",
"183 619 LINE SMOOTH",
"183 626 OFFCURVE",
"187 637 OFFCURVE",
"183 644 CURVE SMOOTH",
"178 653 OFFCURVE",
"166 650 OFFCURVE",
"163 658 CURVE SMOOTH",
"157 672 OFFCURVE",
"171 679 OFFCURVE",
"183 685 CURVE SMOOTH",
"194 690 OFFCURVE",
"177 690 OFFCURVE",
"163 694 CURVE SMOOTH",
"153 697 OFFCURVE",
"153 702 OFFCURVE",
"153 713 CURVE",
"156 723 OFFCURVE",
"163 726 OFFCURVE",
"171 731 CURVE",
"202 746 OFFCURVE",
"160 749 OFFCURVE",
"153 755 CURVE SMOOTH",
"145 762 OFFCURVE",
"153 786 OFFCURVE",
"173 787 CURVE",
"186 912 OFFCURVE",
"146 920 OFFCURVE",
"166 920 CURVE SMOOTH",
"203 920 LINE SMOOTH",
"207 920 OFFCURVE",
"204 683 OFFCURVE",
"204 661 CURVE SMOOTH",
"204 620 LINE",
"205 537 LINE",
"205 496 LINE SMOOTH",
"206 383 OFFCURVE",
"209 216 OFFCURVE",
"209 215 CURVE SMOOTH",
"205 79 OFFCURVE",
"203 34 OFFCURVE",
"173 -22 CURVE SMOOTH",
"170 -29 OFFCURVE",
"138 -76 OFFCURVE",
"135 -76 CURVE SMOOTH"
);
},
{
closed = 1;
nodes = (
"188 660 OFFCURVE",
"196 662 OFFCURVE",
"198 665 CURVE",
"201 667 OFFCURVE",
"191 670 OFFCURVE",
"181 670 CURVE SMOOTH",
"174 670 OFFCURVE",
"167 668 OFFCURVE",
"166 665 CURVE SMOOTH",
"165 662 OFFCURVE",
"173 660 OFFCURVE",
"181 660 CURVE SMOOTH"
);
},
{
closed = 1;
nodes = (
"187 707 OFFCURVE",
"196 709 OFFCURVE",
"194 713 CURVE",
"191 716 OFFCURVE",
"182 718 OFFCURVE",
"174 718 CURVE SMOOTH",
"168 718 OFFCURVE",
"163 717 OFFCURVE",
"163 713 CURVE SMOOTH",
"163 709 OFFCURVE",
"171 707 OFFCURVE",
"178 707 CURVE SMOOTH"
);
},
{
closed = 1;
nodes = (
"183 761 OFFCURVE",
"194 764 OFFCURVE",
"194 767 CURVE SMOOTH",
"194 771 OFFCURVE",
"186 772 OFFCURVE",
"177 772 CURVE SMOOTH",
"169 772 OFFCURVE",
"160 771 OFFCURVE",
"160 767 CURVE SMOOTH",
"160 763 OFFCURVE",
"166 761 OFFCURVE",
"173 761 CURVE SMOOTH"
);
}
);
width = 368;
}
);
note = J;
unicode = 004A;
},
{
glyphname = K;
lastChange = "2021-12-30 14:01:18 +0000";
layers = (
{
hints = (
{
horizontal = 1;
place = "{41, 12}";
type = Stem;
},
{
horizontal = 1;
place = "{485, 88}";
type = Stem;
},
{
horizontal = 1;
place = "{926, 7}";
type = Stem;
},
{
place = "{61, 60}";
type = Stem;
},
{
place = "{132, 29}";
type = Stem;
},
{
horizontal = 1;
place = "{911, 22}";
type = Stem;
},
{
place = "{128, 27}";
type = Stem;
}
);
layerId = "C926F53D-A7E5-453A-A1AF-2EFB3CF89CC0";
paths = (
{
closed = 1;
nodes = (
"207 40 OFFCURVE",
"244 42 OFFCURVE",
"205 47 CURVE SMOOTH",
"181 50 OFFCURVE",
"176 60 OFFCURVE",
"170 85 CURVE SMOOTH",
"158 132 OFFCURVE",
"155 199 OFFCURVE",
"155 223 CURVE SMOOTH",
"155 322 OFFCURVE",
"153 511 OFFCURVE",
"172 482 CURVE",
"279 343 OFFCURVE",
"389 205 OFFCURVE",
"505 79 CURVE",
"539 47 OFFCURVE",
"517 55 OFFCURVE",
"467 47 CURVE SMOOTH",
"444 42 OFFCURVE",
"460 40 OFFCURVE",
"492 40 CURVE SMOOTH",
"549 40 OFFCURVE",
"656 45 OFFCURVE",
"704 43 CURVE",
"755 48 OFFCURVE",
"724 51 OFFCURVE",
"689 54 CURVE SMOOTH",
"663 56 OFFCURVE",
"663 64 OFFCURVE",
"643 85 CURVE",
"596 124 OFFCURVE",
"526 220 OFFCURVE",
"446 315 CURVE SMOOTH",
"263 529 LINE",
"241 552 OFFCURVE",
"245 552 OFFCURVE",
"279 589 CURVE SMOOTH",
"588 909 LINE SMOOTH",
"605 926 OFFCURVE",
"697 933 OFFCURVE",
"593 933 CURVE SMOOTH",
"488 936 OFFCURVE",
"399 936 OFFCURVE",
"441 926 CURVE",
"476 926 OFFCURVE",
"500 925 OFFCURVE",
"497 908 CURVE SMOOTH",
"494 889 OFFCURVE",
"488 879 OFFCURVE",
"366 760 CURVE SMOOTH",
"295 690 OFFCURVE",
"190 573 OFFCURVE",
"166 573 CURVE SMOOTH",
"162 573 OFFCURVE",
"161 576 OFFCURVE",
"161 582 CURVE SMOOTH",
"158 637 OFFCURVE",
"161 731 OFFCURVE",
"169 812 CURVE SMOOTH",
"170 838 OFFCURVE",
"175 879 OFFCURVE",
"185 908 CURVE SMOOTH",
"194 929 OFFCURVE",
"276 929 OFFCURVE",
"225 933 CURVE SMOOTH",
"176 935 OFFCURVE",
"178 935 OFFCURVE",
"145 933 CURVE SMOOTH",
"98 932 OFFCURVE",
"42 939 OFFCURVE",
"-3 935 CURVE SMOOTH",
"-39 932 OFFCURVE",
"8 928 OFFCURVE",
"42 925 CURVE SMOOTH",
"64 922 OFFCURVE",
"61 837 OFFCURVE",
"61 804 CURVE SMOOTH",
"61 707 OFFCURVE",
"64 610 OFFCURVE",
"60 509 CURVE SMOOTH",
"45 104 LINE SMOOTH",
"45 71 OFFCURVE",
"55 55 OFFCURVE",
"-3 53 CURVE",
"-34 45 OFFCURVE",
"77 40 OFFCURVE",
"154 40 CURVE SMOOTH"
);
},
{
closed = 1;
nodes = (
"109 68 OFFCURVE",
"120 145 OFFCURVE",
"118 158 CURVE SMOOTH",
"114 197 OFFCURVE",
"118 238 OFFCURVE",
"120 281 CURVE SMOOTH",
"121 348 OFFCURVE",
"121 416 OFFCURVE",
"121 487 CURVE SMOOTH",
"121 867 LINE SMOOTH",
"121 870 OFFCURVE",
"114 914 OFFCURVE",
"125 911 CURVE SMOOTH",
"135 908 OFFCURVE",
"131 870 OFFCURVE",
"131 864 CURVE SMOOTH",
"131 847 LINE",
"132 813 LINE",
"132 684 LINE SMOOTH",
"132 610 OFFCURVE",
"132 534 OFFCURVE",
"131 459 CURVE SMOOTH",
"129 384 OFFCURVE",
"128 313 OFFCURVE",
"128 238 CURVE SMOOTH",
"128 126 LINE SMOOTH",
"128 97 OFFCURVE",
"132 53 OFFCURVE",
"121 60 CURVE SMOOTH"
);
},
{
closed = 1;
nodes = (
"591 53 OFFCURVE",
"583 69 OFFCURVE",
"580 72 CURVE",
"572 85 OFFCURVE",
"561 97 OFFCURVE",
"552 109 CURVE SMOOTH",
"531 135 OFFCURVE",
"511 159 OFFCURVE",
"492 184 CURVE SMOOTH",
"355 350 LINE SMOOTH",
"328 381 OFFCURVE",
"303 411 OFFCURVE",
"278 443 CURVE SMOOTH",
"243 485 LINE SMOOTH",
"240 488 OFFCURVE",
"207 518 OFFCURVE",
"218 521 CURVE",
"227 526 OFFCURVE",
"248 493 OFFCURVE",
"252 488 CURVE SMOOTH",
"296 436 LINE",
"369 347 LINE SMOOTH",
"418 287 OFFCURVE",
"467 228 OFFCURVE",
"515 168 CURVE SMOOTH",
"536 143 OFFCURVE",
"556 115 OFFCURVE",
"578 90 CURVE",
"580 86 OFFCURVE",
"604 62 OFFCURVE",
"597 57 CURVE SMOOTH"
);
}
);
width = 711;
}
);
note = K;
unicode = 004B;
},
{
glyphname = L;
lastChange = "2021-12-30 14:01:18 +0000";
layers = (
{
hints = (
{
horizontal = 1;
place = "{0, 21}";
target = up;
type = BottomGhost;
},
{
horizontal = 1;
place = "{43, 19}";
type = Stem;
},
{
horizontal = 1;
place = "{84, 15}";
type = Stem;
},
{
horizontal = 1;
place = "{113, 171}";
type = Stem;
},
{
horizontal = 1;
place = "{918, 18}";
type = Stem;
},
{
place = "{102, 63}";
type = Stem;
},
{
place = "{195, 12}";
type = Stem;
},
{
place = "{251, 13}";
type = Stem;
},
{
place = "{548, 15}";
type = Stem;
},
{
horizontal = 1;
place = "{133, 13}";
type = Stem;
},
{
place = "{198, 22}";
type = Stem;
},
{
place = "{144, 24}";
type = Stem;
},
{
horizontal = 1;
place = "{43, 25}";
type = Stem;
}
);
layerId = "C926F53D-A7E5-453A-A1AF-2EFB3CF89CC0";
paths = (
{
closed = 1;
nodes = (
"560 0 OFFCURVE",
"563 38 OFFCURVE",
"563 39 CURVE SMOOTH",
"569 95 OFFCURVE",
"569 148 OFFCURVE",
"571 203 CURVE SMOOTH",
"571 218 OFFCURVE",
"569 262 OFFCURVE",
"578 272 CURVE SMOOTH",
"583 278 OFFCURVE",
"595 279 OFFCURVE",
"600 284 CURVE SMOOTH",
"605 288 OFFCURVE",
"494 286 OFFCURVE",
"487 284 CURVE SMOOTH",
"480 282 OFFCURVE",
"498 274 OFFCURVE",
"512 272 CURVE SMOOTH",
"543 269 OFFCURVE",
"548 246 OFFCURVE",
"548 180 CURVE SMOOTH",
"547 160 OFFCURVE",
"552 130 OFFCURVE",
"532 113 CURVE SMOOTH",
"512 99 OFFCURVE",
"473 101 OFFCURVE",
"449 99 CURVE SMOOTH",
"438 99 OFFCURVE",
"264 92 OFFCURVE",
"264 103 CURVE SMOOTH",
"264 133 OFFCURVE",
"257 146 OFFCURVE",
"225 146 CURVE SMOOTH",
"221 146 OFFCURVE",
"220 149 OFFCURVE",
"220 153 CURVE SMOOTH",
"220 328 OFFCURVE",
"208 501 OFFCURVE",
"207 674 CURVE SMOOTH",
"205 737 OFFCURVE",
"211 801 OFFCURVE",
"213 863 CURVE SMOOTH",
"214 921 OFFCURVE",
"246 928 OFFCURVE",
"269 932 CURVE SMOOTH",
"283 935 OFFCURVE",
"246 937 OFFCURVE",
"196 937 CURVE SMOOTH",
"115 937 OFFCURVE",
"-1 933 OFFCURVE",
"0 929 CURVE SMOOTH",
"2 917 OFFCURVE",
"64 934 OFFCURVE",
"75 897 CURVE SMOOTH",
"96 840 OFFCURVE",
"100 652 OFFCURVE",
"102 467 CURVE SMOOTH",
"102 394 OFFCURVE",
"104 320 OFFCURVE",
"106 246 CURVE SMOOTH",
"104 138 LINE SMOOTH",
"104 118 OFFCURVE",
"105 91 OFFCURVE",
"94 73 CURVE SMOOTH",
"81 51 OFFCURVE",
"53 55 OFFCURVE",
"43 47 CURVE SMOOTH",
"36 40 OFFCURVE",
"192 42 OFFCURVE",
"128 39 CURVE",
"192 40 OFFCURVE",
"311 43 OFFCURVE",
"361 43 CURVE SMOOTH",
"476 43 OFFCURVE",
"536 47 OFFCURVE",
"545 35 CURVE SMOOTH",
"560 16 OFFCURVE",
"550 0 OFFCURVE",
"558 0 CURVE SMOOTH"
);
},
{
closed = 1;
nodes = (
"164 58 OFFCURVE",
"168 80 OFFCURVE",
"168 98 CURVE SMOOTH",
"168 130 OFFCURVE",
"165 161 OFFCURVE",
"165 192 CURVE SMOOTH",
"165 377 LINE SMOOTH",
"165 477 OFFCURVE",
"171 538 OFFCURVE",
"166 638 CURVE SMOOTH",
"163 702 OFFCURVE",
"164 801 OFFCURVE",
"164 864 CURVE SMOOTH",
"164 877 OFFCURVE",
"160 907 OFFCURVE",
"166 915 CURVE SMOOTH",
"169 919 OFFCURVE",
"190 918 OFFCURVE",
"198 918 CURVE SMOOTH",
"203 918 OFFCURVE",
"204 920 OFFCURVE",
"204 915 CURVE SMOOTH",
"189 746 OFFCURVE",
"197 562 OFFCURVE",
"195 388 CURVE SMOOTH",
"195 310 OFFCURVE",
"198 231 OFFCURVE",
"198 148 CURVE SMOOTH",
"198 130 OFFCURVE",
"189 95 OFFCURVE",
"216 87 CURVE",
"226 86 OFFCURVE",
"238 88 OFFCURVE",
"243 98 CURVE SMOOTH",
"251 113 OFFCURVE",
"221 103 OFFCURVE",
"216 114 CURVE",
"214 123 OFFCURVE",
"218 130 OFFCURVE",
"222 133 CURVE",
"229 136 OFFCURVE",
"235 136 OFFCURVE",
"241 133 CURVE SMOOTH",
"256 125 OFFCURVE",
"253 106 OFFCURVE",
"251 91 CURVE",
"245 84 OFFCURVE",
"287 85 OFFCURVE",
"305 85 CURVE SMOOTH",
"322 85 OFFCURVE",
"339 84 OFFCURVE",
"392 84 CURVE SMOOTH",
"447 84 OFFCURVE",
"514 79 OFFCURVE",
"532 91 CURVE SMOOTH",
"540 97 OFFCURVE",
"552 124 OFFCURVE",
"550 108 CURVE",
"550 85 OFFCURVE",
"553 62 OFFCURVE",
"541 62 CURVE SMOOTH",
"493 66 OFFCURVE",
"448 68 OFFCURVE",
"401 68 CURVE SMOOTH",
"372 68 OFFCURVE",
"343 67 OFFCURVE",
"313 65 CURVE SMOOTH",
"273 62 OFFCURVE",
"234 63 OFFCURVE",
"178 59 CURVE SMOOTH"
);
}
);
width = 600;
}
);
note = L;
unicode = 004C;
},
{
glyphname = M;
lastChange = "2021-12-30 14:01:18 +0000";
layers = (
{
hints = (
{
horizontal = 1;
place = "{-746, 37}";
type = Stem;
},
{
horizontal = 1;
place = "{-672, 23}";
type = Stem;
},
{
horizontal = 1;
place = "{-512, 21}";
type = Stem;
},
{
horizontal = 1;
place = "{26, 13}";
type = Stem;
},
{
horizontal = 1;
place = "{48, 42}";
type = Stem;
},
{
horizontal = 1;
place = "{510, 16}";
type = Stem;
},
{
horizontal = 1;
place = "{597, 16}";
type = Stem;
},
{
horizontal = 1;
place = "{811, 40}";
type = Stem;
},
{
horizontal = 1;
place = "{880, 72}";
type = Stem;
},
{
horizontal = 1;
place = "{961, 19}";
type = Stem;
},
{
place = "{10, 58}";
type = Stem;
},
{
place = "{120, 18}";
type = Stem;
},
{
place = "{395, 35}";
type = Stem;
},
{
place = "{475, 14}";
type = Stem;
},
{
place = "{543, 11}";
type = Stem;
},
{
place = "{570, 93}";
type = Stem;
},
{
place = "{693, 11}";
type = Stem;
},
{
place = "{779, 33}";
type = Stem;
},
{
place = "{1293, 56}";
type = Stem;
},
{
place = "{1398, 93}";
type = Stem;
},
{
horizontal = 1;
place = "{-530, 20}";
type = Stem;
},
{
horizontal = 1;
place = "{887, 56}";
type = Stem;
},
{
place = "{545, 22}";
type = Stem;
},
{
horizontal = 1;
place = "{818, 29}";
type = Stem;
},
{
place = "{608, 49}";
type = Stem;
}
);
layerId = "C926F53D-A7E5-453A-A1AF-2EFB3CF89CC0";
paths = (
{
closed = 1;
nodes = (
"466 -746 OFFCURVE",
"476 -744 OFFCURVE",
"487 -738 CURVE SMOOTH",
"548 -710 OFFCURVE",
"585 -665 OFFCURVE",
"603 -603 CURVE SMOOTH",
"615 -562 OFFCURVE",
"636 -497 OFFCURVE",
"674 -474 CURVE",
"682 -500 OFFCURVE",
"688 -520 OFFCURVE",
"717 -518 CURVE SMOOTH",
"746 -516 OFFCURVE",
"763 -500 OFFCURVE",
"775 -476 CURVE SMOOTH",
"798 -433 OFFCURVE",
"797 -393 OFFCURVE",
"757 -362 CURVE",
"890 -286 LINE SMOOTH",
"1026 -208 OFFCURVE",
"1162 -122 OFFCURVE",
"1261 0 CURVE SMOOTH",
"1345 107 OFFCURVE",
"1425 212 OFFCURVE",
"1445 350 CURVE SMOOTH",
"1454 416 OFFCURVE",
"1452 485 OFFCURVE",
"1440 549 CURVE SMOOTH",
"1411 698 OFFCURVE",
"1325 821 OFFCURVE",
"1170 871 CURVE SMOOTH",
"1101 893 OFFCURVE",
"1029 905 OFFCURVE",
"955 905 CURVE SMOOTH",
"869 905 OFFCURVE",
"775 889 OFFCURVE",
"700 847 CURVE SMOOTH",
"694 843 OFFCURVE",
"705 911 OFFCURVE",
"674 925 CURVE SMOOTH",
"663 930 OFFCURVE",
"649 933 OFFCURVE",
"637 933 CURVE SMOOTH",
"589 933 OFFCURVE",
"530 904 OFFCURVE",
"530 849 CURVE SMOOTH",
"530 847 OFFCURVE",
"529 846 OFFCURVE",
"528 846 CURVE SMOOTH",
"515 846 OFFCURVE",
"469 884 OFFCURVE",
"419 893 CURVE SMOOTH",
"404 896 OFFCURVE",
"387 897 OFFCURVE",
"371 897 CURVE SMOOTH",
"302 897 OFFCURVE",
"232 871 OFFCURVE",
"172 828 CURVE SMOOTH",
"96 775 OFFCURVE",
"49 688 OFFCURVE",
"32 606 CURVE SMOOTH",
"3 471 OFFCURVE",
"-4 339 OFFCURVE",
"47 203 CURVE SMOOTH",
"86 105 OFFCURVE",
"167 25 OFFCURVE",
"277 25 CURVE SMOOTH",
"314 25 OFFCURVE",
"353 34 OFFCURVE",
"389 43 CURVE SMOOTH",
"412 50 OFFCURVE",
"438 53 OFFCURVE",
"460 63 CURVE SMOOTH",
"477 72 OFFCURVE",
"527 108 OFFCURVE",
"521 108 CURVE SMOOTH",
"520 108 OFFCURVE",
"516 107 OFFCURVE",
"510 103 CURVE",
"492 95 LINE SMOOTH",
"473 87 OFFCURVE",
"435 84 OFFCURVE",
"409 84 CURVE SMOOTH",
"375 84 OFFCURVE",
"342 84 OFFCURVE",
"312 95 CURVE SMOOTH",
"250 121 OFFCURVE",
"207 169 OFFCURVE",
"181 228 CURVE SMOOTH",
"116 379 OFFCURVE",
"123 533 OFFCURVE",
"189 681 CURVE SMOOTH",
"217 743 OFFCURVE",
"272 777 OFFCURVE",
"331 777 CURVE SMOOTH",
"370 777 OFFCURVE",
"412 761 OFFCURVE",
"446 730 CURVE SMOOTH",
"475 704 OFFCURVE",
"514 678 OFFCURVE",
"533 642 CURVE SMOOTH",
"549 610 OFFCURVE",
"549 566 OFFCURVE",
"551 522 CURVE SMOOTH",
"560 339 OFFCURVE",
"548 245 OFFCURVE",
"546 217 CURVE SMOOTH",
"542 175 OFFCURVE",
"536 129 OFFCURVE",
"525 89 CURVE SMOOTH",
"514 45 LINE SMOOTH",
"511 35 OFFCURVE",
"511 21 OFFCURVE",
"500 14 CURVE SMOOTH",
"488 7 OFFCURVE",
"475 9 OFFCURVE",
"465 0 CURVE",
"480 -5 OFFCURVE",
"496 2 OFFCURVE",
"511 5 CURVE SMOOTH",
"545 12 OFFCURVE",
"582 0 OFFCURVE",
"617 2 CURVE SMOOTH",
"683 5 LINE SMOOTH",
"697 6 OFFCURVE",
"710 5 OFFCURVE",
"726 7 CURVE SMOOTH",
"739 9 LINE",
"745 12 OFFCURVE",
"745 17 OFFCURVE",
"735 17 CURVE SMOOTH",
"710 17 LINE SMOOTH",
"700 17 OFFCURVE",
"689 16 OFFCURVE",
"679 21 CURVE",
"660 34 OFFCURVE",
"659 66 OFFCURVE",
"655 86 CURVE SMOOTH",
"631 201 OFFCURVE",
"650 543 OFFCURVE",
"696 609 CURVE SMOOTH",
"730 661 OFFCURVE",
"751 722 OFFCURVE",
"810 745 CURVE SMOOTH",
"849 761 OFFCURVE",
"888 769 OFFCURVE",
"926 769 CURVE SMOOTH",
"1038 769 OFFCURVE",
"1143 703 OFFCURVE",
"1203 598 CURVE SMOOTH",
"1293 444 OFFCURVE",
"1258 286 OFFCURVE",
"1198 132 CURVE SMOOTH",
"1145 5 OFFCURVE",
"1052 -94 OFFCURVE",
"947 -180 CURVE SMOOTH",
"819 -287 OFFCURVE",
"667 -353 OFFCURVE",
"528 -435 CURVE SMOOTH",
"432 -494 OFFCURVE",
"370 -588 OFFCURVE",
"387 -679 CURVE SMOOTH",
"394 -718 OFFCURVE",
"422 -746 OFFCURVE",
"455 -746 CURVE SMOOTH"
);
},
{
closed = 1;
nodes = (
"478 -710 OFFCURVE",
"466 -707 OFFCURVE",
"455 -700 CURVE SMOOTH",
"423 -681 OFFCURVE",
"405 -614 OFFCURVE",
"429 -586 CURVE SMOOTH",
"443 -568 OFFCURVE",
"453 -536 OFFCURVE",
"481 -536 CURVE SMOOTH",
"487 -536 OFFCURVE",
"493 -537 OFFCURVE",
"500 -540 CURVE SMOOTH",
"547 -557 OFFCURVE",
"528 -612 OFFCURVE",
"501 -639 CURVE SMOOTH",
"493 -646 OFFCURVE",
"485 -652 OFFCURVE",
"481 -652 CURVE SMOOTH",
"476 -652 OFFCURVE",
"474 -646 OFFCURVE",
"475 -630 CURVE",
"468 -639 OFFCURVE",
"457 -659 OFFCURVE",
"465 -667 CURVE SMOOTH",
"469 -672 OFFCURVE",
"472 -675 OFFCURVE",
"477 -675 CURVE SMOOTH",
"500 -675 OFFCURVE",
"528 -615 OFFCURVE",
"530 -606 CURVE",
"547 -558 OFFCURVE",
"571 -518 OFFCURVE",
"599 -477 CURVE SMOOTH",
"621 -444 OFFCURVE",
"683 -378 OFFCURVE",
"726 -388 CURVE SMOOTH",
"751 -394 OFFCURVE",
"761 -433 OFFCURVE",
"757 -457 CURVE SMOOTH",
"754 -479 OFFCURVE",
"735 -499 OFFCURVE",
"717 -499 CURVE SMOOTH",
"707 -499 OFFCURVE",
"698 -495 OFFCURVE",
"691 -484 CURVE SMOOTH",
"672 -457 OFFCURVE",
"701 -423 OFFCURVE",
"695 -430 CURVE SMOOTH",
"688 -438 OFFCURVE",
"694 -437 OFFCURVE",
"671 -462 CURVE SMOOTH",
"661 -474 OFFCURVE",
"646 -481 OFFCURVE",
"636 -495 CURVE",
"610 -524 OFFCURVE",
"593 -561 OFFCURVE",
"584 -601 CURVE",
"569 -646 OFFCURVE",
"547 -710 OFFCURVE",
"490 -710 CURVE SMOOTH"
);
},
{
closed = 1;
nodes = (
"536 -520 OFFCURVE",
"523 -516 OFFCURVE",
"509 -516 CURVE SMOOTH",
"492 -516 OFFCURVE",
"477 -528 OFFCURVE",
"463 -530 CURVE",
"472 -501 OFFCURVE",
"498 -484 OFFCURVE",
"521 -469 CURVE SMOOTH",
"540 -457 LINE SMOOTH",
"594 -423 OFFCURVE",
"637 -391 OFFCURVE",
"702 -381 CURVE",
"648 -397 OFFCURVE",
"605 -454 OFFCURVE",
"572 -497 CURVE SMOOTH",
"538 -537 LINE"
);
},
{
closed = 1;
nodes = (
"115 75 OFFCURVE",
"66 301 OFFCURVE",
"66 432 CURVE SMOOTH",
"65 472 LINE",
"68 474 OFFCURVE",
"84 476 OFFCURVE",
"97 476 CURVE SMOOTH",
"106 476 OFFCURVE",
"114 475 OFFCURVE",
"114 472 CURVE SMOOTH",
"114 453 OFFCURVE",
"115 432 OFFCURVE",
"116 413 CURVE SMOOTH",
"119 337 LINE SMOOTH",
"123 233 OFFCURVE",
"159 167 OFFCURVE",
"235 97 CURVE SMOOTH",
"258 75 OFFCURVE",
"312 67 OFFCURVE",
"274 67 CURVE"
);
},
{
closed = 1;
nodes = (
"69 491 OFFCURVE",
"64 492 OFFCURVE",
"64 494 CURVE SMOOTH",
"64 518 OFFCURVE",
"65 540 OFFCURVE",
"69 564 CURVE",
"116 561 LINE SMOOTH",
"119 561 OFFCURVE",
"111 500 OFFCURVE",
"111 494 CURVE",
"108 494 OFFCURVE",
"87 491 OFFCURVE",
"75 491 CURVE SMOOTH"
);
},
{
closed = 1;
nodes = (
"114 576 OFFCURVE",
"69 576 OFFCURVE",
"70 578 CURVE SMOOTH",
"85 616 LINE SMOOTH",
"104 660 OFFCURVE",
"95 656 OFFCURVE",
"141 724 CURVE SMOOTH",
"184 787 OFFCURVE",
"208 808 OFFCURVE",
"259 826 CURVE SMOOTH",
"286 836 OFFCURVE",
"316 843 OFFCURVE",
"345 843 CURVE SMOOTH",
"373 843 OFFCURVE",
"401 837 OFFCURVE",
"425 821 CURVE SMOOTH",
"512 768 OFFCURVE",
"545 709 OFFCURVE",
"535 709 CURVE SMOOTH",
"534 709 OFFCURVE",
"530 711 OFFCURVE",
"527 715 CURVE",
"486 743 LINE SMOOTH",
"441 777 OFFCURVE",
"390 803 OFFCURVE",
"336 803 CURVE SMOOTH",
"255 803 OFFCURVE",
"182 738 OFFCURVE",
"149 670 CURVE SMOOTH",
"141 651 OFFCURVE",
"136 635 OFFCURVE",
"131 616 CURVE SMOOTH",
"119 576 LINE"
);
},
{
closed = 1;
nodes = (
"733 -339 OFFCURVE",
"863 -267 OFFCURVE",
"909 -235 CURVE SMOOTH",
"1030 -149 OFFCURVE",
"1143 -28 OFFCURVE",
"1219 99 CURVE SMOOTH",
"1286 212 OFFCURVE",
"1325 333 OFFCURVE",
"1312 465 CURVE SMOOTH",
"1309 498 OFFCURVE",
"1298 529 OFFCURVE",
"1284 557 CURVE SMOOTH",
"1264 591 LINE SMOOTH",
"1258 600 OFFCURVE",
"1251 611 OFFCURVE",
"1246 625 CURVE",
"1287 646 LINE",
"1299 639 OFFCURVE",
"1314 598 OFFCURVE",
"1320 586 CURVE SMOOTH",
"1347 519 OFFCURVE",
"1369 443 OFFCURVE",
"1360 368 CURVE SMOOTH",
"1349 283 LINE SMOOTH",
"1341 224 OFFCURVE",
"1320 171 OFFCURVE",
"1291 121 CURVE SMOOTH",
"1262 70 OFFCURVE",
"1221 30 OFFCURVE",
"1185 -15 CURVE SMOOTH",
"1128 -88 OFFCURVE",
"1051 -155 OFFCURVE",
"970 -206 CURVE SMOOTH",
"946 -220 OFFCURVE",
"744 -339 OFFCURVE",
"735 -339 CURVE SMOOTH"
);
},
{
closed = 1;
nodes = (
"588 737 OFFCURVE",
"587 757 OFFCURVE",
"582 771 CURVE",
"563 803 LINE SMOOTH",
"550 828 OFFCURVE",
"545 858 OFFCURVE",
"558 882 CURVE SMOOTH",
"572 908 OFFCURVE",
"601 914 OFFCURVE",
"630 914 CURVE SMOOTH",
"654 914 OFFCURVE",
"675 892 OFFCURVE",
"682 866 CURVE SMOOTH",
"691 831 OFFCURVE",
"659 822 OFFCURVE",
"639 801 CURVE SMOOTH",
"616 779 OFFCURVE",
"600 726 OFFCURVE",
"595 731 CURVE SMOOTH"
);
},
{
closed = 1;
nodes = (
"637 817 OFFCURVE",
"655 870 OFFCURVE",
"612 877 CURVE SMOOTH",
"603 878 OFFCURVE",
"591 870 OFFCURVE",
"591 864 CURVE SMOOTH",
"591 837 OFFCURVE",
"618 823 OFFCURVE",
"622 822 CURVE SMOOTH"
);
},
{
closed = 1;
nodes = (
"677 675 OFFCURVE",
"675 651 OFFCURVE",
"683 684 CURVE SMOOTH",
"688 704 OFFCURVE",
"691 724 OFFCURVE",
"697 742 CURVE SMOOTH",
"710 774 OFFCURVE",
"739 795 OFFCURVE",
"768 813 CURVE SMOOTH",
"801 832 OFFCURVE",
"834 829 OFFCURVE",
"869 833 CURVE SMOOTH",
"886 835 OFFCURVE",
"904 836 OFFCURVE",
"920 836 CURVE SMOOTH",
"942 836 OFFCURVE",
"965 834 OFFCURVE",
"986 831 CURVE SMOOTH",
"1056 822 OFFCURVE",
"1122 783 OFFCURVE",
"1183 755 CURVE SMOOTH",
"1193 751 OFFCURVE",
"1231 740 OFFCURVE",
"1223 736 CURVE SMOOTH",
"1209 728 OFFCURVE",
"1191 713 OFFCURVE",
"1180 709 CURVE SMOOTH",
"1172 706 OFFCURVE",
"1161 718 OFFCURVE",
"1144 730 CURVE SMOOTH",
"1094 766 LINE SMOOTH",
"1042 801 OFFCURVE",
"957 807 OFFCURVE",
"896 807 CURVE SMOOTH",
"781 807 OFFCURVE",
"734 770 OFFCURVE",
"695 668 CURVE SMOOTH",
"686 646 OFFCURVE",
"655 560 OFFCURVE",
"659 580 CURVE SMOOTH"
);
},
{
closed = 1;
nodes = (
"1194 691 LINE SMOOTH",
"1190 696 OFFCURVE",
"1187 691 OFFCURVE",
"1236 722 CURVE SMOOTH",
"1241 725 OFFCURVE",
"1270 675 OFFCURVE",
"1278 665 CURVE",
"1236 638 LINE"
);
}
);
width = 1456;
}
);
note = M;
unicode = 004D;
},
{
glyphname = N;
lastChange = "2021-12-30 14:01:18 +0000";
layers = (
{
layerId = "C926F53D-A7E5-453A-A1AF-2EFB3CF89CC0";
paths = (
{
closed = 1;
nodes = (
"86 -588 OFFCURVE",
"106 -550 OFFCURVE",
"111 -526 CURVE SMOOTH",
"116 -500 OFFCURVE",
"115 -473 OFFCURVE",
"122 -447 CURVE SMOOTH",
"147 -350 LINE SMOOTH",
"153 -327 OFFCURVE",
"151 -303 OFFCURVE",
"156 -280 CURVE SMOOTH",
"163 -246 OFFCURVE",
"163 -210 OFFCURVE",
"168 -176 CURVE SMOOTH",
"176 -119 OFFCURVE",
"187 -61 OFFCURVE",
"191 -4 CURVE SMOOTH",
"197 83 LINE SMOOTH",
"199 106 OFFCURVE",
"207 128 OFFCURVE",
"209 152 CURVE SMOOTH",
"212 187 OFFCURVE",
"211 221 OFFCURVE",
"209 254 CURVE SMOOTH",
"207 287 OFFCURVE",
"218 326 OFFCURVE",
"220 358 CURVE SMOOTH",
"222 384 OFFCURVE",
"227 409 OFFCURVE",
"227 438 CURVE",
"246 431 OFFCURVE",
"239 464 OFFCURVE",
"234 469 CURVE",
"258 465 OFFCURVE",
"247 494 OFFCURVE",
"239 505 CURVE",
"251 505 OFFCURVE",
"264 512 OFFCURVE",
"265 524 CURVE SMOOTH",
"266 533 OFFCURVE",
"262 546 OFFCURVE",
"255 551 CURVE",
"262 563 OFFCURVE",
"271 572 OFFCURVE",
"278 583 CURVE SMOOTH",
"299 616 LINE SMOOTH",
"302 620 OFFCURVE",
"306 629 OFFCURVE",
"311 630 CURVE SMOOTH",
"319 632 OFFCURVE",
"330 623 OFFCURVE",
"338 623 CURVE SMOOTH",
"343 623 OFFCURVE",
"347 626 OFFCURVE",
"349 634 CURVE SMOOTH",
"352 645 OFFCURVE",
"347 646 OFFCURVE",
"355 644 CURVE SMOOTH",
"360 643 OFFCURVE",
"366 641 OFFCURVE",
"371 646 CURVE SMOOTH",
"374 649 OFFCURVE",
"374 659 OFFCURVE",
"380 661 CURVE SMOOTH",
"387 663 OFFCURVE",
"388 660 OFFCURVE",
"395 660 CURVE SMOOTH",
"402 660 OFFCURVE",
"408 665 OFFCURVE",
"412 671 CURVE SMOOTH",
"419 681 OFFCURVE",
"424 677 OFFCURVE",
"435 673 CURVE SMOOTH",
"438 672 OFFCURVE",
"457 665 OFFCURVE",
"457 667 CURVE",
"477 662 OFFCURVE",
"496 656 OFFCURVE",
"508 644 CURVE SMOOTH",
"541 611 OFFCURVE",
"555 564 OFFCURVE",
"575 524 CURVE SMOOTH",
"577 520 OFFCURVE",
"581 510 OFFCURVE",
"580 504 CURVE SMOOTH",
"579 499 OFFCURVE",
"571 499 OFFCURVE",
"569 495 CURVE SMOOTH",
"567 490 OFFCURVE",
"565 483 OFFCURVE",
"568 478 CURVE SMOOTH",
"573 470 LINE SMOOTH",
"575 467 OFFCURVE",
"580 470 OFFCURVE",
"582 468 CURVE SMOOTH",
"583 467 OFFCURVE",
"578 460 OFFCURVE",
"578 457 CURVE SMOOTH",
"578 452 OFFCURVE",
"578 446 OFFCURVE",
"582 439 CURVE SMOOTH",
"584 436 OFFCURVE",
"588 434 OFFCURVE",
"593 434 CURVE",
"592 418 OFFCURVE",
"588 402 OFFCURVE",
"608 398 CURVE SMOOTH",
"617 396 OFFCURVE",
"622 376 OFFCURVE",
"624 369 CURVE SMOOTH",
"630 348 LINE",
"640 307 LINE",
"646 286 LINE",
"664 227 LINE SMOOTH",
"670 208 OFFCURVE",
"676 192 OFFCURVE",
"682 179 CURVE",
"677 170 OFFCURVE",
"682 141 OFFCURVE",
"699 147 CURVE",
"699 141 OFFCURVE",
"693 137 OFFCURVE",
"699 131 CURVE SMOOTH",
"703 127 OFFCURVE",
"708 125 OFFCURVE",
"713 128 CURVE",
"722 125 OFFCURVE",
"719 112 OFFCURVE",
"732 115 CURVE SMOOTH",
"736 116 OFFCURVE",
"734 122 OFFCURVE",
"741 118 CURVE SMOOTH",
"746 115 OFFCURVE",
"751 111 OFFCURVE",
"757 111 CURVE SMOOTH",
"766 111 OFFCURVE",
"778 110 OFFCURVE",
"789 115 CURVE SMOOTH",
"793 117 OFFCURVE",
"800 123 OFFCURVE",
"803 127 CURVE SMOOTH",
"816 142 LINE SMOOTH",
"819 145 OFFCURVE",
"813 133 OFFCURVE",
"813 130 CURVE SMOOTH",
"813 125 OFFCURVE",
"811 122 OFFCURVE",
"810 115 CURVE SMOOTH",
"806 94 LINE SMOOTH",
"804 83 OFFCURVE",
"800 74 OFFCURVE",
"792 66 CURVE SMOOTH",
"788 62 OFFCURVE",
"772 55 OFFCURVE",
"772 52 CURVE SMOOTH",
"772 42 OFFCURVE",
"822 48 OFFCURVE",
"828 49 CURVE SMOOTH",
"855 52 LINE SMOOTH",
"869 54 OFFCURVE",
"883 50 OFFCURVE",
"896 52 CURVE SMOOTH",
"902 53 OFFCURVE",
"918 52 OFFCURVE",
"920 60 CURVE",
"918 64 LINE",
"915 67 OFFCURVE",
"903 69 OFFCURVE",
"900 69 CURVE",
"894 97 OFFCURVE",
"893 125 OFFCURVE",
"892 156 CURVE SMOOTH",
"891 190 OFFCURVE",
"890 224 OFFCURVE",
"888 260 CURVE SMOOTH",
"883 353 LINE SMOOTH",
"879 419 OFFCURVE",
"877 486 OFFCURVE",
"876 554 CURVE SMOOTH",
"873 715 LINE",
"871 789 LINE SMOOTH",
"870 824 OFFCURVE",
"871 861 OFFCURVE",
"871 895 CURVE SMOOTH",
"871 900 OFFCURVE",
"871 920 OFFCURVE",
"874 922 CURVE SMOOTH",
"878 924 OFFCURVE",
"917 943 OFFCURVE",
"911 944 CURVE SMOOTH",
"860 953 OFFCURVE",
"804 938 OFFCURVE",
"754 938 CURVE SMOOTH",
"745 938 OFFCURVE",
"693 941 OFFCURVE",
"691 926 CURVE SMOOTH",
"691 923 OFFCURVE",
"707 921 OFFCURVE",
"725 921 CURVE SMOOTH",
"743 921 OFFCURVE",
"762 923 OFFCURVE",
"765 925 CURVE",
"765 909 OFFCURVE",
"770 896 OFFCURVE",
"770 880 CURVE SMOOTH",
"770 867 OFFCURVE",
"772 853 OFFCURVE",
"773 839 CURVE SMOOTH",
"776 800 OFFCURVE",
"783 763 OFFCURVE",
"784 726 CURVE SMOOTH",
"785 699 LINE SMOOTH",
"785 692 OFFCURVE",
"787 668 OFFCURVE",
"800 673 CURVE SMOOTH",
"811 677 OFFCURVE",
"784 667 OFFCURVE",
"780 656 CURVE SMOOTH",
"776 644 OFFCURVE",
"773 631 OFFCURVE",
"784 624 CURVE SMOOTH",
"787 622 OFFCURVE",
"795 612 OFFCURVE",
"799 616 CURVE SMOOTH",
"809 626 OFFCURVE",
"779 589 OFFCURVE",
"785 572 CURVE SMOOTH",
"788 563 OFFCURVE",
"795 556 OFFCURVE",
"803 551 CURVE",
"799 550 OFFCURVE",
"796 546 OFFCURVE",
"792 541 CURVE SMOOTH",
"784 530 OFFCURVE",
"780 498 OFFCURVE",
"801 501 CURVE",
"804 462 OFFCURVE",
"807 422 OFFCURVE",
"807 383 CURVE SMOOTH",
"807 343 LINE SMOOTH",
"807 328 OFFCURVE",
"810 306 OFFCURVE",
"806 289 CURVE",
"797 289 OFFCURVE",
"779 288 OFFCURVE",
"773 280 CURVE SMOOTH",
"771 277 OFFCURVE",
"797 281 OFFCURVE",
"801 281 CURVE SMOOTH",
"812 281 OFFCURVE",
"825 281 OFFCURVE",
"837 284 CURVE SMOOTH",
"844 286 OFFCURVE",
"844 289 OFFCURVE",
"846 295 CURVE SMOOTH",
"847 298 OFFCURVE",
"845 295 OFFCURVE",
"842 291 CURVE SMOOTH",
"838 286 OFFCURVE",
"824 289 OFFCURVE",
"818 289 CURVE",
"814 301 OFFCURVE",
"818 313 OFFCURVE",
"818 325 CURVE SMOOTH",
"818 337 OFFCURVE",
"817 351 OFFCURVE",
"816 365 CURVE SMOOTH",
"813 440 LINE SMOOTH",
"812 457 OFFCURVE",
"810 473 OFFCURVE",
"810 487 CURVE SMOOTH",
"810 494 OFFCURVE",
"813 498 OFFCURVE",
"813 502 CURVE SMOOTH",
"813 503 OFFCURVE",
"822 512 OFFCURVE",
"818 512 CURVE SMOOTH",
"801 512 OFFCURVE",
"787 514 OFFCURVE",
"797 534 CURVE SMOOTH",
"802 544 OFFCURVE",
"816 543 OFFCURVE",
"819 551 CURVE SMOOTH",
"823 563 OFFCURVE",
"812 561 OFFCURVE",
"806 563 CURVE SMOOTH",
"799 565 OFFCURVE",
"792 571 OFFCURVE",
"790 577 CURVE SMOOTH",
"786 588 OFFCURVE",
"793 600 OFFCURVE",
"800 605 CURVE SMOOTH",
"810 612 OFFCURVE",
"822 615 OFFCURVE",
"819 626 CURVE",
"804 627 OFFCURVE",
"794 621 OFFCURVE",
"789 637 CURVE SMOOTH",
"785 649 OFFCURVE",
"789 659 OFFCURVE",
"799 664 CURVE SMOOTH",
"805 667 OFFCURVE",
"819 667 OFFCURVE",
"818 676 CURVE",
"796 673 OFFCURVE",
"798 682 OFFCURVE",
"796 704 CURVE SMOOTH",
"793 734 LINE SMOOTH",
"791 755 OFFCURVE",
"792 771 OFFCURVE",
"790 791 CURVE SMOOTH",
"787 819 OFFCURVE",
"781 847 OFFCURVE",
"781 876 CURVE SMOOTH",
"781 882 OFFCURVE",
"773 920 OFFCURVE",
"780 922 CURVE SMOOTH",
"793 926 OFFCURVE",
"804 928 OFFCURVE",
"819 926 CURVE",
"822 915 OFFCURVE",
"823 906 OFFCURVE",
"824 892 CURVE SMOOTH",
"830 811 LINE SMOOTH",
"835 743 OFFCURVE",
"834 675 OFFCURVE",
"834 610 CURVE SMOOTH",
"834 543 OFFCURVE",
"837 478 OFFCURVE",
"842 411 CURVE SMOOTH",
"848 322 LINE",
"854 237 LINE SMOOTH",
"856 203 OFFCURVE",
"855 171 OFFCURVE",
"855 137 CURVE SMOOTH",
"855 118 OFFCURVE",
"861 86 OFFCURVE",
"853 69 CURVE SMOOTH",
"845 53 OFFCURVE",
"811 67 OFFCURVE",
"797 60 CURVE SMOOTH",
"795 59 OFFCURVE",
"801 66 OFFCURVE",
"803 67 CURVE SMOOTH",
"809 70 OFFCURVE",
"812 73 OFFCURVE",
"813 81 CURVE SMOOTH",
"815 99 OFFCURVE",
"821 117 OFFCURVE",
"821 137 CURVE SMOOTH",
"821 156 OFFCURVE",
"822 176 OFFCURVE",
"822 193 CURVE SMOOTH",
"822 196 OFFCURVE",
"818 241 OFFCURVE",
"821 241 CURVE SMOOTH",
"830 241 OFFCURVE",
"848 238 OFFCURVE",
"848 249 CURVE SMOOTH",
"848 254 LINE",
"842 249 OFFCURVE",
"836 246 OFFCURVE",
"828 247 CURVE SMOOTH",
"818 248 OFFCURVE",
"813 252 OFFCURVE",
"806 249 CURVE SMOOTH",
"799 246 OFFCURVE",
"770 244 OFFCURVE",
"773 233 CURVE",
"781 236 OFFCURVE",
"787 237 OFFCURVE",
"797 238 CURVE",
"801 226 OFFCURVE",
"799 207 OFFCURVE",
"799 193 CURVE SMOOTH",
"799 190 OFFCURVE",
"796 185 OFFCURVE",
"792 181 CURVE",
"792 181 OFFCURVE",
"780 176 OFFCURVE",
"780 177 CURVE SMOOTH",
"780 203 OFFCURVE",
"780 216 OFFCURVE",
"751 211 CURVE",
"741 227 OFFCURVE",
"729 241 OFFCURVE",
"723 260 CURVE SMOOTH",
"720 270 LINE",
"718 269 OFFCURVE",
"720 269 OFFCURVE",
"716 284 CURVE",
"738 284 OFFCURVE",
"732 322 OFFCURVE",
"708 320 CURVE",
"711 323 LINE",
"714 329 OFFCURVE",
"716 341 OFFCURVE",
"713 346 CURVE SMOOTH",
"708 355 OFFCURVE",
"700 351 OFFCURVE",
"697 359 CURVE SMOOTH",
"696 362 OFFCURVE",
"706 369 OFFCURVE",
"699 376 CURVE SMOOTH",
"695 380 OFFCURVE",
"691 387 OFFCURVE",
"684 391 CURVE",
"674 393 OFFCURVE",
"677 418 OFFCURVE",
"676 425 CURVE SMOOTH",
"671 458 OFFCURVE",
"660 492 OFFCURVE",
"651 525 CURVE SMOOTH",
"644 550 OFFCURVE",
"636 572 OFFCURVE",
"630 595 CURVE SMOOTH",
"618 641 OFFCURVE",
"602 693 OFFCURVE",
"566 722 CURVE SMOOTH",
"555 731 OFFCURVE",
"541 731 OFFCURVE",
"530 738 CURVE SMOOTH",
"522 743 OFFCURVE",
"519 757 OFFCURVE",
"510 755 CURVE SMOOTH",
"506 754 OFFCURVE",
"496 740 OFFCURVE",
"496 738 CURVE SMOOTH",
"496 721 OFFCURVE",
"486 776 OFFCURVE",
"470 760 CURVE SMOOTH",
"469 759 OFFCURVE",
"457 748 OFFCURVE",
"457 746 CURVE SMOOTH",
"457 744 OFFCURVE",
"457 742 OFFCURVE",
"456 741 CURVE",
"467 741 OFFCURVE",
"464 757 OFFCURVE",
"477 756 CURVE SMOOTH",
"487 755 OFFCURVE",
"487 728 OFFCURVE",
"489 720 CURVE",
"504 720 OFFCURVE",
"497 743 OFFCURVE",
"511 743 CURVE SMOOTH",
"527 743 OFFCURVE",
"515 731 OFFCURVE",
"521 723 CURVE",
"525 725 OFFCURVE",
"527 728 OFFCURVE",
"527 730 CURVE",
"577 727 OFFCURVE",
"600 660 OFFCURVE",
"611 619 CURVE SMOOTH",
"624 572 LINE SMOOTH",
"631 546 OFFCURVE",
"639 520 OFFCURVE",
"646 492 CURVE SMOOTH",
"659 440 LINE SMOOTH",
"662 428 OFFCURVE",
"672 411 OFFCURVE",
"667 399 CURVE SMOOTH",
"665 394 OFFCURVE",
"663 387 OFFCURVE",
"664 384 CURVE SMOOTH",
"666 378 OFFCURVE",
"676 385 OFFCURVE",
"681 384 CURVE SMOOTH",
"689 382 OFFCURVE",
"691 377 OFFCURVE",
"691 371 CURVE SMOOTH",
"691 369 OFFCURVE",
"684 351 OFFCURVE",
"689 350 CURVE SMOOTH",
"694 349 OFFCURVE",
"699 342 OFFCURVE",
"702 337 CURVE SMOOTH",
"710 324 OFFCURVE",
"682 322 OFFCURVE",
"707 312 CURVE SMOOTH",
"722 306 OFFCURVE",
"719 291 OFFCURVE",
"704 289 CURVE",
"704 280 OFFCURVE",
"734 204 OFFCURVE",
"748 202 CURVE SMOOTH",
"759 200 OFFCURVE",
"766 213 OFFCURVE",
"773 195 CURVE SMOOTH",
"776 187 OFFCURVE",
"772 179 OFFCURVE",
"770 170 CURVE SMOOTH",
"769 167 OFFCURVE",
"771 166 OFFCURVE",
"774 166 CURVE SMOOTH",
"781 166 OFFCURVE",
"796 175 OFFCURVE",
"797 177 CURVE SMOOTH",
"802 192 OFFCURVE",
"804 213 OFFCURVE",
"804 227 CURVE SMOOTH",
"804 230 OFFCURVE",
"799 233 OFFCURVE",
"803 237 CURVE SMOOTH",
"805 239 OFFCURVE",
"813 241 OFFCURVE",
"813 238 CURVE SMOOTH",
"816 187 LINE SMOOTH",
"817 176 OFFCURVE",
"810 166 OFFCURVE",
"801 160 CURVE SMOOTH",
"795 156 OFFCURVE",
"789 154 OFFCURVE",
"783 154 CURVE SMOOTH",
"770 154 OFFCURVE",
"757 164 OFFCURVE",
"746 174 CURVE SMOOTH",
"725 193 OFFCURVE",
"713 226 OFFCURVE",
"703 249 CURVE SMOOTH",
"692 275 OFFCURVE",
"688 306 OFFCURVE",
"679 333 CURVE SMOOTH",
"670 359 OFFCURVE",
"661 384 OFFCURVE",
"652 411 CURVE SMOOTH",
"640 446 OFFCURVE",
"639 479 OFFCURVE",
"629 512 CURVE SMOOTH",
"613 566 OFFCURVE",
"605 626 OFFCURVE",
"566 670 CURVE SMOOTH",
"552 686 OFFCURVE",
"533 696 OFFCURVE",
"512 701 CURVE SMOOTH",
"484 708 OFFCURVE",
"454 711 OFFCURVE",
"425 709 CURVE SMOOTH",
"347 704 OFFCURVE",
"290 654 OFFCURVE",
"251 589 CURVE SMOOTH",
"248 584 OFFCURVE",
"246 580 OFFCURVE",
"243 579 CURVE",
"255 595 OFFCURVE",
"256 624 OFFCURVE",
"265 644 CURVE SMOOTH",
"284 687 OFFCURVE",
"332 716 OFFCURVE",
"376 726 CURVE SMOOTH",
"408 733 LINE SMOOTH",
"412 734 OFFCURVE",
"417 733 OFFCURVE",
"422 737 CURVE SMOOTH",
"425 739 OFFCURVE",
"425 742 OFFCURVE",
"429 745 CURVE SMOOTH",
"434 748 LINE",
"430 749 OFFCURVE",
"426 750 OFFCURVE",
"423 748 CURVE SMOOTH",
"415 743 OFFCURVE",
"408 743 OFFCURVE",
"403 742 CURVE SMOOTH",
"372 734 LINE SMOOTH",
"360 731 OFFCURVE",
"351 725 OFFCURVE",
"338 720 CURVE SMOOTH",
"311 710 OFFCURVE",
"290 692 OFFCURVE",
"275 668 CURVE SMOOTH",
"272 663 OFFCURVE",
"266 649 OFFCURVE",
"259 649 CURVE SMOOTH",
"258 649 OFFCURVE",
"252 652 OFFCURVE",
"250 652 CURVE SMOOTH",
"244 652 OFFCURVE",
"237 650 OFFCURVE",
"235 649 CURVE SMOOTH",
"224 644 OFFCURVE",
"211 612 OFFCURVE",
"211 623 CURVE SMOOTH",
"214 690 LINE SMOOTH",
"215 714 OFFCURVE",
"224 906 OFFCURVE",
"234 918 CURVE SMOOTH",
"240 925 OFFCURVE",
"251 925 OFFCURVE",
"255 933 CURVE",
"203 920 OFFCURVE",
"145 933 OFFCURVE",
"93 926 CURVE SMOOTH",
"63 922 OFFCURVE",
"31 926 OFFCURVE",
"0 925 CURVE",
"-3 906 OFFCURVE",
"59 911 OFFCURVE",
"70 909 CURVE SMOOTH",
"75 908 OFFCURVE",
"89 911 OFFCURVE",
"93 908 CURVE SMOOTH",
"102 902 OFFCURVE",
"99 884 OFFCURVE",
"99 875 CURVE SMOOTH",
"99 819 OFFCURVE",
"94 764 OFFCURVE",
"93 711 CURVE SMOOTH",
"92 665 LINE SMOOTH",
"92 657 OFFCURVE",
"95 649 OFFCURVE",
"93 641 CURVE SMOOTH",
"90 630 OFFCURVE",
"87 623 OFFCURVE",
"84 613 CURVE SMOOTH",
"79 595 OFFCURVE",
"87 591 OFFCURVE",
"93 577 CURVE SMOOTH",
"96 570 OFFCURVE",
"94 575 OFFCURVE",
"93 568 CURVE SMOOTH",
"92 563 OFFCURVE",
"90 557 OFFCURVE",
"89 550 CURVE SMOOTH",
"88 541 OFFCURVE",
"89 533 OFFCURVE",
"96 525 CURVE SMOOTH",
"101 519 OFFCURVE",
"108 520 OFFCURVE",
"104 508 CURVE SMOOTH",
"102 502 OFFCURVE",
"98 499 OFFCURVE",
"95 492 CURVE SMOOTH",
"88 476 OFFCURVE",
"95 472 OFFCURVE",
"104 460 CURVE SMOOTH",
"114 447 OFFCURVE",
"107 424 OFFCURVE",
"107 406 CURVE SMOOTH",
"107 265 LINE SMOOTH",
"107 257 OFFCURVE",
"106 248 OFFCURVE",
"108 240 CURVE SMOOTH",
"110 230 LINE SMOOTH",
"111 226 OFFCURVE",
"116 226 OFFCURVE",
"116 221 CURVE",
"99 216 OFFCURVE",
"87 181 OFFCURVE",
"110 174 CURVE",
"110 167 OFFCURVE",
"100 160 OFFCURVE",
"100 152 CURVE SMOOTH",
"100 139 OFFCURVE",
"110 142 OFFCURVE",
"114 134 CURVE",
"108 127 OFFCURVE",
"98 118 OFFCURVE",
"96 107 CURVE SMOOTH",
"94 94 OFFCURVE",
"101 85 OFFCURVE",
"115 80 CURVE SMOOTH",
"124 77 OFFCURVE",
"116 43 OFFCURVE",
"115 38 CURVE SMOOTH",
"111 16 OFFCURVE",
"110 -2 OFFCURVE",
"110 -23 CURVE SMOOTH",
"110 -45 OFFCURVE",
"104 -68 OFFCURVE",
"100 -93 CURVE SMOOTH",
"97 -114 OFFCURVE",
"99 -135 OFFCURVE",
"98 -155 CURVE SMOOTH",
"95 -205 LINE",
"90 -272 LINE SMOOTH",
"87 -306 OFFCURVE",
"89 -342 OFFCURVE",
"87 -378 CURVE SMOOTH",
"86 -396 OFFCURVE",
"87 -413 OFFCURVE",
"87 -434 CURVE SMOOTH",
"87 -450 OFFCURVE",
"87 -469 OFFCURVE",
"75 -484 CURVE SMOOTH",
"61 -501 OFFCURVE",
"35 -516 OFFCURVE",
"33 -539 CURVE SMOOTH",
"32 -549 OFFCURVE",
"33 -568 OFFCURVE",
"41 -577 CURVE SMOOTH",
"48 -585 OFFCURVE",
"56 -588 OFFCURVE",
"62 -588 CURVE SMOOTH"
);
},
{
closed = 1;
nodes = (
"81 -564 OFFCURVE",
"80 -551 OFFCURVE",
"73 -551 CURVE SMOOTH",
"64 -551 OFFCURVE",
"69 -565 OFFCURVE",
"74 -565 CURVE SMOOTH"
);
},
{
closed = 1;
nodes = (
"53 -578 OFFCURVE",
"42 -536 OFFCURVE",
"50 -522 CURVE SMOOTH",
"54 -515 OFFCURVE",
"61 -501 OFFCURVE",
"73 -506 CURVE SMOOTH",
"78 -508 OFFCURVE",
"78 -524 OFFCURVE",
"74 -530 CURVE SMOOTH",
"70 -536 OFFCURVE",
"64 -532 OFFCURVE",
"60 -536 CURVE SMOOTH",
"58 -538 OFFCURVE",
"54 -546 OFFCURVE",
"61 -547 CURVE SMOOTH",
"75 -549 OFFCURVE",
"77 -533 OFFCURVE",
"81 -524 CURVE SMOOTH",
"84 -517 OFFCURVE",
"88 -508 OFFCURVE",
"89 -498 CURVE SMOOTH",
"92 -463 LINE SMOOTH",
"93 -447 OFFCURVE",
"92 -431 OFFCURVE",
"93 -413 CURVE SMOOTH",
"96 -362 LINE SMOOTH",
"98 -320 OFFCURVE",
"100 -275 OFFCURVE",
"104 -230 CURVE SMOOTH",
"105 -224 OFFCURVE",
"105 -219 OFFCURVE",
"105 -213 CURVE SMOOTH",
"106 -180 LINE SMOOTH",
"106 -174 OFFCURVE",
"107 -169 OFFCURVE",
"107 -163 CURVE SMOOTH",
"113 -100 LINE SMOOTH",
"117 -61 OFFCURVE",
"113 -21 OFFCURVE",
"122 16 CURVE SMOOTH",
"125 29 OFFCURVE",
"124 88 OFFCURVE",
"137 90 CURVE",
"133 100 OFFCURVE",
"105 78 OFFCURVE",
"105 102 CURVE SMOOTH",
"105 111 OFFCURVE",
"113 122 OFFCURVE",
"118 125 CURVE SMOOTH",
"124 129 OFFCURVE",
"136 127 OFFCURVE",
"133 137 CURVE",
"122 139 LINE",
"118 139 OFFCURVE",
"116 141 OFFCURVE",
"114 145 CURVE SMOOTH",
"110 154 OFFCURVE",
"108 159 OFFCURVE",
"115 166 CURVE SMOOTH",
"120 171 OFFCURVE",
"127 179 OFFCURVE",
"116 181 CURVE SMOOTH",
"92 185 OFFCURVE",
"107 207 OFFCURVE",
"124 214 CURVE SMOOTH",
"129 216 OFFCURVE",
"144 216 OFFCURVE",
"144 224 CURVE SMOOTH",
"144 230 OFFCURVE",
"137 227 OFFCURVE",
"133 227 CURVE SMOOTH",
"102 227 OFFCURVE",
"116 288 OFFCURVE",
"116 310 CURVE SMOOTH",
"116 331 OFFCURVE",
"144 325 OFFCURVE",
"159 325 CURVE",
"159 238 LINE SMOOTH",
"159 195 OFFCURVE",
"160 152 OFFCURVE",
"155 110 CURVE SMOOTH",
"154 101 OFFCURVE",
"144 -2 OFFCURVE",
"147 19 CURVE SMOOTH",
"159 105 OFFCURVE",
"126 -149 OFFCURVE",
"124 -235 CURVE SMOOTH",
"123 -283 OFFCURVE",
"121 -329 OFFCURVE",
"114 -375 CURVE SMOOTH",
"112 -388 OFFCURVE",
"110 -398 OFFCURVE",
"110 -411 CURVE SMOOTH",
"110 -425 OFFCURVE",
"105 -440 OFFCURVE",
"104 -456 CURVE SMOOTH",
"102 -481 OFFCURVE",
"104 -501 OFFCURVE",
"99 -523 CURVE SMOOTH",
"93 -549 LINE SMOOTH",
"91 -559 OFFCURVE",
"83 -578 OFFCURVE",
"71 -578 CURVE SMOOTH"
);
},
{
closed = 1;
nodes = (
"122 106 OFFCURVE",
"151 110 OFFCURVE",
"151 111 CURVE SMOOTH",
"151 115 LINE",
"145 117 OFFCURVE",
"133 116 OFFCURVE",
"127 115 CURVE SMOOTH",
"122 114 OFFCURVE",
"108 109 OFFCURVE",
"118 107 CURVE SMOOTH"
);
},
{
closed = 1;
nodes = (
"124 146 OFFCURVE",
"151 150 OFFCURVE",
"151 152 CURVE SMOOTH",
"151 159 LINE",
"145 160 OFFCURVE",
"133 160 OFFCURVE",
"127 160 CURVE SMOOTH",
"122 160 OFFCURVE",
"107 154 OFFCURVE",
"116 150 CURVE SMOOTH"
);
},
{
closed = 1;
nodes = (
"123 189 OFFCURVE",
"151 195 OFFCURVE",
"151 196 CURVE SMOOTH",
"151 203 LINE",
"145 205 OFFCURVE",
"133 205 OFFCURVE",
"127 205 CURVE SMOOTH",
"122 205 OFFCURVE",
"107 198 OFFCURVE",
"116 193 CURVE SMOOTH"
);
},
{
closed = 1;
nodes = (
"116 371 LINE",
"129 371 OFFCURVE",
"145 373 OFFCURVE",
"157 371 CURVE",
"160 361 OFFCURVE",
"157 344 OFFCURVE",
"156 336 CURVE",
"141 334 LINE SMOOTH",
"129 332 OFFCURVE",
"116 333 OFFCURVE",
"116 334 CURVE SMOOTH"
);
},
{
closed = 1;
nodes = (
"129 489 OFFCURVE",
"146 497 OFFCURVE",
"148 501 CURVE SMOOTH",
"153 510 OFFCURVE",
"141 504 OFFCURVE",
"136 502 CURVE SMOOTH",
"130 500 OFFCURVE",
"113 498 OFFCURVE",
"114 492 CURVE",
"115 490 OFFCURVE",
"117 489 OFFCURVE",
"120 489 CURVE SMOOTH"
);
},
{
closed = 1;
nodes = (
"223 457 LINE",
"223 462 OFFCURVE",
"220 465 OFFCURVE",
"215 465 CURVE",
"218 458 LINE",
"219 458 LINE",
"222 457 LINE"
);
},
{
closed = 1;
nodes = (
"122 550 OFFCURVE",
"136 554 OFFCURVE",
"141 557 CURVE SMOOTH",
"151 563 OFFCURVE",
"151 571 OFFCURVE",
"141 571 CURVE SMOOTH",
"137 571 LINE SMOOTH",
"129 571 OFFCURVE",
"114 565 OFFCURVE",
"110 561 CURVE SMOOTH",
"103 554 OFFCURVE",
"105 550 OFFCURVE",
"115 550 CURVE SMOOTH"
);
},
{
closed = 1;
nodes = (
"114 381 OFFCURVE",
"116 387 OFFCURVE",
"116 398 CURVE SMOOTH",
"116 434 LINE SMOOTH",
"116 440 OFFCURVE",
"114 450 OFFCURVE",
"119 455 CURVE SMOOTH",
"122 458 OFFCURVE",
"130 460 OFFCURVE",
"136 464 CURVE SMOOTH",
"142 468 OFFCURVE",
"156 478 OFFCURVE",
"141 481 CURVE SMOOTH",
"130 483 OFFCURVE",
"127 470 OFFCURVE",
"121 468 CURVE SMOOTH",
"113 465 OFFCURVE",
"104 470 OFFCURVE",
"101 479 CURVE SMOOTH",
"98 489 OFFCURVE",
"108 499 OFFCURVE",
"113 507 CURVE SMOOTH",
"117 514 OFFCURVE",
"136 522 OFFCURVE",
"125 530 CURVE SMOOTH",
"121 533 OFFCURVE",
"114 531 OFFCURVE",
"110 533 CURVE SMOOTH",
"105 536 OFFCURVE",
"101 538 OFFCURVE",
"100 545 CURVE SMOOTH",
"99 555 OFFCURVE",
"98 567 OFFCURVE",
"108 572 CURVE SMOOTH",
"112 574 OFFCURVE",
"152 587 OFFCURVE",
"133 600 CURVE SMOOTH",
"127 604 OFFCURVE",
"125 594 OFFCURVE",
"122 591 CURVE SMOOTH",
"118 587 OFFCURVE",
"112 584 OFFCURVE",
"107 584 CURVE SMOOTH",
"102 584 OFFCURVE",
"98 587 OFFCURVE",
"95 592 CURVE SMOOTH",
"89 603 OFFCURVE",
"97 624 OFFCURVE",
"105 632 CURVE SMOOTH",
"109 636 OFFCURVE",
"115 634 OFFCURVE",
"119 638 CURVE SMOOTH",
"122 641 OFFCURVE",
"130 652 OFFCURVE",
"127 650 CURVE SMOOTH",
"122 646 OFFCURVE",
"114 644 OFFCURVE",
"108 646 CURVE SMOOTH",
"104 647 OFFCURVE",
"100 652 OFFCURVE",
"100 657 CURVE SMOOTH",
"100 665 OFFCURVE",
"104 676 OFFCURVE",
"104 686 CURVE SMOOTH",
"105 714 LINE SMOOTH",
"105 725 OFFCURVE",
"104 738 OFFCURVE",
"105 751 CURVE SMOOTH",
"106 766 OFFCURVE",
"108 767 OFFCURVE",
"121 767 CURVE SMOOTH",
"124 767 OFFCURVE",
"160 766 OFFCURVE",
"160 767 CURVE SMOOTH",
"162 753 OFFCURVE",
"159 738 OFFCURVE",
"160 723 CURVE SMOOTH",
"162 682 LINE SMOOTH",
"164 632 OFFCURVE",
"160 583 OFFCURVE",
"159 534 CURVE SMOOTH",
"158 484 OFFCURVE",
"149 432 OFFCURVE",
"159 383 CURVE SMOOTH",
"160 378 OFFCURVE",
"127 381 OFFCURVE",
"125 381 CURVE SMOOTH"
);
},
{
closed = 1;
nodes = (
"234 489 LINE",
"231 489 OFFCURVE",
"228 490 OFFCURVE",
"227 490 CURVE",
"225 487 OFFCURVE",
"228 486 OFFCURVE",
"231 484 CURVE"
);
},
{
closed = 1;
nodes = (
"122 604 OFFCURVE",
"131 610 OFFCURVE",
"138 610 CURVE SMOOTH",
"141 610 OFFCURVE",
"144 609 OFFCURVE",
"145 605 CURVE SMOOTH",
"146 602 OFFCURVE",
"150 610 OFFCURVE",
"150 612 CURVE SMOOTH",
"150 616 OFFCURVE",
"148 618 OFFCURVE",
"145 620 CURVE SMOOTH",
"141 623 OFFCURVE",
"135 621 OFFCURVE",
"129 619 CURVE",
"134 621 OFFCURVE",
"139 624 OFFCURVE",
"141 627 CURVE SMOOTH",
"148 641 OFFCURVE",
"150 645 OFFCURVE",
"147 659 CURVE",
"144 662 LINE SMOOTH",
"137 669 OFFCURVE",
"129 668 OFFCURVE",
"124 668 CURVE SMOOTH",
"121 668 OFFCURVE",
"108 667 OFFCURVE",
"105 665 CURVE SMOOTH",
"97 660 OFFCURVE",
"115 660 OFFCURVE",
"118 660 CURVE SMOOTH",
"125 660 OFFCURVE",
"136 660 OFFCURVE",
"141 652 CURVE SMOOTH",
"153 632 OFFCURVE",
"119 626 OFFCURVE",
"110 619 CURVE SMOOTH",
"97 609 OFFCURVE",
"105 597 OFFCURVE",
"119 603 CURVE SMOOTH"
);
},
{
closed = 1;
nodes = (
"247 527 OFFCURVE",
"251 530 OFFCURVE",
"250 534 CURVE",
"247 534 OFFCURVE",
"246 533 OFFCURVE",
"244 531 CURVE SMOOTH",
"240 528 LINE"
);
},
{
closed = 1;
nodes = (
"202 484 OFFCURVE",
"207 546 OFFCURVE",
"207 565 CURVE SMOOTH",
"207 581 OFFCURVE",
"209 626 OFFCURVE",
"227 635 CURVE SMOOTH",
"234 638 OFFCURVE",
"244 649 OFFCURVE",
"251 645 CURVE SMOOTH",
"258 641 OFFCURVE",
"252 623 OFFCURVE",
"251 618 CURVE SMOOTH",
"249 609 OFFCURVE",
"247 597 OFFCURVE",
"244 588 CURVE SMOOTH",
"241 579 OFFCURVE",
"235 572 OFFCURVE",
"231 565 CURVE SMOOTH",
"220 546 OFFCURVE",
"210 525 OFFCURVE",
"206 504 CURVE SMOOTH"
);
},
{
closed = 1;
nodes = (
"223 568 OFFCURVE",
"234 623 OFFCURVE",
"228 621 CURVE SMOOTH",
"218 618 OFFCURVE",
"214 571 OFFCURVE",
"220 563 CURVE"
);
},
{
closed = 1;
nodes = (
"694 165 OFFCURVE",
"697 170 OFFCURVE",
"697 174 CURVE",
"692 167 LINE SMOOTH",
"691 165 OFFCURVE",
"691 164 OFFCURVE",
"691 162 CURVE"
);
},
{
closed = 1;
nodes = (
"694 171 LINE",
"693 170 OFFCURVE",
"692 168 OFFCURVE",
"692 167 CURVE"
);
},
{
closed = 1;
nodes = (
"728 131 OFFCURVE",
"732 134 OFFCURVE",
"732 139 CURVE",
"726 139 LINE",
"725 130 LINE"
);
},
{
closed = 1;
nodes = (
"754 119 OFFCURVE",
"745 123 OFFCURVE",
"744 127 CURVE SMOOTH",
"742 142 LINE",
"734 141 OFFCURVE",
"737 133 OFFCURVE",
"734 128 CURVE SMOOTH",
"732 125 OFFCURVE",
"730 116 OFFCURVE",
"723 123 CURVE SMOOTH",
"720 126 OFFCURVE",
"723 136 OFFCURVE",
"723 139 CURVE SMOOTH",
"723 142 OFFCURVE",
"726 152 OFFCURVE",
"720 154 CURVE",
"720 149 OFFCURVE",
"714 132 OFFCURVE",
"707 132 CURVE SMOOTH",
"706 132 OFFCURVE",
"704 133 OFFCURVE",
"702 136 CURVE SMOOTH",
"696 145 OFFCURVE",
"718 151 OFFCURVE",
"708 163 CURVE",
"704 160 OFFCURVE",
"702 152 OFFCURVE",
"697 152 CURVE SMOOTH",
"676 152 OFFCURVE",
"691 177 OFFCURVE",
"689 184 CURVE SMOOTH",
"688 190 OFFCURVE",
"686 195 OFFCURVE",
"684 201 CURVE SMOOTH",
"671 235 LINE SMOOTH",
"669 241 OFFCURVE",
"668 247 OFFCURVE",
"666 252 CURVE SMOOTH",
"645 329 LINE",
"633 371 LINE",
"626 397 LINE SMOOTH",
"621 414 OFFCURVE",
"608 402 OFFCURVE",
"600 411 CURVE SMOOTH",
"594 418 OFFCURVE",
"598 425 OFFCURVE",
"602 429 CURVE SMOOTH",
"618 442 LINE",
"609 442 OFFCURVE",
"595 438 OFFCURVE",
"588 443 CURVE SMOOTH",
"579 450 OFFCURVE",
"586 462 OFFCURVE",
"592 467 CURVE",
"600 467 OFFCURVE",
"598 472 OFFCURVE",
"592 473 CURVE SMOOTH",
"582 475 OFFCURVE",
"578 476 OFFCURVE",
"580 486 CURVE SMOOTH",
"582 495 OFFCURVE",
"595 496 OFFCURVE",
"595 505 CURVE SMOOTH",
"595 517 OFFCURVE",
"583 536 OFFCURVE",
"581 545 CURVE SMOOTH",
"574 575 OFFCURVE",
"559 604 OFFCURVE",
"541 627 CURVE SMOOTH",
"520 653 OFFCURVE",
"477 674 OFFCURVE",
"445 679 CURVE SMOOTH",
"434 681 OFFCURVE",
"415 686 OFFCURVE",
"406 682 CURVE",
"408 676 OFFCURVE",
"406 667 OFFCURVE",
"398 667 CURVE SMOOTH",
"393 667 OFFCURVE",
"374 673 OFFCURVE",
"374 670 CURVE SMOOTH",
"374 664 OFFCURVE",
"374 656 OFFCURVE",
"368 650 CURVE SMOOTH",
"366 648 OFFCURVE",
"352 650 OFFCURVE",
"345 653 CURVE",
"347 644 OFFCURVE",
"345 628 OFFCURVE",
"333 629 CURVE SMOOTH",
"324 630 OFFCURVE",
"327 637 OFFCURVE",
"321 638 CURVE SMOOTH",
"307 640 OFFCURVE",
"283 602 OFFCURVE",
"278 594 CURVE SMOOTH",
"251 553 LINE",
"247 549 OFFCURVE",
"258 534 OFFCURVE",
"255 528 CURVE SMOOTH",
"252 522 OFFCURVE",
"244 522 OFFCURVE",
"237 517 CURVE SMOOTH",
"219 504 OFFCURVE",
"247 491 OFFCURVE",
"237 476 CURVE SMOOTH",
"235 473 OFFCURVE",
"221 481 OFFCURVE",
"220 483 CURVE SMOOTH",
"217 488 OFFCURVE",
"223 469 OFFCURVE",
"223 469 CURVE",
"228 462 OFFCURVE",
"230 457 OFFCURVE",
"234 452 CURVE",
"231 443 LINE",
"223 447 OFFCURVE",
"218 449 OFFCURVE",
"211 449 CURVE",
"212 442 OFFCURVE",
"218 442 OFFCURVE",
"220 437 CURVE SMOOTH",
"222 431 OFFCURVE",
"218 421 OFFCURVE",
"218 415 CURVE SMOOTH",
"214 359 LINE SMOOTH",
"212 330 OFFCURVE",
"203 244 OFFCURVE",
"204 272 CURVE SMOOTH",
"206 344 LINE SMOOTH",
"207 371 OFFCURVE",
"203 399 OFFCURVE",
"204 426 CURVE SMOOTH",
"205 450 OFFCURVE",
"203 478 OFFCURVE",
"212 499 CURVE SMOOTH",
"219 516 OFFCURVE",
"227 533 OFFCURVE",
"237 548 CURVE SMOOTH",
"252 570 OFFCURVE",
"264 595 OFFCURVE",
"278 618 CURVE SMOOTH",
"293 643 OFFCURVE",
"319 667 OFFCURVE",
"349 673 CURVE SMOOTH",
"381 680 OFFCURVE",
"408 689 OFFCURVE",
"438 689 CURVE SMOOTH",
"492 689 OFFCURVE",
"529 659 OFFCURVE",
"563 619 CURVE SMOOTH",
"593 583 OFFCURVE",
"602 543 OFFCURVE",
"612 501 CURVE SMOOTH",
"622 460 OFFCURVE",
"635 420 OFFCURVE",
"650 381 CURVE SMOOTH",
"677 309 LINE SMOOTH",
"686 286 OFFCURVE",
"688 262 OFFCURVE",
"696 240 CURVE SMOOTH",
"707 210 OFFCURVE",
"741 144 OFFCURVE",
"779 144 CURVE SMOOTH",
"784 144 OFFCURVE",
"790 146 OFFCURVE",
"795 150 CURVE SMOOTH",
"806 159 LINE SMOOTH",
"810 162 OFFCURVE",
"813 167 OFFCURVE",
"816 173 CURVE",
"816 163 OFFCURVE",
"819 153 OFFCURVE",
"813 147 CURVE",
"813 147 OFFCURVE",
"812 146 OFFCURVE",
"812 145 CURVE",
"810 141 LINE",
"810 140 OFFCURVE",
"810 140 OFFCURVE",
"809 139 CURVE SMOOTH",
"800 131 LINE SMOOTH",
"788 121 OFFCURVE",
"773 114 OFFCURVE",
"758 118 CURVE SMOOTH"
);
},
{
closed = 1;
nodes = (
"105 774 OFFCURVE",
"108 808 OFFCURVE",
"108 811 CURVE",
"130 811 LINE",
"162 810 LINE",
"163 799 OFFCURVE",
"160 791 OFFCURVE",
"162 780 CURVE",
"157 769 OFFCURVE",
"115 774 OFFCURVE",
"107 774 CURVE SMOOTH"
);
},
{
closed = 1;
nodes = (
"765 188 OFFCURVE",
"772 186 OFFCURVE",
"766 192 CURVE SMOOTH",
"764 194 OFFCURVE",
"762 192 OFFCURVE",
"759 195 CURVE SMOOTH",
"757 197 OFFCURVE",
"754 194 OFFCURVE",
"758 192 CURVE SMOOTH",
"762 190 LINE SMOOTH"
);
},
{
closed = 1;
nodes = (
"333 641 OFFCURVE",
"333 646 OFFCURVE",
"327 647 CURVE",
"324 644 OFFCURVE",
"327 638 OFFCURVE",
"333 637 CURVE"
);
},
{
closed = 1;
nodes = (
"345 657 OFFCURVE",
"343 659 OFFCURVE",
"342 656 CURVE",
"341 655 OFFCURVE",
"343 654 OFFCURVE",
"345 653 CURVE"
);
},
{
closed = 1;
nodes = (
"699 299 OFFCURVE",
"707 297 OFFCURVE",
"705 304 CURVE",
"704 304 OFFCURVE",
"702 306 OFFCURVE",
"699 303 CURVE SMOOTH",
"696 299 LINE"
);
},
{
closed = 1;
nodes = (
"110 829 OFFCURVE",
"109 842 OFFCURVE",
"110 854 CURVE SMOOTH",
"113 896 LINE SMOOTH",
"114 911 OFFCURVE",
"116 911 OFFCURVE",
"129 912 CURVE SMOOTH",
"141 913 OFFCURVE",
"154 911 OFFCURVE",
"165 909 CURVE SMOOTH",
"170 908 OFFCURVE",
"166 869 OFFCURVE",
"166 865 CURVE SMOOTH",
"166 864 OFFCURVE",
"168 841 OFFCURVE",
"165 829 CURVE SMOOTH",
"163 822 LINE",
"151 822 OFFCURVE",
"137 823 OFFCURVE",
"125 821 CURVE SMOOTH",
"108 818 LINE"
);
},
{
closed = 1;
nodes = (
"358 665 LINE",
"357 666 OFFCURVE",
"357 668 OFFCURVE",
"354 662 CURVE",
"357 660 OFFCURVE",
"360 659 OFFCURVE",
"361 659 CURVE"
);
},
{
closed = 1;
nodes = (
"694 331 OFFCURVE",
"694 339 OFFCURVE",
"691 339 CURVE",
"688 336 LINE"
);
},
{
closed = 1;
nodes = (
"611 419 OFFCURVE",
"618 422 OFFCURVE",
"622 426 CURVE",
"618 429 OFFCURVE",
"616 432 OFFCURVE",
"608 424 CURVE SMOOTH",
"603 419 LINE"
);
},
{
closed = 1;
nodes = (
"678 368 OFFCURVE",
"684 369 OFFCURVE",
"685 373 CURVE",
"681 374 LINE",
"679 371 OFFCURVE",
"678 373 OFFCURVE",
"677 373 CURVE",
"674 369 LINE"
);
},
{
closed = 1;
nodes = (
"606 455 OFFCURVE",
"610 458 OFFCURVE",
"614 464 CURVE",
"607 462 OFFCURVE",
"601 464 OFFCURVE",
"597 457 CURVE SMOOTH",
"595 454 OFFCURVE",
"596 453 OFFCURVE",
"601 454 CURVE SMOOTH"
);
},
{
closed = 1;
nodes = (
"401 675 LINE",
"399 678 OFFCURVE",
"398 678 OFFCURVE",
"395 678 CURVE",
"395 678 OFFCURVE",
"392 678 OFFCURVE",
"392 675 CURVE"
);
},
{
closed = 1;
nodes = (
"782 254 OFFCURVE",
"795 265 OFFCURVE",
"804 265 CURVE SMOOTH",
"812 265 LINE SMOOTH",
"819 265 OFFCURVE",
"828 260 OFFCURVE",
"837 263 CURVE SMOOTH",
"840 264 OFFCURVE",
"853 275 OFFCURVE",
"846 275 CURVE SMOOTH",
"842 275 OFFCURVE",
"842 272 OFFCURVE",
"837 270 CURVE SMOOTH",
"823 264 OFFCURVE",
"806 272 OFFCURVE",
"793 272 CURVE SMOOTH",
"791 272 OFFCURVE",
"773 263 OFFCURVE",
"774 262 CURVE SMOOTH"
);
},
{
closed = 1;
nodes = (
"595 476 OFFCURVE",
"603 478 OFFCURVE",
"606 484 CURVE",
"600 486 OFFCURVE",
"597 483 OFFCURVE",
"593 481 CURVE SMOOTH",
"588 479 LINE"
);
},
{
closed = 1;
nodes = (
"441 728 OFFCURVE",
"441 738 OFFCURVE",
"441 741 CURVE",
"438 742 LINE",
"435 737 OFFCURVE",
"434 731 OFFCURVE",
"434 726 CURVE"
);
},
{
closed = 1;
nodes = (
"451 741 OFFCURVE",
"450 748 OFFCURVE",
"447 749 CURVE SMOOTH",
"443 750 OFFCURVE",
"438 749 OFFCURVE",
"434 748 CURVE",
"443 744 OFFCURVE",
"453 737 OFFCURVE",
"456 741 CURVE"
);
},
{
closed = 1;
nodes = (
"473 730 OFFCURVE",
"477 747 OFFCURVE",
"476 746 CURVE SMOOTH",
"470 742 LINE SMOOTH",
"466 739 OFFCURVE",
"468 730 OFFCURVE",
"470 728 CURVE"
);
},
{
closed = 1;
nodes = (
"511 723 OFFCURVE",
"513 728 OFFCURVE",
"512 733 CURVE",
"508 728 OFFCURVE",
"506 726 OFFCURVE",
"506 722 CURVE"
);
},
{
closed = 1;
nodes = (
"818 524 OFFCURVE",
"828 527 OFFCURVE",
"824 534 CURVE",
"819 536 OFFCURVE",
"803 534 OFFCURVE",
"801 528 CURVE SMOOTH",
"800 526 OFFCURVE",
"805 524 OFFCURVE",
"811 524 CURVE SMOOTH"
);
},
{
closed = 1;
nodes = (
"808 582 OFFCURVE",
"824 583 OFFCURVE",
"825 591 CURVE SMOOTH",
"825 595 OFFCURVE",
"822 596 OFFCURVE",
"818 596 CURVE SMOOTH",
"810 596 OFFCURVE",
"800 592 OFFCURVE",
"799 588 CURVE SMOOTH",
"798 583 OFFCURVE",
"800 582 OFFCURVE",
"801 582 CURVE SMOOTH"
);
},
{
closed = 1;
nodes = (
"800 644 OFFCURVE",
"818 642 OFFCURVE",
"821 649 CURVE SMOOTH",
"823 654 OFFCURVE",
"820 656 OFFCURVE",
"816 656 CURVE SMOOTH",
"810 656 OFFCURVE",
"799 652 OFFCURVE",
"797 652 CURVE",
"795 650 OFFCURVE",
"795 649 OFFCURVE",
"795 646 CURVE"
);
}
);
width = 930;
}
);
note = N;
unicode = 004E;
},
{
glyphname = O;
lastChange = "2021-12-30 14:01:18 +0000";
layers = (
{
hints = (
{
horizontal = 1;
place = "{48, 12}";
type = Stem;
},
{
horizontal = 1;
place = "{90, 35}";
type = Stem;
},
{
horizontal = 1;
place = "{145, 18}";
type = Stem;
},
{
horizontal = 1;
place = "{484, 19}";
type = Stem;
},
{
horizontal = 1;
place = "{558, 18}";
type = Stem;
},
{
horizontal = 1;
place = "{818, 24}";
type = Stem;
},
{
horizontal = 1;
place = "{884, 30}";
type = Stem;
},
{
horizontal = 1;
place = "{946, 11}";
type = Stem;
},
{
place = "{20, 65}";
type = Stem;
},
{
place = "{144, 24}";
type = Stem;
},
{
place = "{300, 7}";
type = Stem;
},
{
place = "{375, 43}";
type = Stem;
},
{
place = "{492, 15}";
type = Stem;
},
{
place = "{634, 21}";
type = Stem;
},
{
place = "{720, 65}";
type = Stem;
},
{
horizontal = 1;
place = "{572, 18}";
type = Stem;
},
{
horizontal = 1;
place = "{499, 19}";
type = Stem;
},
{
place = "{307, 14}";
type = Stem;
}
);
layerId = "C926F53D-A7E5-453A-A1AF-2EFB3CF89CC0";
paths = (
{
closed = 1;
nodes = (
"520 57 OFFCURVE",
"600 126 OFFCURVE",
"657 195 CURVE SMOOTH",
"716 270 OFFCURVE",
"753 352 OFFCURVE",
"773 445 CURVE SMOOTH",
"798 558 OFFCURVE",
"787 628 OFFCURVE",
"714 764 CURVE SMOOTH",
"665 854 OFFCURVE",
"571 938 OFFCURVE",
"467 951 CURVE SMOOTH",
"435 955 OFFCURVE",
"412 957 OFFCURVE",
"392 957 CURVE SMOOTH",
"359 957 OFFCURVE",
"334 951 OFFCURVE",
"291 936 CURVE SMOOTH",
"196 903 OFFCURVE",
"129 814 OFFCURVE",
"78 732 CURVE SMOOTH",
"43 678 OFFCURVE",
"18 591 OFFCURVE",
"20 525 CURVE SMOOTH",
"21 435 OFFCURVE",
"42 342 OFFCURVE",
"89 263 CURVE SMOOTH",
"125 202 OFFCURVE",
"247 75 OFFCURVE",
"320 58 CURVE SMOOTH",
"362 48 OFFCURVE",
"382 43 OFFCURVE",
"431 48 CURVE SMOOTH"
);
},
{
closed = 1;
nodes = (
"369 60 OFFCURVE",
"344 65 OFFCURVE",
"329 80 CURVE",
"320 95 LINE",
"314 116 OFFCURVE",
"334 135 OFFCURVE",
"358 140 CURVE SMOOTH",
"371 143 OFFCURVE",
"382 145 OFFCURVE",
"394 145 CURVE SMOOTH",
"425 145 OFFCURVE",
"450 132 OFFCURVE",
"466 109 CURVE SMOOTH",
"478 92 OFFCURVE",
"475 77 OFFCURVE",
"454 70 CURVE SMOOTH",
"439 64 OFFCURVE",
"417 60 OFFCURVE",
"395 60 CURVE SMOOTH"
);
},
{
closed = 1;
nodes = (
"274 118 LINE",
"251 133 OFFCURVE",
"235 154 OFFCURVE",
"214 178 CURVE SMOOTH",
"183 210 OFFCURVE",
"157 245 OFFCURVE",
"138 285 CURVE",
"101 351 OFFCURVE",
"89 422 OFFCURVE",
"85 497 CURVE",
"89 499 OFFCURVE",
"94 499 OFFCURVE",
"96 499 CURVE SMOOTH",
"139 497 LINE",
"139 483 OFFCURVE",
"139 467 OFFCURVE",
"140 450 CURVE",
"149 384 LINE SMOOTH",
"159 312 OFFCURVE",
"203 226 OFFCURVE",
"256 175 CURVE SMOOTH",
"296 137 LINE",
"314 124 OFFCURVE",
"304 120 OFFCURVE",
"303 103 CURVE"
);
},
{
closed = 1;
nodes = (
"402 90 OFFCURVE",
"408 92 OFFCURVE",
"413 98 CURVE SMOOTH",
"422 108 OFFCURVE",
"418 118 OFFCURVE",
"410 122 CURVE SMOOTH",
"403 126 OFFCURVE",
"394 126 OFFCURVE",
"386 122 CURVE SMOOTH",
"364 108 OFFCURVE",
"379 90 OFFCURVE",
"396 90 CURVE SMOOTH"
);
},
{
closed = 1;
nodes = (
"124 518 OFFCURVE",
"107 518 OFFCURVE",
"98 518 CURVE SMOOTH",
"85 518 LINE",
"87 535 OFFCURVE",
"87 554 OFFCURVE",
"89 572 CURVE",
"113 572 OFFCURVE",
"128 574 OFFCURVE",
"145 566 CURVE",
"145 566 OFFCURVE",
"142 549 OFFCURVE",
"139 516 CURVE"
);
},
{
closed = 1;
nodes = (
"486 100 OFFCURVE",
"482 102 OFFCURVE",
"480 109 CURVE SMOOTH",
"475 125 OFFCURVE",
"485 126 OFFCURVE",
"497 133 CURVE",
"521 151 OFFCURVE",
"547 179 OFFCURVE",
"567 202 CURVE SMOOTH",
"593 237 OFFCURVE",
"610 277 OFFCURVE",
"622 319 CURVE SMOOTH",
"637 376 LINE",
"650 411 OFFCURVE",
"653 448 OFFCURVE",
"655 484 CURVE",
"679 487 OFFCURVE",
"705 486 OFFCURVE",
"720 485 CURVE",
"722 447 OFFCURVE",
"706 409 OFFCURVE",
"692 370 CURVE",
"658 296 LINE SMOOTH",
"630 241 OFFCURVE",
"592 190 OFFCURVE",
"551 142 CURVE",
"543 135 OFFCURVE",
"510 100 OFFCURVE",
"491 100 CURVE SMOOTH"
);
},
{
closed = 1;
nodes = (
"460 137 OFFCURVE",
"449 153 OFFCURVE",
"440 157 CURVE SMOOTH",
"428 162 OFFCURVE",
"415 163 OFFCURVE",
"403 163 CURVE SMOOTH",
"388 163 OFFCURVE",
"374 161 OFFCURVE",
"359 157 CURVE SMOOTH",
"355 156 OFFCURVE",
"322 139 OFFCURVE",
"321 140 CURVE SMOOTH",
"273 188 OFFCURVE",
"230 241 OFFCURVE",
"206 304 CURVE SMOOTH",
"175 389 OFFCURVE",
"161 476 OFFCURVE",
"173 565 CURVE SMOOTH",
"176 593 OFFCURVE",
"185 618 OFFCURVE",
"195 644 CURVE SMOOTH",
"218 710 OFFCURVE",
"238 776 OFFCURVE",
"290 826 CURVE",
"296 833 OFFCURVE",
"315 837 OFFCURVE",
"322 834 CURVE SMOOTH",
"343 823 OFFCURVE",
"363 817 OFFCURVE",
"383 817 CURVE SMOOTH",
"414 817 OFFCURVE",
"443 830 OFFCURVE",
"473 855 CURVE",
"511 811 OFFCURVE",
"552 773 OFFCURVE",
"582 726 CURVE",
"604 682 LINE SMOOTH",
"641 601 OFFCURVE",
"637 519 OFFCURVE",
"629 433 CURVE SMOOTH",
"623 356 OFFCURVE",
"581 216 OFFCURVE",
"517 164 CURVE SMOOTH",
"507 157 OFFCURVE",
"483 133 OFFCURVE",
"469 136 CURVE SMOOTH"
);
},
{
closed = 1;
nodes = (
"107 669 LINE",
"126 727 OFFCURVE",
"153 765 OFFCURVE",
"197 807 CURVE SMOOTH",
"245 852 LINE SMOOTH",
"259 864 OFFCURVE",
"276 875 OFFCURVE",
"291 886 CURVE",
"300 867 LINE",
"303 857 OFFCURVE",
"299 855 OFFCURVE",
"291 852 CURVE",
"269 834 LINE",
"251 816 OFFCURVE",
"235 795 OFFCURVE",
"224 773 CURVE",
"201 737 OFFCURVE",
"176 700 OFFCURVE",
"164 659 CURVE SMOOTH",
"147 590 LINE",
"91 590 LINE"
);
},
{
closed = 1;
nodes = (
"658 511 OFFCURVE",
"658 519 OFFCURVE",
"660 527 CURVE",
"660 558 LINE",
"711 559 LINE",
"713 558 OFFCURVE",
"719 558 OFFCURVE",
"721 558 CURVE",
"723 541 OFFCURVE",
"723 522 OFFCURVE",
"721 505 CURVE",
"700 503 LINE",
"667 503 LINE",
"657 502 LINE"
);
},
{
closed = 1;
nodes = (
"388 842 OFFCURVE",
"375 844 OFFCURVE",
"363 847 CURVE SMOOTH",
"343 852 OFFCURVE",
"287 885 OFFCURVE",
"315 909 CURVE SMOOTH",
"340 933 OFFCURVE",
"366 946 OFFCURVE",
"398 946 CURVE SMOOTH",
"417 946 OFFCURVE",
"438 943 OFFCURVE",
"458 937 CURVE SMOOTH",
"469 933 OFFCURVE",
"490 927 OFFCURVE",
"492 912 CURVE SMOOTH",
"496 894 OFFCURVE",
"469 868 OFFCURVE",
"456 858 CURVE SMOOTH",
"440 846 OFFCURVE",
"420 842 OFFCURVE",
"401 842 CURVE SMOOTH"
);
},
{
closed = 1;
nodes = (
"402 884 OFFCURVE",
"408 885 OFFCURVE",
"413 890 CURVE SMOOTH",
"422 899 OFFCURVE",
"418 907 OFFCURVE",
"410 911 CURVE SMOOTH",
"403 915 OFFCURVE",
"394 916 OFFCURVE",
"386 911 CURVE SMOOTH",
"364 900 OFFCURVE",
"379 884 OFFCURVE",
"396 884 CURVE SMOOTH"
);
},
{
closed = 1;
nodes = (
"657 586 OFFCURVE",
"655 595 OFFCURVE",
"653 603 CURVE SMOOTH",
"645 649 LINE",
"618 750 OFFCURVE",
"569 806 OFFCURVE",
"494 878 CURVE",
"507 908 LINE",
"544 883 OFFCURVE",
"580 860 OFFCURVE",
"610 825 CURVE SMOOTH",
"669 756 OFFCURVE",
"714 670 OFFCURVE",
"720 578 CURVE",
"700 576 LINE",
"667 576 LINE"
);
}
);
width = 805;
}
);
note = O;
unicode = 004F;
},
{
glyphname = Odieresis;
lastChange = "2021-12-30 14:01:18 +0000";
layers = (
{
hints = (
{
horizontal = 1;
place = "{48, 11}";
type = Stem;
},
{
horizontal = 1;
place = "{89, 33}";
type = Stem;
},
{
horizontal = 1;
place = "{141, 17}";
type = Stem;
},
{
horizontal = 1;
place = "{467, 18}";
type = Stem;
},
{
horizontal = 1;
place = "{538, 17}";
type = Stem;
},
{
horizontal = 1;
place = "{787, 23}";
type = Stem;
},
{
horizontal = 1;
place = "{850, 30}";
type = Stem;
},
{
horizontal = 1;
place = "{910, 22}";
type = Stem;
},
{
horizontal = 1;
place = "{1023, 13}";
type = Stem;
},
{
place = "{20, 65}";
type = Stem;
},
{
place = "{144, 24}";
type = Stem;
},
{
place = "{301, 75}";
type = Stem;
},
{
place = "{470, 27}";
type = Stem;
},
{
place = "{634, 21}";
type = Stem;
},
{
place = "{720, 65}";
type = Stem;
},
{
place = "{307, 14}";
type = Stem;
},
{
place = "{375, 43}";
type = Stem;
},
{
place = "{492, 15}";
type = Stem;
},
{
place = "{300, 7}";
type = Stem;
},
{
horizontal = 1;
place = "{551, 17}";
type = Stem;
},
{
horizontal = 1;
place = "{481, 18}";
type = Stem;
}
);
layerId = "C926F53D-A7E5-453A-A1AF-2EFB3CF89CC0";
paths = (
{
closed = 1;
nodes = (
"520 56 OFFCURVE",
"600 123 OFFCURVE",
"657 189 CURVE SMOOTH",
"716 261 OFFCURVE",
"753 340 OFFCURVE",
"773 429 CURVE SMOOTH",
"798 538 OFFCURVE",
"787 605 OFFCURVE",
"714 735 CURVE SMOOTH",
"665 822 OFFCURVE",
"582 914 OFFCURVE",
"478 926 CURVE SMOOTH",
"445 930 OFFCURVE",
"420 932 OFFCURVE",
"397 932 CURVE SMOOTH",
"360 932 OFFCURVE",
"330 926 OFFCURVE",
"287 912 CURVE SMOOTH",
"192 880 OFFCURVE",
"129 783 OFFCURVE",
"78 705 CURVE SMOOTH",
"43 653 OFFCURVE",
"18 569 OFFCURVE",
"20 506 CURVE SMOOTH",
"21 419 OFFCURVE",
"42 330 OFFCURVE",
"89 254 CURVE SMOOTH",
"125 196 OFFCURVE",
"247 74 OFFCURVE",
"320 57 CURVE SMOOTH",
"362 48 OFFCURVE",
"382 43 OFFCURVE",
"431 48 CURVE SMOOTH"
);
},
{
closed = 1;
nodes = (
"274 115 LINE",
"251 129 OFFCURVE",
"235 150 OFFCURVE",
"214 173 CURVE SMOOTH",
"183 203 OFFCURVE",
"157 237 OFFCURVE",
"138 275 CURVE SMOOTH",
"102 338 OFFCURVE",
"89 407 OFFCURVE",
"85 479 CURVE",
"89 481 OFFCURVE",
"94 481 OFFCURVE",
"96 481 CURVE SMOOTH",
"139 479 LINE",
"139 466 OFFCURVE",
"139 450 OFFCURVE",
"140 434 CURVE SMOOTH",
"149 370 LINE SMOOTH",
"159 301 OFFCURVE",
"203 218 OFFCURVE",
"256 170 CURVE SMOOTH",
"296 133 LINE",
"314 121 OFFCURVE",
"304 117 OFFCURVE",
"303 101 CURVE"
);
},
{
closed = 1;
nodes = (
"370 59 OFFCURVE",
"344 65 OFFCURVE",
"329 79 CURVE",
"320 93 LINE",
"314 113 OFFCURVE",
"334 131 OFFCURVE",
"358 136 CURVE SMOOTH",
"371 139 OFFCURVE",
"383 141 OFFCURVE",
"394 141 CURVE SMOOTH",
"425 141 OFFCURVE",
"450 128 OFFCURVE",
"466 106 CURVE SMOOTH",
"478 90 OFFCURVE",
"475 76 OFFCURVE",
"454 69 CURVE SMOOTH",
"439 63 OFFCURVE",
"418 59 OFFCURVE",
"396 59 CURVE SMOOTH"
);
},
{
closed = 1;
nodes = (
"402 89 OFFCURVE",
"408 91 OFFCURVE",
"413 96 CURVE SMOOTH",
"422 105 OFFCURVE",
"418 115 OFFCURVE",
"410 119 CURVE SMOOTH",
"403 123 OFFCURVE",
"394 123 OFFCURVE",
"386 119 CURVE SMOOTH",
"364 106 OFFCURVE",
"379 89 OFFCURVE",
"396 89 CURVE SMOOTH"
);
},
{
closed = 1;
nodes = (
"124 499 OFFCURVE",
"107 499 OFFCURVE",
"98 499 CURVE SMOOTH",
"85 499 LINE",
"87 515 OFFCURVE",
"87 534 OFFCURVE",
"89 551 CURVE",
"113 551 OFFCURVE",
"128 553 OFFCURVE",
"145 545 CURVE",
"145 545 OFFCURVE",
"142 529 OFFCURVE",
"139 497 CURVE"
);
},
{
closed = 1;
nodes = (
"460 133 OFFCURVE",
"449 149 OFFCURVE",
"440 152 CURVE SMOOTH",
"428 157 OFFCURVE",
"415 158 OFFCURVE",
"403 158 CURVE SMOOTH",
"388 158 OFFCURVE",
"374 156 OFFCURVE",
"359 152 CURVE",
"355 152 OFFCURVE",
"322 135 OFFCURVE",
"321 136 CURVE SMOOTH",
"273 182 OFFCURVE",
"230 233 OFFCURVE",
"206 294 CURVE SMOOTH",
"175 375 OFFCURVE",
"161 459 OFFCURVE",
"173 544 CURVE SMOOTH",
"176 571 OFFCURVE",
"185 595 OFFCURVE",
"195 620 CURVE SMOOTH",
"218 684 OFFCURVE",
"238 747 OFFCURVE",
"290 795 CURVE",
"296 802 OFFCURVE",
"315 806 OFFCURVE",
"322 803 CURVE SMOOTH",
"343 792 OFFCURVE",
"364 787 OFFCURVE",
"384 787 CURVE SMOOTH",
"414 787 OFFCURVE",
"444 799 OFFCURVE",
"473 823 CURVE",
"511 781 OFFCURVE",
"552 744 OFFCURVE",
"582 699 CURVE",
"604 657 LINE SMOOTH",
"641 579 OFFCURVE",
"637 500 OFFCURVE",
"629 418 CURVE SMOOTH",
"623 344 OFFCURVE",
"581 208 OFFCURVE",
"517 159 CURVE SMOOTH",
"507 152 OFFCURVE",
"483 129 OFFCURVE",
"469 132 CURVE SMOOTH"
);
},
{
closed = 1;
nodes = (
"486 97 OFFCURVE",
"482 100 OFFCURVE",
"480 106 CURVE SMOOTH",
"475 122 OFFCURVE",
"485 123 OFFCURVE",
"497 129 CURVE",
"521 147 OFFCURVE",
"547 174 OFFCURVE",
"567 196 CURVE SMOOTH",
"593 229 OFFCURVE",
"610 268 OFFCURVE",
"622 308 CURVE SMOOTH",
"637 363 LINE",
"650 396 OFFCURVE",
"653 432 OFFCURVE",
"655 467 CURVE",
"679 469 OFFCURVE",
"705 468 OFFCURVE",
"720 467 CURVE",
"722 431 OFFCURVE",
"706 394 OFFCURVE",
"692 357 CURVE",
"658 286 LINE SMOOTH",
"630 233 OFFCURVE",
"592 184 OFFCURVE",
"551 138 CURVE",
"543 131 OFFCURVE",
"510 97 OFFCURVE",
"491 97 CURVE SMOOTH"
);
},
{
closed = 1;
nodes = (
"107 644 LINE",
"126 698 OFFCURVE",
"155 739 OFFCURVE",
"197 777 CURVE SMOOTH",
"245 820 LINE SMOOTH",
"259 831 OFFCURVE",
"276 842 OFFCURVE",
"291 853 CURVE",
"300 834 LINE",
"303 825 OFFCURVE",
"299 823 OFFCURVE",
"291 820 CURVE",
"269 803 LINE",
"251 785 OFFCURVE",
"235 765 OFFCURVE",
"224 744 CURVE",
"201 709 OFFCURVE",
"176 674 OFFCURVE",
"164 635 CURVE SMOOTH",
"147 568 LINE",
"91 568 LINE"
);
},
{
closed = 1;
nodes = (
"658 492 OFFCURVE",
"658 500 OFFCURVE",
"660 508 CURVE",
"660 538 LINE",
"711 539 LINE",
"713 538 OFFCURVE",
"719 538 OFFCURVE",
"721 538 CURVE",
"723 521 OFFCURVE",
"723 503 OFFCURVE",
"721 487 CURVE",
"700 485 LINE",
"667 485 LINE",
"657 484 LINE"
);
},
{
closed = 1;
nodes = (
"388 810 OFFCURVE",
"375 812 OFFCURVE",
"363 815 CURVE SMOOTH",
"343 820 OFFCURVE",
"287 852 OFFCURVE",
"315 875 CURVE SMOOTH",
"340 898 OFFCURVE",
"366 910 OFFCURVE",
"398 910 CURVE SMOOTH",
"417 910 OFFCURVE",
"438 907 OFFCURVE",
"458 902 CURVE SMOOTH",
"469 898 OFFCURVE",
"490 892 OFFCURVE",
"492 878 CURVE SMOOTH",
"496 860 OFFCURVE",
"469 835 OFFCURVE",
"456 826 CURVE SMOOTH",
"440 814 OFFCURVE",
"420 810 OFFCURVE",
"401 810 CURVE SMOOTH"
);
},
{
closed = 1;
nodes = (
"402 850 OFFCURVE",
"408 852 OFFCURVE",
"413 856 CURVE SMOOTH",
"422 865 OFFCURVE",
"418 873 OFFCURVE",
"410 877 CURVE SMOOTH",
"403 880 OFFCURVE",
"394 881 OFFCURVE",
"386 877 CURVE SMOOTH",
"364 866 OFFCURVE",
"379 850 OFFCURVE",
"397 850 CURVE SMOOTH"
);
},
{
closed = 1;
nodes = (
"657 564 OFFCURVE",
"655 573 OFFCURVE",
"653 581 CURVE SMOOTH",
"645 625 LINE",
"618 723 OFFCURVE",
"569 777 OFFCURVE",
"494 845 CURVE",
"507 874 LINE",
"544 850 OFFCURVE",
"580 828 OFFCURVE",
"610 794 CURVE SMOOTH",
"669 728 OFFCURVE",
"714 646 OFFCURVE",
"720 557 CURVE",
"700 555 LINE",
"667 555 LINE"
);
},
{
closed = 1;
nodes = (
"357 969 OFFCURVE",
"385 989 OFFCURVE",
"373 1016 CURVE",
"369 1030 OFFCURVE",
"358 1036 OFFCURVE",
"345 1036 CURVE SMOOTH",
"320 1036 OFFCURVE",
"291 1012 OFFCURVE",
"304 984 CURVE",
"310 974 OFFCURVE",
"321 969 OFFCURVE",
"333 969 CURVE SMOOTH"
);
},
{
closed = 1;
nodes = (
"330 993 OFFCURVE",
"326 995 OFFCURVE",
"324 999 CURVE SMOOTH",
"318 1011 OFFCURVE",
"330 1023 OFFCURVE",
"341 1023 CURVE SMOOTH",
"346 1023 OFFCURVE",
"350 1021 OFFCURVE",
"353 1016 CURVE SMOOTH",
"358 1005 OFFCURVE",
"344 993 OFFCURVE",
"334 993 CURVE SMOOTH"
);
},
{
closed = 1;
nodes = (
"449 994 OFFCURVE",
"444 997 OFFCURVE",
"441 1002 CURVE",
"437 1012 OFFCURVE",
"448 1020 OFFCURVE",
"457 1020 CURVE SMOOTH",
"464 1020 OFFCURVE",
"470 1016 OFFCURVE",
"470 1007 CURVE",
"468 998 OFFCURVE",
"461 994 OFFCURVE",
"455 994 CURVE SMOOTH"
);
},
{
closed = 1;
nodes = (
"484 968 OFFCURVE",
"506 981 OFFCURVE",
"494 1012 CURVE SMOOTH",
"489 1028 OFFCURVE",
"476 1035 OFFCURVE",
"462 1035 CURVE SMOOTH",
"444 1035 OFFCURVE",
"424 1021 OFFCURVE",
"425 992 CURVE SMOOTH",
"425 976 OFFCURVE",
"443 968 OFFCURVE",
"461 968 CURVE SMOOTH"
);
}
);
width = 805;
}
);
note = Odieresis;
unicode = 00D6;
},
{
glyphname = P;
lastChange = "2021-12-30 14:01:18 +0000";
layers = (
{
hints = (
{
horizontal = 1;
place = "{-169, 47}";
type = Stem;
},
{
horizontal = 1;
place = "{531, 19}";
type = Stem;
},
{
horizontal = 1;
place = "{573, 8}";
type = Stem;
},
{
horizontal = 1;
place = "{592, 15}";
type = Stem;
},
{
horizontal = 1;
place = "{653, 39}";
type = Stem;
},
{
horizontal = 1;
place = "{837, 14}";
type = Stem;
},
{
horizontal = 1;
place = "{882, 17}";
type = Stem;
},
{
horizontal = 1;
place = "{919, 19}";
type = Stem;
},
{
place = "{27, 11}";
type = Stem;
},
{
place = "{77, 12}";
type = Stem;
},
{
place = "{92, 7}";
type = Stem;
},
{
place = "{108, 20}";
type = Stem;
},
{
place = "{151, 51}";
type = Stem;
},
{
place = "{224, 9}";
type = Stem;
},
{
place = "{249, 9}";
type = Stem;
},
{
place = "{465, 38}";
type = Stem;
},
{
place = "{528, 44}";
type = Stem;
},
{
place = "{87, 11}";
type = Stem;
},
{
place = "{146, 51}";
type = Stem;
},
{
place = "{257, 16}";
type = Stem;
},
{
place = "{109, 13}";
type = Stem;
},
{
place = "{0, 81}";
type = Stem;
},
{
horizontal = 1;
place = "{546, 13}";
type = Stem;
},
{
place = "{119, 16}";
type = Stem;
},
{
place = "{107, 26}";
type = Stem;
},
{
place = "{99, 25}";
type = Stem;
},
{
horizontal = 1;
place = "{889, 17}";
type = Stem;
}
);
layerId = "C926F53D-A7E5-453A-A1AF-2EFB3CF89CC0";
paths = (
{
closed = 1;
nodes = (
"95 -225 OFFCURVE",
"151 -127 OFFCURVE",
"161 -88 CURVE SMOOTH",
"177 -26 OFFCURVE",
"190 33 OFFCURVE",
"197 101 CURVE SMOOTH",
"213 267 OFFCURVE",
"192 509 OFFCURVE",
"214 522 CURVE SMOOTH",
"235 536 OFFCURVE",
"285 530 OFFCURVE",
"335 531 CURVE SMOOTH",
"405 532 OFFCURVE",
"454 550 OFFCURVE",
"493 577 CURVE SMOOTH",
"568 630 OFFCURVE",
"599 767 OFFCURVE",
"543 843 CURVE SMOOTH",
"471 943 OFFCURVE",
"401 933 OFFCURVE",
"327 937 CURVE SMOOTH",
"273 940 OFFCURVE",
"225 938 OFFCURVE",
"172 938 CURVE SMOOTH",
"140 938 OFFCURVE",
"95 938 OFFCURVE",
"66 935 CURVE SMOOTH",
"43 932 OFFCURVE",
"36 930 OFFCURVE",
"14 924 CURVE SMOOTH",
"-5 917 OFFCURVE",
"-3 915 OFFCURVE",
"7 915 CURVE SMOOTH",
"28 915 OFFCURVE",
"84 920 OFFCURVE",
"98 893 CURVE SMOOTH",
"117 858 OFFCURVE",
"109 802 OFFCURVE",
"109 764 CURVE SMOOTH",
"109 741 OFFCURVE",
"103 745 OFFCURVE",
"86 731 CURVE SMOOTH",
"79 724 OFFCURVE",
"73 702 OFFCURVE",
"81 692 CURVE SMOOTH",
"95 672 OFFCURVE",
"81 673 OFFCURVE",
"79 655 CURVE SMOOTH",
"78 643 OFFCURVE",
"89 629 OFFCURVE",
"98 623 CURVE",
"85 616 OFFCURVE",
"76 605 OFFCURVE",
"82 588 CURVE SMOOTH",
"87 570 OFFCURVE",
"105 582 OFFCURVE",
"95 559 CURVE SMOOTH",
"86 537 OFFCURVE",
"97 512 OFFCURVE",
"119 522 CURVE",
"119 377 OFFCURVE",
"118 233 OFFCURVE",
"112 89 CURVE SMOOTH",
"109 26 OFFCURVE",
"105 -147 OFFCURVE",
"94 -147 CURVE SMOOTH",
"93 -147 OFFCURVE",
"91 -143 OFFCURVE",
"89 -134 CURVE",
"85 -127 OFFCURVE",
"75 -122 OFFCURVE",
"65 -122 CURVE SMOOTH",
"54 -122 OFFCURVE",
"42 -127 OFFCURVE",
"35 -140 CURVE SMOOTH",
"23 -161 OFFCURVE",
"22 -194 OFFCURVE",
"49 -205 CURVE SMOOTH"
);
},
{
closed = 1;
nodes = (
"42 -193 OFFCURVE",
"25 -159 OFFCURVE",
"50 -137 CURVE",
"57 -135 OFFCURVE",
"63 -134 OFFCURVE",
"68 -134 CURVE SMOOTH",
"97 -134 OFFCURVE",
"83 -169 OFFCURVE",
"88 -169 CURVE SMOOTH",
"89 -169 OFFCURVE",
"90 -168 OFFCURVE",
"93 -165 CURVE SMOOTH",
"116 -138 OFFCURVE",
"114 -100 OFFCURVE",
"118 -55 CURVE SMOOTH",
"127 26 OFFCURVE",
"131 104 OFFCURVE",
"131 182 CURVE SMOOTH",
"131 268 OFFCURVE",
"133 353 OFFCURVE",
"134 440 CURVE SMOOTH",
"135 513 LINE SMOOTH",
"135 539 OFFCURVE",
"135 531 OFFCURVE",
"117 535 CURVE SMOOTH",
"75 543 OFFCURVE",
"118 580 OFFCURVE",
"127 573 CURVE",
"118 583 OFFCURVE",
"95 584 OFFCURVE",
"99 602 CURVE SMOOTH",
"101 617 OFFCURVE",
"110 623 OFFCURVE",
"127 629 CURVE",
"109 643 OFFCURVE",
"97 643 OFFCURVE",
"98 661 CURVE SMOOTH",
"99 678 OFFCURVE",
"111 673 OFFCURVE",
"124 681 CURVE SMOOTH",
"140 692 OFFCURVE",
"110 689 OFFCURVE",
"101 692 CURVE SMOOTH",
"87 695 OFFCURVE",
"84 720 OFFCURVE",
"100 726 CURVE SMOOTH",
"112 730 OFFCURVE",
"121 732 OFFCURVE",
"122 741 CURVE SMOOTH",
"125 780 OFFCURVE",
"125 815 OFFCURVE",
"120 886 CURVE SMOOTH",
"118 914 OFFCURVE",
"50 919 OFFCURVE",
"99 919 CURVE SMOOTH",
"149 919 OFFCURVE",
"146 919 OFFCURVE",
"146 890 CURVE SMOOTH",
"146 780 OFFCURVE",
"147 759 OFFCURVE",
"149 654 CURVE SMOOTH",
"151 544 OFFCURVE",
"151 434 OFFCURVE",
"151 324 CURVE SMOOTH",
"151 209 OFFCURVE",
"153 111 OFFCURVE",
"140 7 CURVE SMOOTH",
"135 -45 OFFCURVE",
"132 -116 OFFCURVE",
"107 -162 CURVE SMOOTH",
"95 -184 OFFCURVE",
"80 -193 OFFCURVE",
"68 -193 CURVE SMOOTH"
);
},
{
closed = 1;
nodes = (
"130 546 OFFCURVE",
"149 555 OFFCURVE",
"127 559 CURVE SMOOTH",
"111 562 OFFCURVE",
"107 548 OFFCURVE",
"123 546 CURVE SMOOTH"
);
},
{
closed = 1;
nodes = (
"133 594 OFFCURVE",
"144 612 OFFCURVE",
"118 607 CURVE SMOOTH",
"102 604 OFFCURVE",
"105 590 OFFCURVE",
"118 592 CURVE SMOOTH"
);
},
{
closed = 1;
nodes = (
"142 653 OFFCURVE",
"130 667 OFFCURVE",
"118 665 CURVE",
"102 660 OFFCURVE",
"106 653 OFFCURVE",
"122 653 CURVE SMOOTH"
);
},
{
closed = 1;
nodes = (
"195 566 OFFCURVE",
"201 593 OFFCURVE",
"216 602 CURVE SMOOTH",
"223 606 OFFCURVE",
"237 607 OFFCURVE",
"234 595 CURVE",
"230 593 OFFCURVE",
"214 586 OFFCURVE",
"222 574 CURVE",
"224 572 OFFCURVE",
"225 571 OFFCURVE",
"227 571 CURVE SMOOTH",
"233 571 OFFCURVE",
"237 589 OFFCURVE",
"243 589 CURVE SMOOTH",
"247 589 OFFCURVE",
"249 576 OFFCURVE",
"249 573 CURVE",
"249 573 OFFCURVE",
"232 546 OFFCURVE",
"215 555 CURVE SMOOTH"
);
},
{
closed = 1;
nodes = (
"121 693 OFFCURVE",
"134 714 OFFCURVE",
"114 714 CURVE SMOOTH",
"109 714 OFFCURVE",
"88 711 OFFCURVE",
"105 702 CURVE SMOOTH"
);
},
{
closed = 1;
nodes = (
"200 613 OFFCURVE",
"203 662 OFFCURVE",
"202 731 CURVE SMOOTH",
"201 773 OFFCURVE",
"194 840 OFFCURVE",
"205 837 CURVE",
"230 838 OFFCURVE",
"223 830 OFFCURVE",
"224 739 CURVE SMOOTH",
"225 713 OFFCURVE",
"225 682 OFFCURVE",
"224 656 CURVE SMOOTH",
"223 615 OFFCURVE",
"228 611 OFFCURVE",
"205 611 CURVE"
);
},
{
closed = 1;
nodes = (
"265 581 OFFCURVE",
"260 583 OFFCURVE",
"258 589 CURVE SMOOTH",
"255 599 OFFCURVE",
"253 605 OFFCURVE",
"252 606 CURVE SMOOTH",
"251 607 OFFCURVE",
"246 608 OFFCURVE",
"238 611 CURVE SMOOTH",
"230 613 OFFCURVE",
"233 634 OFFCURVE",
"233 648 CURVE SMOOTH",
"233 795 LINE SMOOTH",
"233 822 OFFCURVE",
"230 838 OFFCURVE",
"247 844 CURVE SMOOTH",
"265 850 OFFCURVE",
"269 867 OFFCURVE",
"273 883 CURVE SMOOTH",
"274 887 OFFCURVE",
"286 890 OFFCURVE",
"303 890 CURVE SMOOTH",
"332 890 OFFCURVE",
"376 884 OFFCURVE",
"405 873 CURVE SMOOTH",
"454 854 OFFCURVE",
"483 744 OFFCURVE",
"454 681 CURVE SMOOTH",
"428 619 OFFCURVE",
"390 593 OFFCURVE",
"308 584 CURVE SMOOTH",
"293 583 OFFCURVE",
"282 581 OFFCURVE",
"273 581 CURVE SMOOTH"
);
},
{
closed = 1;
nodes = (
"233 882 OFFCURVE",
"242 890 OFFCURVE",
"235 895 CURVE SMOOTH",
"230 899 OFFCURVE",
"212 903 OFFCURVE",
"218 888 CURVE SMOOTH",
"219 884 OFFCURVE",
"222 882 OFFCURVE",
"226 882 CURVE SMOOTH"
);
},
{
closed = 1;
nodes = (
"197 851 OFFCURVE",
"197 872 OFFCURVE",
"197 912 CURVE",
"246 924 OFFCURVE",
"283 880 OFFCURVE",
"235 858 CURVE SMOOTH",
"226 854 OFFCURVE",
"219 851 OFFCURVE",
"213 851 CURVE SMOOTH"
);
},
{
closed = 1;
nodes = (
"253 550 OFFCURVE",
"247 552 OFFCURVE",
"249 556 CURVE",
"250 562 OFFCURVE",
"252 573 OFFCURVE",
"259 573 CURVE SMOOTH",
"313 573 OFFCURVE",
"374 584 OFFCURVE",
"398 593 CURVE SMOOTH",
"455 612 OFFCURVE",
"499 675 OFFCURVE",
"503 741 CURVE SMOOTH",
"506 790 OFFCURVE",
"469 878 OFFCURVE",
"414 890 CURVE SMOOTH",
"388 897 OFFCURVE",
"368 904 OFFCURVE",
"343 906 CURVE SMOOTH",
"309 909 OFFCURVE",
"290 906 OFFCURVE",
"270 906 CURVE SMOOTH",
"258 906 OFFCURVE",
"258 910 OFFCURVE",
"263 915 CURVE",
"271 920 OFFCURVE",
"336 914 OFFCURVE",
"359 911 CURVE SMOOTH",
"382 908 OFFCURVE",
"429 905 OFFCURVE",
"455 883 CURVE SMOOTH",
"572 782 OFFCURVE",
"544 617 OFFCURVE",
"405 574 CURVE SMOOTH",
"370 564 OFFCURVE",
"297 550 OFFCURVE",
"265 550 CURVE SMOOTH"
);
}
);
width = 592;
}
);
note = P;
unicode = 0050;
},
{
glyphname = Thorn;
lastChange = "2021-12-30 14:01:18 +0000";
layers = (
{
hints = (
{
horizontal = 1;
place = "{484, 31}";
type = Stem;
},
{
horizontal = 1;
place = "{921, 14}";
type = Stem;
},
{
place = "{78, 50}";
type = Stem;
},
{
place = "{137, 29}";
type = Stem;
}
);
layerId = "C926F53D-A7E5-453A-A1AF-2EFB3CF89CC0";
paths = (
{
closed = 1;
nodes = (
"63 -470 OFFCURVE",
"68 -468 OFFCURVE",
"75 -463 CURVE",
"119 -416 OFFCURVE",
"144 -361 OFFCURVE",
"147 -271 CURVE SMOOTH",
"151 -190 OFFCURVE",
"160 -108 OFFCURVE",
"168 -27 CURVE SMOOTH",
"169 -21 OFFCURVE",
"171 36 OFFCURVE",
"174 38 CURVE SMOOTH",
"249 89 OFFCURVE",
"304 161 OFFCURVE",
"332 247 CURVE SMOOTH",
"350 301 OFFCURVE",
"378 390 OFFCURVE",
"370 436 CURVE SMOOTH",
"352 540 OFFCURVE",
"301 515 OFFCURVE",
"234 515 CURVE SMOOTH",
"204 515 OFFCURVE",
"162 508 OFFCURVE",
"162 530 CURVE SMOOTH",
"162 604 OFFCURVE",
"168 669 OFFCURVE",
"174 839 CURVE SMOOTH",
"178 956 OFFCURVE",
"302 938 OFFCURVE",
"234 947 CURVE",
"209 942 OFFCURVE",
"75 937 OFFCURVE",
"26 935 CURVE",
"-30 913 OFFCURVE",
"18 918 OFFCURVE",
"50 900 CURVE SMOOTH",
"82 881 OFFCURVE",
"78 771 OFFCURVE",
"78 670 CURVE SMOOTH",
"78 602 OFFCURVE",
"75 540 OFFCURVE",
"75 524 CURVE SMOOTH",
"75 380 OFFCURVE",
"76 233 OFFCURVE",
"78 88 CURVE SMOOTH",
"79 -66 OFFCURVE",
"84 -199 OFFCURVE",
"74 -332 CURVE SMOOTH",
"66 -430 OFFCURVE",
"48 -470 OFFCURVE",
"60 -470 CURVE SMOOTH"
);
},
{
closed = 1;
nodes = (
"98 -396 OFFCURVE",
"98 -390 OFFCURVE",
"102 -375 CURVE SMOOTH",
"114 -315 LINE",
"127 -197 OFFCURVE",
"129 -77 OFFCURVE",
"129 42 CURVE SMOOTH",
"128 120 OFFCURVE",
"128 192 OFFCURVE",
"128 270 CURVE SMOOTH",
"128 584 LINE SMOOTH",
"129 645 OFFCURVE",
"128 701 OFFCURVE",
"128 758 CURVE SMOOTH",
"128 772 LINE SMOOTH",
"128 820 OFFCURVE",
"126 859 OFFCURVE",
"131 913 CURVE",
"146 955 OFFCURVE",
"137 826 OFFCURVE",
"137 786 CURVE SMOOTH",
"137 785 OFFCURVE",
"138 757 OFFCURVE",
"137 567 CURVE SMOOTH",
"137 -17 LINE SMOOTH",
"137 -62 OFFCURVE",
"135 -92 OFFCURVE",
"128 -247 CURVE SMOOTH",
"125 -322 OFFCURVE",
"101 -396 OFFCURVE",
"98 -396 CURVE"
);
},
{
closed = 1;
nodes = (
"170 65 OFFCURVE",
"173 83 OFFCURVE",
"169 185 CURVE SMOOTH",
"166 358 LINE SMOOTH",
"166 366 OFFCURVE",
"165 391 OFFCURVE",
"165 412 CURVE SMOOTH",
"165 446 OFFCURVE",
"165 475 OFFCURVE",
"194 478 CURVE SMOOTH",
"214 481 OFFCURVE",
"235 485 OFFCURVE",
"253 485 CURVE SMOOTH",
"294 485 OFFCURVE",
"322 465 OFFCURVE",
"311 367 CURVE SMOOTH",
"293 224 OFFCURVE",
"246 114 OFFCURVE",
"177 68 CURVE SMOOTH",
"175 67 OFFCURVE",
"174 65 OFFCURVE",
"173 65 CURVE SMOOTH"
);
}
);
width = 391;
}
);
note = Thorn;
unicode = 00DE;
},
{
glyphname = Q;
lastChange = "2021-12-30 14:01:18 +0000";
layers = (
{
hints = (
{
horizontal = 1;
place = "{-177, 12}";
type = Stem;
},
{
horizontal = 1;
place = "{-144, 29}";
type = Stem;
},
{
horizontal = 1;
place = "{51, 28}";
type = Stem;
},
{
horizontal = 1;
place = "{99, 32}";
type = Stem;
},
{
horizontal = 1;
place = "{453, 14}";
type = Stem;
},
{
horizontal = 1;
place = "{482, 11}";
type = Stem;
},
{
horizontal = 1;
place = "{534, 18}";
type = Stem;
},
{
horizontal = 1;
place = "{554, 15}";
type = Stem;
},
{
horizontal = 1;
place = "{830, 21}";
type = Stem;
},
{
horizontal = 1;
place = "{878, 32}";
type = Stem;
},
{
horizontal = 1;
place = "{936, 23}";
type = Stem;
},
{
place = "{-2, 61}";
type = Stem;
},
{
place = "{116, 25}";
type = Stem;
},
{
place = "{354, 49}";
type = Stem;
},
{
place = "{456, 19}";
type = Stem;
},
{
place = "{602, 20}";
type = Stem;
},
{
place = "{676, 61}";
type = Stem;
},
{
place = "{856, 18}";
type = Stem;
},
{
horizontal = 1;
place = "{-119, 24}";
type = Stem;
},
{
place = "{368, 48}";
type = Stem;
},
{
horizontal = 1;
place = "{73, 39}";
type = Stem;
},
{
place = "{460, 15}";
type = Stem;
}
);
layerId = "C926F53D-A7E5-453A-A1AF-2EFB3CF89CC0";
paths = (
{
closed = 1;
nodes = (
"841 -177 OFFCURVE",
"848 -176 OFFCURVE",
"854 -173 CURVE SMOOTH",
"882 -160 OFFCURVE",
"879 -115 OFFCURVE",
"854 -102 CURVE",
"847 -97 OFFCURVE",
"839 -95 OFFCURVE",
"831 -95 CURVE SMOOTH",
"817 -95 OFFCURVE",
"803 -102 OFFCURVE",
"791 -110 CURVE SMOOTH",
"767 -127 OFFCURVE",
"683 -14 OFFCURVE",
"620 102 CURVE SMOOTH",
"608 124 LINE SMOOTH",
"604 132 OFFCURVE",
"601 144 OFFCURVE",
"604 151 CURVE",
"631 194 OFFCURVE",
"666 234 OFFCURVE",
"685 280 CURVE SMOOTH",
"748 429 OFFCURVE",
"761 577 OFFCURVE",
"681 744 CURVE",
"664 774 LINE SMOOTH",
"624 845 OFFCURVE",
"565 905 OFFCURVE",
"489 941 CURVE",
"447 953 OFFCURVE",
"409 959 OFFCURVE",
"373 959 CURVE SMOOTH",
"283 959 OFFCURVE",
"208 919 OFFCURVE",
"125 827 CURVE",
"39 717 OFFCURVE",
"-24 573 OFFCURVE",
"5 406 CURVE SMOOTH",
"24 296 OFFCURVE",
"145 128 OFFCURVE",
"343 61 CURVE",
"368 56 LINE SMOOTH",
"384 53 OFFCURVE",
"399 51 OFFCURVE",
"415 51 CURVE SMOOTH",
"437 51 OFFCURVE",
"458 55 OFFCURVE",
"479 62 CURVE SMOOTH",
"498 69 OFFCURVE",
"508 73 OFFCURVE",
"515 73 CURVE SMOOTH",
"528 73 OFFCURVE",
"529 59 OFFCURVE",
"557 26 CURVE SMOOTH",
"613 -40 OFFCURVE",
"678 -102 OFFCURVE",
"750 -150 CURVE SMOOTH",
"764 -158 OFFCURVE",
"803 -177 OFFCURVE",
"834 -177 CURVE SMOOTH"
);
},
{
closed = 1;
nodes = (
"267 115 OFFCURVE",
"221 146 OFFCURVE",
"186 182 CURVE SMOOTH",
"105 266 OFFCURVE",
"43 451 OFFCURVE",
"64 452 CURVE SMOOTH",
"82 453 LINE SMOOTH",
"100 454 OFFCURVE",
"113 454 OFFCURVE",
"113 447 CURVE",
"131 359 OFFCURVE",
"145 283 OFFCURVE",
"203 206 CURVE SMOOTH",
"219 186 OFFCURVE",
"245 166 OFFCURVE",
"268 151 CURVE SMOOTH",
"281 143 OFFCURVE",
"290 137 OFFCURVE",
"303 126 CURVE SMOOTH",
"308 121 OFFCURVE",
"298 105 OFFCURVE",
"293 108 CURVE"
);
},
{
closed = 1;
nodes = (
"384 99 OFFCURVE",
"393 101 OFFCURVE",
"406 105 CURVE SMOOTH",
"426 110 OFFCURVE",
"413 128 OFFCURVE",
"397 131 CURVE",
"390 139 OFFCURVE",
"349 99 OFFCURVE",
"378 99 CURVE SMOOTH"
);
},
{
closed = 1;
nodes = (
"382 81 OFFCURVE",
"318 76 OFFCURVE",
"329 113 CURVE SMOOTH",
"338 140 OFFCURVE",
"362 156 OFFCURVE",
"389 156 CURVE SMOOTH",
"401 156 OFFCURVE",
"415 153 OFFCURVE",
"427 144 CURVE",
"440 137 OFFCURVE",
"457 123 OFFCURVE",
"460 108 CURVE",
"471 80 OFFCURVE",
"435 79 OFFCURVE",
"403 79 CURVE"
);
},
{
closed = 1;
nodes = (
"89 464 OFFCURVE",
"61 469 OFFCURVE",
"61 471 CURVE SMOOTH",
"61 479 OFFCURVE",
"52 534 OFFCURVE",
"63 534 CURVE SMOOTH",
"78 534 OFFCURVE",
"97 531 OFFCURVE",
"113 528 CURVE",
"117 528 OFFCURVE",
"116 477 OFFCURVE",
"116 473 CURVE",
"107 470 LINE SMOOTH"
);
},
{
closed = 1;
nodes = (
"770 -129 OFFCURVE",
"718 -99 OFFCURVE",
"707 -88 CURVE SMOOTH",
"660 -40 OFFCURVE",
"684 -70 OFFCURVE",
"603 29 CURVE SMOOTH",
"592 42 OFFCURVE",
"564 83 OFFCURVE",
"564 100 CURVE",
"566 113 OFFCURVE",
"581 129 OFFCURVE",
"587 122 CURVE SMOOTH",
"592 116 OFFCURVE",
"598 84 OFFCURVE",
"636 30 CURVE SMOOTH",
"660 -5 OFFCURVE",
"711 -62 OFFCURVE",
"726 -81 CURVE SMOOTH",
"741 -100 OFFCURVE",
"760 -118 OFFCURVE",
"765 -122 CURVE"
);
},
{
closed = 1;
nodes = (
"832 -165 OFFCURVE",
"824 -160 OFFCURVE",
"815 -150 CURVE SMOOTH",
"810 -143 OFFCURVE",
"806 -131 OFFCURVE",
"811 -122 CURVE SMOOTH",
"816 -112 OFFCURVE",
"850 -111 OFFCURVE",
"838 -115 CURVE SMOOTH",
"817 -123 OFFCURVE",
"832 -144 OFFCURVE",
"843 -144 CURVE SMOOTH",
"848 -144 OFFCURVE",
"852 -140 OFFCURVE",
"850 -127 CURVE SMOOTH",
"848 -114 OFFCURVE",
"852 -119 OFFCURVE",
"856 -131 CURVE SMOOTH",
"860 -144 OFFCURVE",
"858 -155 OFFCURVE",
"849 -162 CURVE SMOOTH",
"846 -164 OFFCURVE",
"843 -165 OFFCURVE",
"840 -165 CURVE SMOOTH"
);
},
{
closed = 1;
nodes = (
"484 112 OFFCURVE",
"479 116 OFFCURVE",
"475 128 CURVE SMOOTH",
"470 146 OFFCURVE",
"503 157 OFFCURVE",
"522 185 CURVE SMOOTH",
"601 299 OFFCURVE",
"610 334 OFFCURVE",
"619 428 CURVE SMOOTH",
"620 445 OFFCURVE",
"619 469 OFFCURVE",
"622 476 CURVE SMOOTH",
"624 481 OFFCURVE",
"670 482 OFFCURVE",
"675 482 CURVE",
"681 437 OFFCURVE",
"660 388 OFFCURVE",
"648 345 CURVE SMOOTH",
"616 241 OFFCURVE",
"585 190 OFFCURVE",
"521 135 CURVE SMOOTH",
"511 127 OFFCURVE",
"499 112 OFFCURVE",
"489 112 CURVE SMOOTH"
);
},
{
closed = 1;
nodes = (
"38 549 OFFCURVE",
"83 742 OFFCURVE",
"161 822 CURVE SMOOTH",
"184 845 OFFCURVE",
"217 872 OFFCURVE",
"248 886 CURVE",
"253 891 OFFCURVE",
"272 870 OFFCURVE",
"265 867 CURVE SMOOTH",
"234 851 OFFCURVE",
"221 822 OFFCURVE",
"206 796 CURVE SMOOTH",
"176 747 OFFCURVE",
"150 699 OFFCURVE",
"134 646 CURVE SMOOTH",
"125 616 OFFCURVE",
"127 584 OFFCURVE",
"117 554 CURVE",
"117 551 OFFCURVE",
"115 549 OFFCURVE",
"69 552 CURVE"
);
},
{
closed = 1;
nodes = (
"425 169 OFFCURVE",
"407 173 OFFCURVE",
"392 173 CURVE SMOOTH",
"363 173 OFFCURVE",
"345 158 OFFCURVE",
"323 158 CURVE SMOOTH",
"306 158 OFFCURVE",
"286 167 OFFCURVE",
"257 200 CURVE SMOOTH",
"151 318 OFFCURVE",
"113 504 OFFCURVE",
"161 652 CURVE SMOOTH",
"170 676 OFFCURVE",
"244 876 OFFCURVE",
"286 854 CURVE SMOOTH",
"313 838 OFFCURVE",
"346 827 OFFCURVE",
"378 830 CURVE SMOOTH",
"403 832 OFFCURVE",
"448 845 OFFCURVE",
"460 867 CURVE",
"464 867 LINE",
"503 848 OFFCURVE",
"526 797 OFFCURVE",
"539 760 CURVE",
"597 622 OFFCURVE",
"625 487 OFFCURVE",
"581 353 CURVE SMOOTH",
"557 279 OFFCURVE",
"484 141 OFFCURVE",
"448 157 CURVE SMOOTH"
);
},
{
closed = 1;
nodes = (
"621 499 OFFCURVE",
"618 546 OFFCURVE",
"624 549 CURVE SMOOTH",
"633 552 OFFCURVE",
"640 554 OFFCURVE",
"647 554 CURVE SMOOTH",
"656 554 OFFCURVE",
"664 552 OFFCURVE",
"673 550 CURVE SMOOTH",
"677 549 OFFCURVE",
"676 501 OFFCURVE",
"676 496 CURVE",
"673 496 OFFCURVE",
"649 493 OFFCURVE",
"635 493 CURVE SMOOTH",
"622 493 LINE"
);
},
{
closed = 1;
nodes = (
"334 854 OFFCURVE",
"272 868 OFFCURVE",
"293 901 CURVE SMOOTH",
"309 926 OFFCURVE",
"344 933 OFFCURVE",
"371 936 CURVE",
"450 939 OFFCURVE",
"478 915 OFFCURVE",
"440 874 CURVE SMOOTH",
"420 853 OFFCURVE",
"385 849 OFFCURVE",
"358 851 CURVE SMOOTH"
);
},
{
closed = 1;
nodes = (
"399 873 OFFCURVE",
"419 905 OFFCURVE",
"386 910 CURVE SMOOTH",
"361 913 OFFCURVE",
"336 884 OFFCURVE",
"371 878 CURVE SMOOTH"
);
},
{
closed = 1;
nodes = (
"615 568 OFFCURVE",
"605 620 OFFCURVE",
"601 637 CURVE SMOOTH",
"582 712 OFFCURVE",
"568 800 OFFCURVE",
"508 855 CURVE SMOOTH",
"489 874 OFFCURVE",
"464 876 OFFCURVE",
"481 907 CURVE",
"486 920 OFFCURVE",
"534 878 OFFCURVE",
"537 874 CURVE SMOOTH",
"551 855 OFFCURVE",
"565 839 OFFCURVE",
"576 822 CURVE SMOOTH",
"610 767 OFFCURVE",
"633 709 OFFCURVE",
"648 647 CURVE",
"650 643 OFFCURVE",
"667 578 OFFCURVE",
"661 577 CURVE SMOOTH",
"653 575 OFFCURVE",
"633 571 OFFCURVE",
"622 569 CURVE SMOOTH"
);
}
);
width = 760;
}
);
note = Q;
unicode = 0051;
},
{
glyphname = R;
lastChange = "2021-12-30 14:01:18 +0000";
layers = (
{
hints = (
{
horizontal = 1;
place = "{-539, 16}";
type = Stem;
},
{
horizontal = 1;
place = "{-455, 8}";
type = Stem;
},
{
horizontal = 1;
place = "{540, 28}";
type = Stem;
},
{
horizontal = 1;
place = "{570, 18}";
type = Stem;
},
{
horizontal = 1;
place = "{603, 11}";
type = Stem;
},
{
horizontal = 1;
place = "{637, 24}";
type = Stem;
},
{
horizontal = 1;
place = "{844, 12}";
type = Stem;
},
{
horizontal = 1;
place = "{877, 19}";
type = Stem;
},
{
horizontal = 1;
place = "{919, 15}";
type = Stem;
},
{
place = "{31, 12}";
type = Stem;
},
{
place = "{59, 13}";
type = Stem;
},
{
place = "{80, 21}";
type = Stem;
},
{
place = "{106, 14}";
type = Stem;
},
{
place = "{134, 30}";
type = Stem;
},
{
place = "{214, 10}";
type = Stem;
},
{
place = "{245, 10}";
type = Stem;
},
{
place = "{483, 26}";
type = Stem;
},
{
place = "{524, 45}";
type = Stem;
},
{
horizontal = 1;
place = "{913, 22}";
type = Stem;
},
{
place = "{121, 71}";
type = Stem;
},
{
place = "{62, 11}";
type = Stem;
},
{
place = "{90, 17}";
type = Stem;
},
{
place = "{98, 12}";
type = Stem;
},
{
horizontal = 1;
place = "{891, 12}";
type = Stem;
},
{
place = "{215, 20}";
type = Stem;
},
{
place = "{253, 9}";
type = Stem;
},
{
place = "{128, 70}";
type = Stem;
}
);
layerId = "C926F53D-A7E5-453A-A1AF-2EFB3CF89CC0";
paths = (
{
closed = 1;
nodes = (
"137 -540 OFFCURVE",
"162 -441 OFFCURVE",
"164 -384 CURVE SMOOTH",
"165 -330 OFFCURVE",
"164 -271 OFFCURVE",
"169 -215 CURVE SMOOTH",
"179 -102 OFFCURVE",
"178 11 OFFCURVE",
"184 126 CURVE SMOOTH",
"190 242 OFFCURVE",
"197 358 OFFCURVE",
"197 474 CURVE SMOOTH",
"197 514 LINE SMOOTH",
"197 542 OFFCURVE",
"201 539 OFFCURVE",
"208 540 CURVE SMOOTH",
"216 541 OFFCURVE",
"218 543 OFFCURVE",
"224 538 CURVE SMOOTH",
"247 518 OFFCURVE",
"249 516 OFFCURVE",
"259 504 CURVE SMOOTH",
"299 455 OFFCURVE",
"348 412 OFFCURVE",
"387 362 CURVE SMOOTH",
"513 199 LINE SMOOTH",
"532 175 OFFCURVE",
"553 147 OFFCURVE",
"569 120 CURVE SMOOTH",
"585 93 OFFCURVE",
"596 63 OFFCURVE",
"609 38 CURVE",
"623 26 OFFCURVE",
"548 11 OFFCURVE",
"573 11 CURVE",
"814 31 OFFCURVE",
"846 26 OFFCURVE",
"767 45 CURVE",
"749 51 OFFCURVE",
"743 49 OFFCURVE",
"722 67 CURVE SMOOTH",
"663 121 LINE SMOOTH",
"619 161 OFFCURVE",
"585 213 OFFCURVE",
"549 261 CURVE SMOOTH",
"522 297 LINE",
"468 368 LINE",
"388 475 LINE SMOOTH",
"371 497 OFFCURVE",
"357 525 OFFCURVE",
"334 539 CURVE SMOOTH",
"329 542 OFFCURVE",
"359 543 OFFCURVE",
"364 544 CURVE SMOOTH",
"388 548 OFFCURVE",
"408 555 OFFCURVE",
"429 564 CURVE SMOOTH",
"473 581 OFFCURVE",
"513 601 OFFCURVE",
"539 642 CURVE SMOOTH",
"560 676 OFFCURVE",
"571 717 OFFCURVE",
"569 758 CURVE SMOOTH",
"567 801 OFFCURVE",
"550 838 OFFCURVE",
"518 869 CURVE SMOOTH",
"457 930 OFFCURVE",
"376 937 OFFCURVE",
"293 936 CURVE SMOOTH",
"127 934 LINE SMOOTH",
"79 933 OFFCURVE",
"28 935 OFFCURVE",
"-18 915 CURVE",
"-29 909 OFFCURVE",
"2 919 OFFCURVE",
"25 919 CURVE SMOOTH",
"32 919 OFFCURVE",
"38 918 OFFCURVE",
"42 915 CURVE SMOOTH",
"58 904 OFFCURVE",
"65 883 OFFCURVE",
"69 863 CURVE SMOOTH",
"79 813 OFFCURVE",
"79 764 OFFCURVE",
"79 712 CURVE SMOOTH",
"79 702 OFFCURVE",
"81 692 OFFCURVE",
"75 683 CURVE SMOOTH",
"70 675 OFFCURVE",
"65 667 OFFCURVE",
"64 660 CURVE SMOOTH",
"62 648 OFFCURVE",
"69 642 OFFCURVE",
"71 634 CURVE SMOOTH",
"73 624 OFFCURVE",
"65 614 OFFCURVE",
"62 606 CURVE SMOOTH",
"59 599 OFFCURVE",
"61 593 OFFCURVE",
"69 588 CURVE SMOOTH",
"78 582 OFFCURVE",
"72 580 OFFCURVE",
"67 574 CURVE SMOOTH",
"61 567 OFFCURVE",
"61 557 OFFCURVE",
"65 551 CURVE SMOOTH",
"72 540 OFFCURVE",
"79 539 OFFCURVE",
"69 527 CURVE SMOOTH",
"58 515 OFFCURVE",
"52 491 OFFCURVE",
"72 482 CURVE SMOOTH",
"83 477 OFFCURVE",
"84 479 OFFCURVE",
"85 468 CURVE SMOOTH",
"87 442 OFFCURVE",
"89 415 OFFCURVE",
"89 390 CURVE SMOOTH",
"90 173 LINE SMOOTH",
"90 67 OFFCURVE",
"97 -40 OFFCURVE",
"104 -146 CURVE SMOOTH",
"108 -199 OFFCURVE",
"106 -250 OFFCURVE",
"106 -301 CURVE SMOOTH",
"106 -350 OFFCURVE",
"114 -408 OFFCURVE",
"101 -455 CURVE",
"92 -451 OFFCURVE",
"82 -447 OFFCURVE",
"72 -447 CURVE SMOOTH",
"63 -447 OFFCURVE",
"54 -451 OFFCURVE",
"47 -460 CURVE SMOOTH",
"37 -473 OFFCURVE",
"28 -495 OFFCURVE",
"31 -512 CURVE SMOOTH",
"34 -532 OFFCURVE",
"48 -540 OFFCURVE",
"64 -540 CURVE SMOOTH"
);
},
{
closed = 1;
nodes = (
"71 -523 OFFCURVE",
"61 -519 OFFCURVE",
"52 -509 CURVE SMOOTH",
"36 -490 OFFCURVE",
"41 -454 OFFCURVE",
"72 -455 CURVE SMOOTH",
"93 -456 OFFCURVE",
"97 -489 OFFCURVE",
"93 -505 CURVE",
"106 -504 OFFCURVE",
"116 -476 OFFCURVE",
"119 -464 CURVE SMOOTH",
"125 -441 OFFCURVE",
"120 -417 OFFCURVE",
"120 -395 CURVE SMOOTH",
"122 -236 LINE SMOOTH",
"123 -133 OFFCURVE",
"110 -29 OFFCURVE",
"109 73 CURVE SMOOTH",
"107 381 LINE SMOOTH",
"107 405 OFFCURVE",
"106 432 OFFCURVE",
"105 456 CURVE SMOOTH",
"104 491 LINE SMOOTH",
"104 501 OFFCURVE",
"103 497 OFFCURVE",
"95 496 CURVE SMOOTH",
"85 495 OFFCURVE",
"69 495 OFFCURVE",
"72 509 CURVE SMOOTH",
"76 526 OFFCURVE",
"107 528 OFFCURVE",
"104 544 CURVE",
"93 546 OFFCURVE",
"85 544 OFFCURVE",
"78 555 CURVE SMOOTH",
"73 563 OFFCURVE",
"77 573 OFFCURVE",
"86 576 CURVE SMOOTH",
"89 577 OFFCURVE",
"118 587 OFFCURVE",
"104 588 CURVE SMOOTH",
"93 589 OFFCURVE",
"75 586 OFFCURVE",
"73 601 CURVE SMOOTH",
"72 609 OFFCURVE",
"75 623 OFFCURVE",
"83 627 CURVE SMOOTH",
"101 637 LINE",
"93 638 OFFCURVE",
"84 631 OFFCURVE",
"75 640 CURVE SMOOTH",
"71 644 OFFCURVE",
"71 655 OFFCURVE",
"73 662 CURVE SMOOTH",
"76 673 OFFCURVE",
"85 665 OFFCURVE",
"92 672 CURVE SMOOTH",
"96 676 OFFCURVE",
"93 690 OFFCURVE",
"92 697 CURVE SMOOTH",
"88 722 OFFCURVE",
"92 751 OFFCURVE",
"89 779 CURVE SMOOTH",
"87 796 OFFCURVE",
"92 904 OFFCURVE",
"68 914 CURVE",
"83 914 OFFCURVE",
"119 917 OFFCURVE",
"120 913 CURVE SMOOTH",
"122 907 OFFCURVE",
"121 903 OFFCURVE",
"121 897 CURVE SMOOTH",
"122 823 LINE SMOOTH",
"123 772 OFFCURVE",
"120 724 OFFCURVE",
"122 674 CURVE SMOOTH",
"134 324 LINE SMOOTH",
"138 208 OFFCURVE",
"129 91 OFFCURVE",
"134 -26 CURVE SMOOTH",
"140 -166 OFFCURVE",
"142 -356 OFFCURVE",
"140 -410 CURVE SMOOTH",
"139 -446 OFFCURVE",
"132 -523 OFFCURVE",
"81 -523 CURVE SMOOTH"
);
},
{
closed = 1;
nodes = (
"98 503 OFFCURVE",
"114 520 OFFCURVE",
"101 520 CURVE SMOOTH",
"97 520 OFFCURVE",
"81 514 OFFCURVE",
"89 509 CURVE SMOOTH"
);
},
{
closed = 1;
nodes = (
"110 553 OFFCURVE",
"116 565 OFFCURVE",
"98 570 CURVE",
"98 570 OFFCURVE",
"85 563 OFFCURVE",
"92 557 CURVE SMOOTH",
"95 554 OFFCURVE",
"98 553 OFFCURVE",
"101 553 CURVE SMOOTH"
);
},
{
closed = 1;
nodes = (
"94 603 OFFCURVE",
"97 604 OFFCURVE",
"99 606 CURVE SMOOTH",
"107 617 OFFCURVE",
"92 614 OFFCURVE",
"85 611 CURVE SMOOTH",
"76 608 OFFCURVE",
"83 603 OFFCURVE",
"91 603 CURVE SMOOTH"
);
},
{
closed = 1;
nodes = (
"108 656 OFFCURVE",
"92 665 OFFCURVE",
"84 658 CURVE SMOOTH",
"73 648 OFFCURVE",
"90 645 OFFCURVE",
"97 649 CURVE SMOOTH"
);
},
{
closed = 1;
nodes = (
"200 568 OFFCURVE",
"190 604 OFFCURVE",
"213 614 CURVE SMOOTH",
"231 622 OFFCURVE",
"229 611 OFFCURVE",
"223 604 CURVE SMOOTH",
"205 583 OFFCURVE",
"226 578 OFFCURVE",
"234 600 CURVE SMOOTH",
"236 605 OFFCURVE",
"243 610 OFFCURVE",
"245 602 CURVE SMOOTH",
"246 597 OFFCURVE",
"245 589 OFFCURVE",
"243 586 CURVE SMOOTH",
"235 573 OFFCURVE",
"226 568 OFFCURVE",
"219 568 CURVE SMOOTH"
);
},
{
closed = 1;
nodes = (
"198 731 LINE SMOOTH",
"198 692 OFFCURVE",
"195 808 OFFCURVE",
"198 847 CURVE",
"208 844 LINE SMOOTH",
"217 841 OFFCURVE",
"214 838 OFFCURVE",
"214 831 CURVE SMOOTH",
"214 790 LINE SMOOTH",
"214 765 OFFCURVE",
"218 739 OFFCURVE",
"218 714 CURVE SMOOTH",
"217 645 LINE SMOOTH",
"217 627 OFFCURVE",
"213 627 OFFCURVE",
"198 618 CURVE"
);
},
{
closed = 1;
nodes = (
"237 575 OFFCURVE",
"269 588 OFFCURVE",
"248 611 CURVE SMOOTH",
"239 621 OFFCURVE",
"224 618 OFFCURVE",
"224 634 CURVE SMOOTH",
"224 728 LINE",
"223 764 LINE",
"223 824 LINE SMOOTH",
"223 831 OFFCURVE",
"224 837 OFFCURVE",
"224 843 CURVE",
"237 846 LINE SMOOTH",
"254 850 OFFCURVE",
"262 867 OFFCURVE",
"262 883 CURVE SMOOTH",
"262 893 OFFCURVE",
"281 891 OFFCURVE",
"290 891 CURVE SMOOTH",
"322 891 OFFCURVE",
"352 888 OFFCURVE",
"381 875 CURVE SMOOTH",
"449 845 OFFCURVE",
"496 771 OFFCURVE",
"480 697 CURVE SMOOTH",
"458 600 OFFCURVE",
"329 593 OFFCURVE",
"251 582 CURVE"
);
},
{
closed = 1;
nodes = (
"209 857 OFFCURVE",
"200 860 OFFCURVE",
"195 867 CURVE SMOOTH",
"189 876 OFFCURVE",
"195 900 OFFCURVE",
"195 910 CURVE",
"211 910 OFFCURVE",
"225 916 OFFCURVE",
"238 906 CURVE SMOOTH",
"248 900 OFFCURVE",
"256 888 OFFCURVE",
"253 875 CURVE SMOOTH",
"251 864 OFFCURVE",
"235 857 OFFCURVE",
"220 857 CURVE SMOOTH"
);
},
{
closed = 1;
nodes = (
"241 892 OFFCURVE",
"230 899 OFFCURVE",
"223 896 CURVE SMOOTH",
"207 890 OFFCURVE",
"219 869 OFFCURVE",
"230 881 CURVE SMOOTH"
);
},
{
closed = 1;
nodes = (
"224 559 OFFCURVE",
"227 558 OFFCURVE",
"232 563 CURVE SMOOTH",
"241 572 LINE SMOOTH",
"246 577 OFFCURVE",
"264 571 OFFCURVE",
"293 573 CURVE SMOOTH",
"350 577 OFFCURVE",
"430 601 OFFCURVE",
"471 642 CURVE SMOOTH",
"489 660 OFFCURVE",
"498 689 OFFCURVE",
"505 713 CURVE SMOOTH",
"522 774 OFFCURVE",
"488 835 OFFCURVE",
"438 869 CURVE SMOOTH",
"408 891 OFFCURVE",
"371 899 OFFCURVE",
"336 903 CURVE SMOOTH",
"316 905 OFFCURVE",
"298 903 OFFCURVE",
"280 903 CURVE SMOOTH",
"277 903 OFFCURVE",
"257 897 OFFCURVE",
"257 903 CURVE SMOOTH",
"257 904 OFFCURVE",
"255 911 OFFCURVE",
"252 913 CURVE",
"289 911 OFFCURVE",
"394 906 OFFCURVE",
"431 885 CURVE SMOOTH",
"485 854 OFFCURVE",
"517 804 OFFCURVE",
"524 744 CURVE SMOOTH",
"531 680 OFFCURVE",
"504 632 OFFCURVE",
"448 600 CURVE SMOOTH",
"388 567 OFFCURVE",
"311 555 OFFCURVE",
"243 558 CURVE SMOOTH"
);
}
);
width = 706;
}
);
note = R;
unicode = 0052;
},
{
glyphname = S;
lastChange = "2021-12-30 14:01:18 +0000";
layers = (
{
hints = (
{
horizontal = 1;
place = "{25, 19}";
type = Stem;
},
{
horizontal = 1;
place = "{191, 10}";
type = Stem;
},
{
horizontal = 1;
place = "{256, 16}";
type = Stem;
},
{
horizontal = 1;
place = "{713, 20}";
type = Stem;
},
{
horizontal = 1;
place = "{747, 30}";
type = Stem;
},
{
horizontal = 1;
place = "{944, 17}";
type = Stem;
},
{
place = "{20, 70}";
type = Stem;
},
{
place = "{99, 14}";
type = Stem;
},
{
place = "{120, 10}";
type = Stem;
},
{
place = "{482, 20}";
type = Stem;
},
{
place = "{529, 8}";
type = Stem;
},
{
place = "{549, 8}";
type = Stem;
},
{
horizontal = 1;
place = "{771, 152}";
type = Stem;
},
{
place = "{69, 8}";
type = Stem;
},
{
horizontal = 1;
place = "{44, 8}";
type = Stem;
},
{
place = "{46, 30}";
type = Stem;
}
);
layerId = "C926F53D-A7E5-453A-A1AF-2EFB3CF89CC0";
paths = (
{
closed = 1;
nodes = (
"77 -18 OFFCURVE",
"77 8 OFFCURVE",
"77 11 CURVE SMOOTH",
"77 26 OFFCURVE",
"85 30 OFFCURVE",
"95 30 CURVE SMOOTH",
"107 30 OFFCURVE",
"122 25 OFFCURVE",
"132 25 CURVE SMOOTH",
"176 23 LINE SMOOTH",
"195 22 OFFCURVE",
"209 30 OFFCURVE",
"226 32 CURVE SMOOTH",
"241 33 OFFCURVE",
"257 30 OFFCURVE",
"272 32 CURVE SMOOTH",
"291 33 OFFCURVE",
"312 37 OFFCURVE",
"331 42 CURVE SMOOTH",
"417 67 OFFCURVE",
"485 102 OFFCURVE",
"531 181 CURVE SMOOTH",
"572 250 OFFCURVE",
"564 346 OFFCURVE",
"528 416 CURVE SMOOTH",
"505 460 OFFCURVE",
"465 490 OFFCURVE",
"419 510 CURVE SMOOTH",
"390 523 OFFCURVE",
"360 534 OFFCURVE",
"331 549 CURVE SMOOTH",
"301 564 OFFCURVE",
"270 568 OFFCURVE",
"243 582 CURVE SMOOTH",
"213 597 OFFCURVE",
"182 611 OFFCURVE",
"151 628 CURVE SMOOTH",
"81 665 OFFCURVE",
"79 748 OFFCURVE",
"106 815 CURVE SMOOTH",
"140 900 OFFCURVE",
"233 945 OFFCURVE",
"323 945 CURVE SMOOTH",
"416 945 OFFCURVE",
"466 907 OFFCURVE",
"522 836 CURVE SMOOTH",
"533 822 OFFCURVE",
"541 805 OFFCURVE",
"544 789 CURVE SMOOTH",
"548 773 OFFCURVE",
"553 758 OFFCURVE",
"544 743 CURVE SMOOTH",
"540 736 OFFCURVE",
"533 731 OFFCURVE",
"524 733 CURVE SMOOTH",
"514 734 OFFCURVE",
"504 738 OFFCURVE",
"502 748 CURVE SMOOTH",
"500 757 OFFCURVE",
"497 765 OFFCURVE",
"507 771 CURVE SMOOTH",
"514 774 OFFCURVE",
"522 773 OFFCURVE",
"526 767 CURVE SMOOTH",
"534 756 OFFCURVE",
"521 760 OFFCURVE",
"516 758 CURVE SMOOTH",
"509 756 OFFCURVE",
"511 749 OFFCURVE",
"516 747 CURVE SMOOTH",
"527 742 OFFCURVE",
"537 748 OFFCURVE",
"537 760 CURVE SMOOTH",
"537 773 OFFCURVE",
"528 777 OFFCURVE",
"518 777 CURVE SMOOTH",
"512 777 OFFCURVE",
"504 775 OFFCURVE",
"498 773 CURVE SMOOTH",
"466 759 OFFCURVE",
"488 713 OFFCURVE",
"514 713 CURVE SMOOTH",
"519 713 OFFCURVE",
"524 715 OFFCURVE",
"529 719 CURVE SMOOTH",
"551 737 OFFCURVE",
"560 757 OFFCURVE",
"559 784 CURVE SMOOTH",
"557 806 OFFCURVE",
"557 828 OFFCURVE",
"557 851 CURVE SMOOTH",
"557 864 LINE",
"560 889 LINE",
"560 924 LINE SMOOTH",
"560 931 OFFCURVE",
"566 937 OFFCURVE",
"566 946 CURVE",
"559 940 OFFCURVE",
"560 930 OFFCURVE",
"553 926 CURVE SMOOTH",
"530 915 OFFCURVE",
"471 940 OFFCURVE",
"449 946 CURVE SMOOTH",
"404 956 OFFCURVE",
"360 964 OFFCURVE",
"316 961 CURVE SMOOTH",
"233 954 OFFCURVE",
"154 937 OFFCURVE",
"94 874 CURVE SMOOTH",
"33 811 OFFCURVE",
"2 705 OFFCURVE",
"31 620 CURVE SMOOTH",
"47 572 OFFCURVE",
"80 534 OFFCURVE",
"121 506 CURVE SMOOTH",
"178 468 OFFCURVE",
"245 451 OFFCURVE",
"305 422 CURVE SMOOTH",
"394 379 OFFCURVE",
"480 350 OFFCURVE",
"498 241 CURVE SMOOTH",
"522 100 OFFCURVE",
"336 37 OFFCURVE",
"228 52 CURVE SMOOTH",
"209 55 OFFCURVE",
"187 57 OFFCURVE",
"171 68 CURVE SMOOTH",
"130 96 OFFCURVE",
"87 134 OFFCURVE",
"72 184 CURVE SMOOTH",
"67 198 OFFCURVE",
"58 222 OFFCURVE",
"62 236 CURVE SMOOTH",
"64 247 OFFCURVE",
"75 256 OFFCURVE",
"88 256 CURVE SMOOTH",
"99 256 OFFCURVE",
"108 246 OFFCURVE",
"114 239 CURVE SMOOTH",
"127 226 OFFCURVE",
"119 199 OFFCURVE",
"99 201 CURVE SMOOTH",
"89 202 OFFCURVE",
"64 225 OFFCURVE",
"82 234 CURVE SMOOTH",
"89 238 OFFCURVE",
"97 232 OFFCURVE",
"99 227 CURVE SMOOTH",
"102 219 OFFCURVE",
"94 221 OFFCURVE",
"94 214 CURVE",
"114 210 OFFCURVE",
"121 241 OFFCURVE",
"101 245 CURVE SMOOTH",
"84 247 OFFCURVE",
"72 230 OFFCURVE",
"70 215 CURVE SMOOTH",
"68 201 OFFCURVE",
"80 191 OFFCURVE",
"94 191 CURVE SMOOTH",
"118 191 OFFCURVE",
"132 222 OFFCURVE",
"130 243 CURVE SMOOTH",
"128 261 OFFCURVE",
"110 272 OFFCURVE",
"92 272 CURVE SMOOTH",
"64 272 OFFCURVE",
"46 240 OFFCURVE",
"46 215 CURVE SMOOTH",
"46 181 OFFCURVE",
"51 146 OFFCURVE",
"55 114 CURVE SMOOTH",
"56 98 OFFCURVE",
"56 83 OFFCURVE",
"60 70 CURVE SMOOTH",
"64 52 OFFCURVE",
"67 35 OFFCURVE",
"68 19 CURVE SMOOTH",
"70 -18 LINE"
);
},
{
closed = 1;
nodes = (
"171 41 OFFCURVE",
"143 47 OFFCURVE",
"132 49 CURVE SMOOTH",
"114 51 OFFCURVE",
"97 56 OFFCURVE",
"84 65 CURVE SMOOTH",
"72 73 OFFCURVE",
"72 92 OFFCURVE",
"70 102 CURVE SMOOTH",
"69 105 OFFCURVE",
"64 126 OFFCURVE",
"72 126 CURVE SMOOTH",
"73 126 OFFCURVE",
"77 116 OFFCURVE",
"79 114 CURVE SMOOTH",
"94 102 LINE SMOOTH",
"106 92 OFFCURVE",
"119 80 OFFCURVE",
"134 73 CURVE SMOOTH",
"144 67 OFFCURVE",
"156 59 OFFCURVE",
"167 56 CURVE SMOOTH",
"170 55 OFFCURVE",
"204 44 OFFCURVE",
"206 44 CURVE SMOOTH"
);
}
);
width = 606;
}
);
note = S;
unicode = 0053;
},
{
glyphname = T;
lastChange = "2021-12-30 14:01:18 +0000";
layers = (
{
hints = (
{
horizontal = 1;
place = "{37, 12}";
type = Stem;
},
{
horizontal = 1;
place = "{531, 18}";
type = Stem;
},
{
horizontal = 1;
place = "{597, 19}";
type = Stem;
},
{
horizontal = 1;
place = "{652, 18}";
type = Stem;
},
{
horizontal = 1;
place = "{748, 11}";
type = Stem;
},
{
horizontal = 1;
place = "{873, 13}";
type = Stem;
},
{
horizontal = 1;
place = "{902, 18}";
type = Stem;
},
{
horizontal = 1;
place = "{963, -20}";
target = down;
type = TopGhost;
},
{
place = "{6, 24}";
type = Stem;
},
{
place = "{34, 10}";
type = Stem;
},
{
place = "{83, 11}";
type = Stem;
},
{
place = "{231, 16}";
type = Stem;
},
{
place = "{260, 31}";
type = Stem;
},
{
place = "{321, 46}";
type = Stem;
},
{
horizontal = 1;
place = "{908, 21}";
type = Stem;
},
{
place = "{266, 11}";
type = Stem;
},
{
place = "{234, 9}";
type = Stem;
},
{
place = "{273, 16}";
type = Stem;
},
{
horizontal = 1;
place = "{873, 20}";
type = Stem;
}
);
layerId = "C926F53D-A7E5-453A-A1AF-2EFB3CF89CC0";
paths = (
{
closed = 1;
nodes = (
"277 37 OFFCURVE",
"302 38 OFFCURVE",
"352 39 CURVE SMOOTH",
"409 40 OFFCURVE",
"417 40 OFFCURVE",
"446 44 CURVE",
"468 56 OFFCURVE",
"404 45 OFFCURVE",
"379 74 CURVE SMOOTH",
"368 87 OFFCURVE",
"368 127 OFFCURVE",
"366 176 CURVE SMOOTH",
"363 257 OFFCURVE",
"367 347 OFFCURVE",
"367 432 CURVE SMOOTH",
"367 507 OFFCURVE",
"366 583 OFFCURVE",
"369 657 CURVE SMOOTH",
"376 824 OFFCURVE",
"366 853 OFFCURVE",
"384 858 CURVE SMOOTH",
"412 866 OFFCURVE",
"452 873 OFFCURVE",
"491 873 CURVE SMOOTH",
"527 873 OFFCURVE",
"562 866 OFFCURVE",
"585 847 CURVE SMOOTH",
"605 830 OFFCURVE",
"609 825 OFFCURVE",
"612 797 CURVE SMOOTH",
"616 762 OFFCURVE",
"603 726 OFFCURVE",
"619 761 CURVE SMOOTH",
"639 807 OFFCURVE",
"631 866 OFFCURVE",
"634 920 CURVE SMOOTH",
"635 944 OFFCURVE",
"642 963 OFFCURVE",
"639 963 CURVE SMOOTH",
"638 963 OFFCURVE",
"634 958 OFFCURVE",
"626 945 CURVE SMOOTH",
"610 920 OFFCURVE",
"504 929 OFFCURVE",
"466 929 CURVE SMOOTH",
"325 929 OFFCURVE",
"258 920 OFFCURVE",
"115 920 CURVE SMOOTH",
"83 920 OFFCURVE",
"30 922 OFFCURVE",
"14 936 CURVE SMOOTH",
"8 942 OFFCURVE",
"4 944 OFFCURVE",
"2 944 CURVE SMOOTH",
"-5 944 OFFCURVE",
"6 919 OFFCURVE",
"6 908 CURVE SMOOTH",
"6 828 OFFCURVE",
"-13 746 OFFCURVE",
"56 748 CURVE SMOOTH",
"101 749 OFFCURVE",
"111 829 OFFCURVE",
"62 832 CURVE SMOOTH",
"11 835 OFFCURVE",
"80 863 OFFCURVE",
"98 868 CURVE SMOOTH",
"113 872 OFFCURVE",
"137 874 OFFCURVE",
"162 874 CURVE SMOOTH",
"202 874 OFFCURVE",
"245 869 OFFCURVE",
"253 860 CURVE",
"267 833 OFFCURVE",
"266 790 OFFCURVE",
"266 763 CURVE SMOOTH",
"266 719 OFFCURVE",
"271 706 OFFCURVE",
"243 678 CURVE",
"221 661 OFFCURVE",
"234 639 OFFCURVE",
"249 627 CURVE",
"230 616 OFFCURVE",
"230 586 OFFCURVE",
"246 574 CURVE",
"221 541 OFFCURVE",
"240 528 OFFCURVE",
"261 505 CURVE SMOOTH",
"278 488 OFFCURVE",
"273 410 OFFCURVE",
"273 387 CURVE SMOOTH",
"273 305 OFFCURVE",
"271 219 OFFCURVE",
"269 135 CURVE SMOOTH",
"268 79 OFFCURVE",
"246 64 OFFCURVE",
"215 54 CURVE SMOOTH",
"175 40 OFFCURVE",
"200 37 OFFCURVE",
"234 37 CURVE SMOOTH"
);
},
{
closed = 1;
nodes = (
"263 49 OFFCURVE",
"233 52 OFFCURVE",
"243 54 CURVE SMOOTH",
"254 57 LINE SMOOTH",
"271 63 OFFCURVE",
"280 62 OFFCURVE",
"284 105 CURVE SMOOTH",
"287 136 OFFCURVE",
"286 147 OFFCURVE",
"289 409 CURVE",
"285 503 LINE SMOOTH",
"285 513 OFFCURVE",
"245 532 OFFCURVE",
"260 531 CURVE",
"300 533 OFFCURVE",
"290 549 OFFCURVE",
"274 549 CURVE SMOOTH",
"267 549 OFFCURVE",
"259 546 OFFCURVE",
"254 538 CURVE",
"235 580 OFFCURVE",
"299 570 OFFCURVE",
"260 583 CURVE SMOOTH",
"216 597 OFFCURVE",
"268 633 OFFCURVE",
"277 630 CURVE",
"284 641 OFFCURVE",
"235 638 OFFCURVE",
"250 665 CURVE SMOOTH",
"258 678 OFFCURVE",
"260 671 OFFCURVE",
"273 681 CURVE SMOOTH",
"282 687 OFFCURVE",
"278 713 OFFCURVE",
"278 724 CURVE SMOOTH",
"277 811 LINE SMOOTH",
"277 823 OFFCURVE",
"274 870 OFFCURVE",
"261 881 CURVE",
"221 887 OFFCURVE",
"195 886 OFFCURVE",
"154 886 CURVE SMOOTH",
"71 886 OFFCURVE",
"35 859 OFFCURVE",
"30 859 CURVE SMOOTH",
"28 859 OFFCURVE",
"32 864 OFFCURVE",
"41 879 CURVE SMOOTH",
"52 898 OFFCURVE",
"94 902 OFFCURVE",
"128 902 CURVE SMOOTH",
"181 902 OFFCURVE",
"235 904 OFFCURVE",
"285 902 CURVE SMOOTH",
"310 901 OFFCURVE",
"316 892 OFFCURVE",
"317 836 CURVE SMOOTH",
"318 728 LINE",
"317 594 LINE SMOOTH",
"316 478 OFFCURVE",
"318 373 OFFCURVE",
"321 255 CURVE SMOOTH",
"322 218 OFFCURVE",
"321 208 OFFCURVE",
"321 145 CURVE SMOOTH",
"321 54 LINE SMOOTH",
"321 50 OFFCURVE",
"306 49 OFFCURVE",
"288 49 CURVE SMOOTH"
);
},
{
closed = 1;
nodes = (
"29 759 OFFCURVE",
"1 794 OFFCURVE",
"28 824 CURVE SMOOTH",
"42 839 OFFCURVE",
"26 813 OFFCURVE",
"31 800 CURVE SMOOTH",
"35 790 OFFCURVE",
"47 778 OFFCURVE",
"55 778 CURVE SMOOTH",
"58 778 OFFCURVE",
"60 780 OFFCURVE",
"62 783 CURVE SMOOTH",
"68 794 OFFCURVE",
"46 803 OFFCURVE",
"56 812 CURVE SMOOTH",
"60 815 OFFCURVE",
"63 817 OFFCURVE",
"66 817 CURVE SMOOTH",
"87 817 OFFCURVE",
"95 759 OFFCURVE",
"56 759 CURVE SMOOTH"
);
},
{
closed = 1;
nodes = (
"277 597 LINE SMOOTH",
"286 597 OFFCURVE",
"291 602 OFFCURVE",
"291 612 CURVE",
"290 615 OFFCURVE",
"286 616 OFFCURVE",
"281 616 CURVE SMOOTH",
"266 616 OFFCURVE",
"244 605 OFFCURVE",
"275 597 CURVE"
);
},
{
closed = 1;
nodes = (
"285 653 OFFCURVE",
"295 656 OFFCURVE",
"293 665 CURVE SMOOTH",
"292 669 OFFCURVE",
"287 670 OFFCURVE",
"281 670 CURVE SMOOTH",
"271 670 OFFCURVE",
"258 665 OFFCURVE",
"258 661 CURVE",
"256 656 OFFCURVE",
"265 653 OFFCURVE",
"275 653 CURVE SMOOTH"
);
},
{
closed = 1;
nodes = (
"384 896 OFFCURVE",
"421 908 OFFCURVE",
"440 908 CURVE SMOOTH",
"530 908 LINE SMOOTH",
"553 908 OFFCURVE",
"576 915 OFFCURVE",
"596 902 CURVE SMOOTH",
"609 895 OFFCURVE",
"569 895 OFFCURVE",
"527 893 CURVE SMOOTH",
"499 892 OFFCURVE",
"452 893 OFFCURVE",
"423 888 CURVE SMOOTH",
"412 886 OFFCURVE",
"384 881 OFFCURVE",
"384 884 CURVE SMOOTH"
);
}
);
width = 650;
}
);
note = T;
unicode = 0054;
},
{
glyphname = U;
lastChange = "2021-12-30 14:01:18 +0000";
layers = (
{
hints = (
{
horizontal = 1;
place = "{0, 21}";
target = up;
type = BottomGhost;
},
{
horizontal = 1;
place = "{33, 27}";
type = Stem;
},
{
horizontal = 1;
place = "{920, 15}";
type = Stem;
},
{
place = "{40, 63}";
type = Stem;
},
{
place = "{122, 46}";
type = Stem;
},
{
place = "{653, 69}";
type = Stem;
},
{
horizontal = 1;
place = "{916, 10}";
type = Stem;
}
);
layerId = "C926F53D-A7E5-453A-A1AF-2EFB3CF89CC0";
paths = (
{
closed = 1;
nodes = (
"705 -13 OFFCURVE",
"722 11 OFFCURVE",
"722 315 CURVE SMOOTH",
"722 840 LINE SMOOTH",
"722 922 OFFCURVE",
"738 922 OFFCURVE",
"763 929 CURVE",
"790 940 OFFCURVE",
"662 935 OFFCURVE",
"617 935 CURVE SMOOTH",
"562 935 OFFCURVE",
"551 926 OFFCURVE",
"592 920 CURVE SMOOTH",
"657 911 OFFCURVE",
"653 623 OFFCURVE",
"653 535 CURVE SMOOTH",
"653 419 OFFCURVE",
"637 241 OFFCURVE",
"569 143 CURVE SMOOTH",
"530 89 OFFCURVE",
"461 60 OFFCURVE",
"397 60 CURVE SMOOTH",
"347 60 OFFCURVE",
"300 77 OFFCURVE",
"270 110 CURVE SMOOTH",
"125 270 OFFCURVE",
"164 596 OFFCURVE",
"208 818 CURVE SMOOTH",
"216 857 OFFCURVE",
"231 913 OFFCURVE",
"250 916 CURVE SMOOTH",
"286 922 OFFCURVE",
"307 926 OFFCURVE",
"240 926 CURVE SMOOTH",
"208 926 OFFCURVE",
"169 927 OFFCURVE",
"143 926 CURVE SMOOTH",
"37 922 LINE SMOOTH",
"16 920 OFFCURVE",
"0 924 OFFCURVE",
"-17 916 CURVE SMOOTH",
"-34 908 OFFCURVE",
"35 916 OFFCURVE",
"63 890 CURVE SMOOTH",
"82 873 OFFCURVE",
"81 809 OFFCURVE",
"72 747 CURVE SMOOTH",
"33 528 OFFCURVE",
"19 336 OFFCURVE",
"92 186 CURVE",
"156 75 OFFCURVE",
"264 33 OFFCURVE",
"375 33 CURVE SMOOTH",
"509 33 OFFCURVE",
"588 79 OFFCURVE",
"673 184 CURVE SMOOTH",
"686 200 OFFCURVE",
"705 22 OFFCURVE",
"705 4 CURVE SMOOTH"
);
},
{
closed = 1;
nodes = (
"302 59 OFFCURVE",
"258 83 OFFCURVE",
"217 114 CURVE",
"99 228 OFFCURVE",
"92 454 OFFCURVE",
"112 614 CURVE SMOOTH",
"137 781 OFFCURVE",
"180 949 OFFCURVE",
"175 901 CURVE",
"178 886 OFFCURVE",
"158 799 OFFCURVE",
"149 751 CURVE SMOOTH",
"138 701 OFFCURVE",
"134 629 OFFCURVE",
"122 548 CURVE",
"112 350 OFFCURVE",
"129 182 OFFCURVE",
"271 81 CURVE",
"299 66 OFFCURVE",
"308 59 OFFCURVE",
"306 59 CURVE SMOOTH"
);
}
);
width = 784;
}
);
note = U;
unicode = 0055;
},
